G04 #@! TF.GenerationSoftware,KiCad,Pcbnew,6.0.4-6f826c9f35~116~ubuntu20.04.1*
G04 #@! TF.CreationDate,2022-04-20T21:21:03-04:00*
G04 #@! TF.ProjectId,yash_panel,79617368-5f70-4616-9e65-6c2e6b696361,rev?*
G04 #@! TF.SameCoordinates,Original*
G04 #@! TF.FileFunction,Legend,Bot*
G04 #@! TF.FilePolarity,Positive*
%FSLAX46Y46*%
G04 Gerber Fmt 4.6, Leading zero omitted, Abs format (unit mm)*
G04 Created by KiCad (PCBNEW 6.0.4-6f826c9f35~116~ubuntu20.04.1) date 2022-04-20 21:21:03*
%MOMM*%
%LPD*%
G01*
G04 APERTURE LIST*
%ADD10C,0.150000*%
%ADD11C,0.010000*%
G04 APERTURE END LIST*
D10*
X46957142Y-55004761D02*
X46814285Y-55052380D01*
X46576190Y-55052380D01*
X46480952Y-55004761D01*
X46433333Y-54957142D01*
X46385714Y-54861904D01*
X46385714Y-54766666D01*
X46433333Y-54671428D01*
X46480952Y-54623809D01*
X46576190Y-54576190D01*
X46766666Y-54528571D01*
X46861904Y-54480952D01*
X46909523Y-54433333D01*
X46957142Y-54338095D01*
X46957142Y-54242857D01*
X46909523Y-54147619D01*
X46861904Y-54100000D01*
X46766666Y-54052380D01*
X46528571Y-54052380D01*
X46385714Y-54100000D01*
X45957142Y-55052380D02*
X45957142Y-54385714D01*
X45957142Y-54052380D02*
X46004761Y-54100000D01*
X45957142Y-54147619D01*
X45909523Y-54100000D01*
X45957142Y-54052380D01*
X45957142Y-54147619D01*
X45052380Y-54385714D02*
X45052380Y-55195238D01*
X45100000Y-55290476D01*
X45147619Y-55338095D01*
X45242857Y-55385714D01*
X45385714Y-55385714D01*
X45480952Y-55338095D01*
X45052380Y-55004761D02*
X45147619Y-55052380D01*
X45338095Y-55052380D01*
X45433333Y-55004761D01*
X45480952Y-54957142D01*
X45528571Y-54861904D01*
X45528571Y-54576190D01*
X45480952Y-54480952D01*
X45433333Y-54433333D01*
X45338095Y-54385714D01*
X45147619Y-54385714D01*
X45052380Y-54433333D01*
X44576190Y-54385714D02*
X44576190Y-55052380D01*
X44576190Y-54480952D02*
X44528571Y-54433333D01*
X44433333Y-54385714D01*
X44290476Y-54385714D01*
X44195238Y-54433333D01*
X44147619Y-54528571D01*
X44147619Y-55052380D01*
X43242857Y-55052380D02*
X43242857Y-54528571D01*
X43290476Y-54433333D01*
X43385714Y-54385714D01*
X43576190Y-54385714D01*
X43671428Y-54433333D01*
X43242857Y-55004761D02*
X43338095Y-55052380D01*
X43576190Y-55052380D01*
X43671428Y-55004761D01*
X43719047Y-54909523D01*
X43719047Y-54814285D01*
X43671428Y-54719047D01*
X43576190Y-54671428D01*
X43338095Y-54671428D01*
X43242857Y-54623809D01*
X42623809Y-55052380D02*
X42719047Y-55004761D01*
X42766666Y-54909523D01*
X42766666Y-54052380D01*
X41338095Y-55052380D02*
X41433333Y-55004761D01*
X41480952Y-54909523D01*
X41480952Y-54052380D01*
X40576190Y-55004761D02*
X40671428Y-55052380D01*
X40861904Y-55052380D01*
X40957142Y-55004761D01*
X41004761Y-54909523D01*
X41004761Y-54528571D01*
X40957142Y-54433333D01*
X40861904Y-54385714D01*
X40671428Y-54385714D01*
X40576190Y-54433333D01*
X40528571Y-54528571D01*
X40528571Y-54623809D01*
X41004761Y-54719047D01*
X40195238Y-54385714D02*
X39957142Y-55052380D01*
X39719047Y-54385714D01*
X38957142Y-55004761D02*
X39052380Y-55052380D01*
X39242857Y-55052380D01*
X39338095Y-55004761D01*
X39385714Y-54909523D01*
X39385714Y-54528571D01*
X39338095Y-54433333D01*
X39242857Y-54385714D01*
X39052380Y-54385714D01*
X38957142Y-54433333D01*
X38909523Y-54528571D01*
X38909523Y-54623809D01*
X39385714Y-54719047D01*
X38338095Y-55052380D02*
X38433333Y-55004761D01*
X38480952Y-54909523D01*
X38480952Y-54052380D01*
X37195238Y-54385714D02*
X37195238Y-55385714D01*
X37195238Y-54433333D02*
X37100000Y-54385714D01*
X36909523Y-54385714D01*
X36814285Y-54433333D01*
X36766666Y-54480952D01*
X36719047Y-54576190D01*
X36719047Y-54861904D01*
X36766666Y-54957142D01*
X36814285Y-55004761D01*
X36909523Y-55052380D01*
X37100000Y-55052380D01*
X37195238Y-55004761D01*
X36147619Y-55052380D02*
X36242857Y-55004761D01*
X36290476Y-54957142D01*
X36338095Y-54861904D01*
X36338095Y-54576190D01*
X36290476Y-54480952D01*
X36242857Y-54433333D01*
X36147619Y-54385714D01*
X36004761Y-54385714D01*
X35909523Y-54433333D01*
X35861904Y-54480952D01*
X35814285Y-54576190D01*
X35814285Y-54861904D01*
X35861904Y-54957142D01*
X35909523Y-55004761D01*
X36004761Y-55052380D01*
X36147619Y-55052380D01*
X35528571Y-54385714D02*
X35147619Y-54385714D01*
X35385714Y-54052380D02*
X35385714Y-54909523D01*
X35338095Y-55004761D01*
X35242857Y-55052380D01*
X35147619Y-55052380D01*
X32814285Y-168957142D02*
X32861904Y-169004761D01*
X33004761Y-169052380D01*
X33100000Y-169052380D01*
X33242857Y-169004761D01*
X33338095Y-168909523D01*
X33385714Y-168814285D01*
X33433333Y-168623809D01*
X33433333Y-168480952D01*
X33385714Y-168290476D01*
X33338095Y-168195238D01*
X33242857Y-168100000D01*
X33100000Y-168052380D01*
X33004761Y-168052380D01*
X32861904Y-168100000D01*
X32814285Y-168147619D01*
X32242857Y-169052380D02*
X32338095Y-169004761D01*
X32385714Y-168909523D01*
X32385714Y-168052380D01*
X31719047Y-169052380D02*
X31814285Y-169004761D01*
X31861904Y-168957142D01*
X31909523Y-168861904D01*
X31909523Y-168576190D01*
X31861904Y-168480952D01*
X31814285Y-168433333D01*
X31719047Y-168385714D01*
X31576190Y-168385714D01*
X31480952Y-168433333D01*
X31433333Y-168480952D01*
X31385714Y-168576190D01*
X31385714Y-168861904D01*
X31433333Y-168957142D01*
X31480952Y-169004761D01*
X31576190Y-169052380D01*
X31719047Y-169052380D01*
X30528571Y-169004761D02*
X30623809Y-169052380D01*
X30814285Y-169052380D01*
X30909523Y-169004761D01*
X30957142Y-168957142D01*
X31004761Y-168861904D01*
X31004761Y-168576190D01*
X30957142Y-168480952D01*
X30909523Y-168433333D01*
X30814285Y-168385714D01*
X30623809Y-168385714D01*
X30528571Y-168433333D01*
X30100000Y-169052380D02*
X30100000Y-168052380D01*
X30004761Y-168671428D02*
X29719047Y-169052380D01*
X29719047Y-168385714D02*
X30100000Y-168766666D01*
X28528571Y-169052380D02*
X28528571Y-168385714D01*
X28528571Y-168052380D02*
X28576190Y-168100000D01*
X28528571Y-168147619D01*
X28480952Y-168100000D01*
X28528571Y-168052380D01*
X28528571Y-168147619D01*
X28052380Y-168385714D02*
X28052380Y-169052380D01*
X28052380Y-168480952D02*
X28004761Y-168433333D01*
X27909523Y-168385714D01*
X27766666Y-168385714D01*
X27671428Y-168433333D01*
X27623809Y-168528571D01*
X27623809Y-169052380D01*
X26385714Y-168385714D02*
X26385714Y-169242857D01*
X26433333Y-169338095D01*
X26528571Y-169385714D01*
X26576190Y-169385714D01*
X26385714Y-168052380D02*
X26433333Y-168100000D01*
X26385714Y-168147619D01*
X26338095Y-168100000D01*
X26385714Y-168052380D01*
X26385714Y-168147619D01*
X25480952Y-169052380D02*
X25480952Y-168528571D01*
X25528571Y-168433333D01*
X25623809Y-168385714D01*
X25814285Y-168385714D01*
X25909523Y-168433333D01*
X25480952Y-169004761D02*
X25576190Y-169052380D01*
X25814285Y-169052380D01*
X25909523Y-169004761D01*
X25957142Y-168909523D01*
X25957142Y-168814285D01*
X25909523Y-168719047D01*
X25814285Y-168671428D01*
X25576190Y-168671428D01*
X25480952Y-168623809D01*
X24576190Y-169004761D02*
X24671428Y-169052380D01*
X24861904Y-169052380D01*
X24957142Y-169004761D01*
X25004761Y-168957142D01*
X25052380Y-168861904D01*
X25052380Y-168576190D01*
X25004761Y-168480952D01*
X24957142Y-168433333D01*
X24861904Y-168385714D01*
X24671428Y-168385714D01*
X24576190Y-168433333D01*
X24147619Y-169052380D02*
X24147619Y-168052380D01*
X24052380Y-168671428D02*
X23766666Y-169052380D01*
X23766666Y-168385714D02*
X24147619Y-168766666D01*
X33314285Y-193957142D02*
X33361904Y-194004761D01*
X33504761Y-194052380D01*
X33600000Y-194052380D01*
X33742857Y-194004761D01*
X33838095Y-193909523D01*
X33885714Y-193814285D01*
X33933333Y-193623809D01*
X33933333Y-193480952D01*
X33885714Y-193290476D01*
X33838095Y-193195238D01*
X33742857Y-193100000D01*
X33600000Y-193052380D01*
X33504761Y-193052380D01*
X33361904Y-193100000D01*
X33314285Y-193147619D01*
X32742857Y-194052380D02*
X32838095Y-194004761D01*
X32885714Y-193909523D01*
X32885714Y-193052380D01*
X32219047Y-194052380D02*
X32314285Y-194004761D01*
X32361904Y-193957142D01*
X32409523Y-193861904D01*
X32409523Y-193576190D01*
X32361904Y-193480952D01*
X32314285Y-193433333D01*
X32219047Y-193385714D01*
X32076190Y-193385714D01*
X31980952Y-193433333D01*
X31933333Y-193480952D01*
X31885714Y-193576190D01*
X31885714Y-193861904D01*
X31933333Y-193957142D01*
X31980952Y-194004761D01*
X32076190Y-194052380D01*
X32219047Y-194052380D01*
X31028571Y-194004761D02*
X31123809Y-194052380D01*
X31314285Y-194052380D01*
X31409523Y-194004761D01*
X31457142Y-193957142D01*
X31504761Y-193861904D01*
X31504761Y-193576190D01*
X31457142Y-193480952D01*
X31409523Y-193433333D01*
X31314285Y-193385714D01*
X31123809Y-193385714D01*
X31028571Y-193433333D01*
X30600000Y-194052380D02*
X30600000Y-193052380D01*
X30504761Y-193671428D02*
X30219047Y-194052380D01*
X30219047Y-193385714D02*
X30600000Y-193766666D01*
X28885714Y-194052380D02*
X28980952Y-194004761D01*
X29028571Y-193957142D01*
X29076190Y-193861904D01*
X29076190Y-193576190D01*
X29028571Y-193480952D01*
X28980952Y-193433333D01*
X28885714Y-193385714D01*
X28742857Y-193385714D01*
X28647619Y-193433333D01*
X28600000Y-193480952D01*
X28552380Y-193576190D01*
X28552380Y-193861904D01*
X28600000Y-193957142D01*
X28647619Y-194004761D01*
X28742857Y-194052380D01*
X28885714Y-194052380D01*
X27695238Y-193385714D02*
X27695238Y-194052380D01*
X28123809Y-193385714D02*
X28123809Y-193909523D01*
X28076190Y-194004761D01*
X27980952Y-194052380D01*
X27838095Y-194052380D01*
X27742857Y-194004761D01*
X27695238Y-193957142D01*
X27361904Y-193385714D02*
X26980952Y-193385714D01*
X27219047Y-193052380D02*
X27219047Y-193909523D01*
X27171428Y-194004761D01*
X27076190Y-194052380D01*
X26980952Y-194052380D01*
X25885714Y-193385714D02*
X25885714Y-194242857D01*
X25933333Y-194338095D01*
X26028571Y-194385714D01*
X26076190Y-194385714D01*
X25885714Y-193052380D02*
X25933333Y-193100000D01*
X25885714Y-193147619D01*
X25838095Y-193100000D01*
X25885714Y-193052380D01*
X25885714Y-193147619D01*
X24980952Y-194052380D02*
X24980952Y-193528571D01*
X25028571Y-193433333D01*
X25123809Y-193385714D01*
X25314285Y-193385714D01*
X25409523Y-193433333D01*
X24980952Y-194004761D02*
X25076190Y-194052380D01*
X25314285Y-194052380D01*
X25409523Y-194004761D01*
X25457142Y-193909523D01*
X25457142Y-193814285D01*
X25409523Y-193719047D01*
X25314285Y-193671428D01*
X25076190Y-193671428D01*
X24980952Y-193623809D01*
X24076190Y-194004761D02*
X24171428Y-194052380D01*
X24361904Y-194052380D01*
X24457142Y-194004761D01*
X24504761Y-193957142D01*
X24552380Y-193861904D01*
X24552380Y-193576190D01*
X24504761Y-193480952D01*
X24457142Y-193433333D01*
X24361904Y-193385714D01*
X24171428Y-193385714D01*
X24076190Y-193433333D01*
X23647619Y-194052380D02*
X23647619Y-193052380D01*
X23552380Y-193671428D02*
X23266666Y-194052380D01*
X23266666Y-193385714D02*
X23647619Y-193766666D01*
X47290476Y-140004761D02*
X47147619Y-140052380D01*
X46909523Y-140052380D01*
X46814285Y-140004761D01*
X46766666Y-139957142D01*
X46719047Y-139861904D01*
X46719047Y-139766666D01*
X46766666Y-139671428D01*
X46814285Y-139623809D01*
X46909523Y-139576190D01*
X47100000Y-139528571D01*
X47195238Y-139480952D01*
X47242857Y-139433333D01*
X47290476Y-139338095D01*
X47290476Y-139242857D01*
X47242857Y-139147619D01*
X47195238Y-139100000D01*
X47100000Y-139052380D01*
X46861904Y-139052380D01*
X46719047Y-139100000D01*
X45480952Y-140052380D02*
X45528571Y-140052380D01*
X45623809Y-140004761D01*
X45766666Y-139861904D01*
X46004761Y-139576190D01*
X46100000Y-139433333D01*
X46147619Y-139290476D01*
X46147619Y-139195238D01*
X46100000Y-139100000D01*
X46004761Y-139052380D01*
X45957142Y-139052380D01*
X45861904Y-139100000D01*
X45814285Y-139195238D01*
X45814285Y-139242857D01*
X45861904Y-139338095D01*
X45909523Y-139385714D01*
X46195238Y-139576190D01*
X46242857Y-139623809D01*
X46290476Y-139719047D01*
X46290476Y-139861904D01*
X46242857Y-139957142D01*
X46195238Y-140004761D01*
X46100000Y-140052380D01*
X45957142Y-140052380D01*
X45861904Y-140004761D01*
X45814285Y-139957142D01*
X45671428Y-139766666D01*
X45623809Y-139623809D01*
X45623809Y-139528571D01*
X45052380Y-140052380D02*
X45052380Y-139052380D01*
X45052380Y-139528571D02*
X44480952Y-139528571D01*
X44480952Y-140052380D02*
X44480952Y-139052380D01*
X43290476Y-139004761D02*
X44147619Y-140290476D01*
X43100000Y-139052380D02*
X42528571Y-139052380D01*
X42814285Y-140052380D02*
X42814285Y-139052380D01*
X41385714Y-140052380D02*
X41433333Y-140052380D01*
X41528571Y-140004761D01*
X41671428Y-139861904D01*
X41909523Y-139576190D01*
X42004761Y-139433333D01*
X42052380Y-139290476D01*
X42052380Y-139195238D01*
X42004761Y-139100000D01*
X41909523Y-139052380D01*
X41861904Y-139052380D01*
X41766666Y-139100000D01*
X41719047Y-139195238D01*
X41719047Y-139242857D01*
X41766666Y-139338095D01*
X41814285Y-139385714D01*
X42100000Y-139576190D01*
X42147619Y-139623809D01*
X42195238Y-139719047D01*
X42195238Y-139861904D01*
X42147619Y-139957142D01*
X42100000Y-140004761D01*
X42004761Y-140052380D01*
X41861904Y-140052380D01*
X41766666Y-140004761D01*
X41719047Y-139957142D01*
X41576190Y-139766666D01*
X41528571Y-139623809D01*
X41528571Y-139528571D01*
X40957142Y-140052380D02*
X40957142Y-139052380D01*
X40957142Y-139528571D02*
X40385714Y-139528571D01*
X40385714Y-140052380D02*
X40385714Y-139052380D01*
X39195238Y-140004761D02*
X39100000Y-140052380D01*
X38909523Y-140052380D01*
X38814285Y-140004761D01*
X38766666Y-139909523D01*
X38766666Y-139861904D01*
X38814285Y-139766666D01*
X38909523Y-139719047D01*
X39052380Y-139719047D01*
X39147619Y-139671428D01*
X39195238Y-139576190D01*
X39195238Y-139528571D01*
X39147619Y-139433333D01*
X39052380Y-139385714D01*
X38909523Y-139385714D01*
X38814285Y-139433333D01*
X38433333Y-139385714D02*
X38242857Y-140052380D01*
X38052380Y-139576190D01*
X37861904Y-140052380D01*
X37671428Y-139385714D01*
X37290476Y-140052380D02*
X37290476Y-139385714D01*
X37290476Y-139052380D02*
X37338095Y-139100000D01*
X37290476Y-139147619D01*
X37242857Y-139100000D01*
X37290476Y-139052380D01*
X37290476Y-139147619D01*
X36957142Y-139385714D02*
X36576190Y-139385714D01*
X36814285Y-139052380D02*
X36814285Y-139909523D01*
X36766666Y-140004761D01*
X36671428Y-140052380D01*
X36576190Y-140052380D01*
X35814285Y-140004761D02*
X35909523Y-140052380D01*
X36100000Y-140052380D01*
X36195238Y-140004761D01*
X36242857Y-139957142D01*
X36290476Y-139861904D01*
X36290476Y-139576190D01*
X36242857Y-139480952D01*
X36195238Y-139433333D01*
X36100000Y-139385714D01*
X35909523Y-139385714D01*
X35814285Y-139433333D01*
X35385714Y-140052380D02*
X35385714Y-139052380D01*
X34957142Y-140052380D02*
X34957142Y-139528571D01*
X35004761Y-139433333D01*
X35100000Y-139385714D01*
X35242857Y-139385714D01*
X35338095Y-139433333D01*
X35385714Y-139480952D01*
X41742857Y-182052380D02*
X42219047Y-182052380D01*
X42219047Y-181052380D01*
X41409523Y-181528571D02*
X41076190Y-181528571D01*
X40933333Y-182052380D02*
X41409523Y-182052380D01*
X41409523Y-181052380D01*
X40933333Y-181052380D01*
X40504761Y-182052380D02*
X40504761Y-181052380D01*
X40266666Y-181052380D01*
X40123809Y-181100000D01*
X40028571Y-181195238D01*
X39980952Y-181290476D01*
X39933333Y-181480952D01*
X39933333Y-181623809D01*
X39980952Y-181814285D01*
X40028571Y-181909523D01*
X40123809Y-182004761D01*
X40266666Y-182052380D01*
X40504761Y-182052380D01*
X52100000Y-196442380D02*
X52100000Y-195442380D01*
X51719047Y-195442380D01*
X51623809Y-195490000D01*
X51576190Y-195537619D01*
X51528571Y-195632857D01*
X51528571Y-195775714D01*
X51576190Y-195870952D01*
X51623809Y-195918571D01*
X51719047Y-195966190D01*
X52100000Y-195966190D01*
X50671428Y-196442380D02*
X50671428Y-195918571D01*
X50719047Y-195823333D01*
X50814285Y-195775714D01*
X51004761Y-195775714D01*
X51100000Y-195823333D01*
X50671428Y-196394761D02*
X50766666Y-196442380D01*
X51004761Y-196442380D01*
X51100000Y-196394761D01*
X51147619Y-196299523D01*
X51147619Y-196204285D01*
X51100000Y-196109047D01*
X51004761Y-196061428D01*
X50766666Y-196061428D01*
X50671428Y-196013809D01*
X50195238Y-195775714D02*
X50195238Y-196442380D01*
X50195238Y-195870952D02*
X50147619Y-195823333D01*
X50052380Y-195775714D01*
X49909523Y-195775714D01*
X49814285Y-195823333D01*
X49766666Y-195918571D01*
X49766666Y-196442380D01*
X48909523Y-196394761D02*
X49004761Y-196442380D01*
X49195238Y-196442380D01*
X49290476Y-196394761D01*
X49338095Y-196299523D01*
X49338095Y-195918571D01*
X49290476Y-195823333D01*
X49195238Y-195775714D01*
X49004761Y-195775714D01*
X48909523Y-195823333D01*
X48861904Y-195918571D01*
X48861904Y-196013809D01*
X49338095Y-196109047D01*
X48290476Y-196442380D02*
X48385714Y-196394761D01*
X48433333Y-196299523D01*
X48433333Y-195442380D01*
X46719047Y-196442380D02*
X46719047Y-195442380D01*
X46719047Y-196394761D02*
X46814285Y-196442380D01*
X47004761Y-196442380D01*
X47100000Y-196394761D01*
X47147619Y-196347142D01*
X47195238Y-196251904D01*
X47195238Y-195966190D01*
X47147619Y-195870952D01*
X47100000Y-195823333D01*
X47004761Y-195775714D01*
X46814285Y-195775714D01*
X46719047Y-195823333D01*
X45861904Y-196394761D02*
X45957142Y-196442380D01*
X46147619Y-196442380D01*
X46242857Y-196394761D01*
X46290476Y-196299523D01*
X46290476Y-195918571D01*
X46242857Y-195823333D01*
X46147619Y-195775714D01*
X45957142Y-195775714D01*
X45861904Y-195823333D01*
X45814285Y-195918571D01*
X45814285Y-196013809D01*
X46290476Y-196109047D01*
X45433333Y-196394761D02*
X45338095Y-196442380D01*
X45147619Y-196442380D01*
X45052380Y-196394761D01*
X45004761Y-196299523D01*
X45004761Y-196251904D01*
X45052380Y-196156666D01*
X45147619Y-196109047D01*
X45290476Y-196109047D01*
X45385714Y-196061428D01*
X45433333Y-195966190D01*
X45433333Y-195918571D01*
X45385714Y-195823333D01*
X45290476Y-195775714D01*
X45147619Y-195775714D01*
X45052380Y-195823333D01*
X44576190Y-196442380D02*
X44576190Y-195775714D01*
X44576190Y-195442380D02*
X44623809Y-195490000D01*
X44576190Y-195537619D01*
X44528571Y-195490000D01*
X44576190Y-195442380D01*
X44576190Y-195537619D01*
X43671428Y-195775714D02*
X43671428Y-196585238D01*
X43719047Y-196680476D01*
X43766666Y-196728095D01*
X43861904Y-196775714D01*
X44004761Y-196775714D01*
X44100000Y-196728095D01*
X43671428Y-196394761D02*
X43766666Y-196442380D01*
X43957142Y-196442380D01*
X44052380Y-196394761D01*
X44100000Y-196347142D01*
X44147619Y-196251904D01*
X44147619Y-195966190D01*
X44100000Y-195870952D01*
X44052380Y-195823333D01*
X43957142Y-195775714D01*
X43766666Y-195775714D01*
X43671428Y-195823333D01*
X43195238Y-195775714D02*
X43195238Y-196442380D01*
X43195238Y-195870952D02*
X43147619Y-195823333D01*
X43052380Y-195775714D01*
X42909523Y-195775714D01*
X42814285Y-195823333D01*
X42766666Y-195918571D01*
X42766666Y-196442380D01*
X41528571Y-196442380D02*
X41528571Y-195442380D01*
X41528571Y-195823333D02*
X41433333Y-195775714D01*
X41242857Y-195775714D01*
X41147619Y-195823333D01*
X41100000Y-195870952D01*
X41052380Y-195966190D01*
X41052380Y-196251904D01*
X41100000Y-196347142D01*
X41147619Y-196394761D01*
X41242857Y-196442380D01*
X41433333Y-196442380D01*
X41528571Y-196394761D01*
X40719047Y-195775714D02*
X40480952Y-196442380D01*
X40242857Y-195775714D02*
X40480952Y-196442380D01*
X40576190Y-196680476D01*
X40623809Y-196728095D01*
X40719047Y-196775714D01*
X38528571Y-196442380D02*
X38861904Y-195966190D01*
X39100000Y-196442380D02*
X39100000Y-195442380D01*
X38719047Y-195442380D01*
X38623809Y-195490000D01*
X38576190Y-195537619D01*
X38528571Y-195632857D01*
X38528571Y-195775714D01*
X38576190Y-195870952D01*
X38623809Y-195918571D01*
X38719047Y-195966190D01*
X39100000Y-195966190D01*
X38100000Y-196442380D02*
X38100000Y-195775714D01*
X38100000Y-195442380D02*
X38147619Y-195490000D01*
X38100000Y-195537619D01*
X38052380Y-195490000D01*
X38100000Y-195442380D01*
X38100000Y-195537619D01*
X37195238Y-196394761D02*
X37290476Y-196442380D01*
X37480952Y-196442380D01*
X37576190Y-196394761D01*
X37623809Y-196347142D01*
X37671428Y-196251904D01*
X37671428Y-195966190D01*
X37623809Y-195870952D01*
X37576190Y-195823333D01*
X37480952Y-195775714D01*
X37290476Y-195775714D01*
X37195238Y-195823333D01*
X36766666Y-196442380D02*
X36766666Y-195442380D01*
X36338095Y-196442380D02*
X36338095Y-195918571D01*
X36385714Y-195823333D01*
X36480952Y-195775714D01*
X36623809Y-195775714D01*
X36719047Y-195823333D01*
X36766666Y-195870952D01*
X35100000Y-196442380D02*
X35100000Y-195442380D01*
X35100000Y-195918571D02*
X34528571Y-195918571D01*
X34528571Y-196442380D02*
X34528571Y-195442380D01*
X33909523Y-196442380D02*
X34004761Y-196394761D01*
X34052380Y-196347142D01*
X34100000Y-196251904D01*
X34100000Y-195966190D01*
X34052380Y-195870952D01*
X34004761Y-195823333D01*
X33909523Y-195775714D01*
X33766666Y-195775714D01*
X33671428Y-195823333D01*
X33623809Y-195870952D01*
X33576190Y-195966190D01*
X33576190Y-196251904D01*
X33623809Y-196347142D01*
X33671428Y-196394761D01*
X33766666Y-196442380D01*
X33909523Y-196442380D01*
X33004761Y-196442380D02*
X33100000Y-196394761D01*
X33147619Y-196299523D01*
X33147619Y-195442380D01*
X32623809Y-196442380D02*
X32623809Y-195775714D01*
X32623809Y-195870952D02*
X32576190Y-195823333D01*
X32480952Y-195775714D01*
X32338095Y-195775714D01*
X32242857Y-195823333D01*
X32195238Y-195918571D01*
X32195238Y-196442380D01*
X32195238Y-195918571D02*
X32147619Y-195823333D01*
X32052380Y-195775714D01*
X31909523Y-195775714D01*
X31814285Y-195823333D01*
X31766666Y-195918571D01*
X31766666Y-196442380D01*
X30909523Y-196394761D02*
X31004761Y-196442380D01*
X31195238Y-196442380D01*
X31290476Y-196394761D01*
X31338095Y-196299523D01*
X31338095Y-195918571D01*
X31290476Y-195823333D01*
X31195238Y-195775714D01*
X31004761Y-195775714D01*
X30909523Y-195823333D01*
X30861904Y-195918571D01*
X30861904Y-196013809D01*
X31338095Y-196109047D01*
X30480952Y-196394761D02*
X30385714Y-196442380D01*
X30195238Y-196442380D01*
X30100000Y-196394761D01*
X30052380Y-196299523D01*
X30052380Y-196251904D01*
X30100000Y-196156666D01*
X30195238Y-196109047D01*
X30338095Y-196109047D01*
X30433333Y-196061428D01*
X30480952Y-195966190D01*
X30480952Y-195918571D01*
X30433333Y-195823333D01*
X30338095Y-195775714D01*
X30195238Y-195775714D01*
X30100000Y-195823333D01*
X47338095Y-197957142D02*
X47385714Y-198004761D01*
X47528571Y-198052380D01*
X47623809Y-198052380D01*
X47766666Y-198004761D01*
X47861904Y-197909523D01*
X47909523Y-197814285D01*
X47957142Y-197623809D01*
X47957142Y-197480952D01*
X47909523Y-197290476D01*
X47861904Y-197195238D01*
X47766666Y-197100000D01*
X47623809Y-197052380D01*
X47528571Y-197052380D01*
X47385714Y-197100000D01*
X47338095Y-197147619D01*
X46338095Y-197957142D02*
X46385714Y-198004761D01*
X46528571Y-198052380D01*
X46623809Y-198052380D01*
X46766666Y-198004761D01*
X46861904Y-197909523D01*
X46909523Y-197814285D01*
X46957142Y-197623809D01*
X46957142Y-197480952D01*
X46909523Y-197290476D01*
X46861904Y-197195238D01*
X46766666Y-197100000D01*
X46623809Y-197052380D01*
X46528571Y-197052380D01*
X46385714Y-197100000D01*
X46338095Y-197147619D01*
X45719047Y-197052380D02*
X45623809Y-197052380D01*
X45528571Y-197100000D01*
X45480952Y-197147619D01*
X45433333Y-197242857D01*
X45385714Y-197433333D01*
X45385714Y-197671428D01*
X45433333Y-197861904D01*
X45480952Y-197957142D01*
X45528571Y-198004761D01*
X45623809Y-198052380D01*
X45719047Y-198052380D01*
X45814285Y-198004761D01*
X45861904Y-197957142D01*
X45909523Y-197861904D01*
X45957142Y-197671428D01*
X45957142Y-197433333D01*
X45909523Y-197242857D01*
X45861904Y-197147619D01*
X45814285Y-197100000D01*
X45719047Y-197052380D01*
X43671428Y-198052380D02*
X44242857Y-198052380D01*
X43957142Y-198052380D02*
X43957142Y-197052380D01*
X44052380Y-197195238D01*
X44147619Y-197290476D01*
X44242857Y-197338095D01*
X43242857Y-197957142D02*
X43195238Y-198004761D01*
X43242857Y-198052380D01*
X43290476Y-198004761D01*
X43242857Y-197957142D01*
X43242857Y-198052380D01*
X42576190Y-197052380D02*
X42480952Y-197052380D01*
X42385714Y-197100000D01*
X42338095Y-197147619D01*
X42290476Y-197242857D01*
X42242857Y-197433333D01*
X42242857Y-197671428D01*
X42290476Y-197861904D01*
X42338095Y-197957142D01*
X42385714Y-198004761D01*
X42480952Y-198052380D01*
X42576190Y-198052380D01*
X42671428Y-198004761D01*
X42719047Y-197957142D01*
X42766666Y-197861904D01*
X42814285Y-197671428D01*
X42814285Y-197433333D01*
X42766666Y-197242857D01*
X42719047Y-197147619D01*
X42671428Y-197100000D01*
X42576190Y-197052380D01*
X41052380Y-198052380D02*
X41052380Y-197052380D01*
X40719047Y-197766666D01*
X40385714Y-197052380D01*
X40385714Y-198052380D01*
X39480952Y-198052380D02*
X39480952Y-197528571D01*
X39528571Y-197433333D01*
X39623809Y-197385714D01*
X39814285Y-197385714D01*
X39909523Y-197433333D01*
X39480952Y-198004761D02*
X39576190Y-198052380D01*
X39814285Y-198052380D01*
X39909523Y-198004761D01*
X39957142Y-197909523D01*
X39957142Y-197814285D01*
X39909523Y-197719047D01*
X39814285Y-197671428D01*
X39576190Y-197671428D01*
X39480952Y-197623809D01*
X39004761Y-198052380D02*
X39004761Y-197385714D01*
X39004761Y-197576190D02*
X38957142Y-197480952D01*
X38909523Y-197433333D01*
X38814285Y-197385714D01*
X38719047Y-197385714D01*
X37671428Y-197147619D02*
X37623809Y-197100000D01*
X37528571Y-197052380D01*
X37290476Y-197052380D01*
X37195238Y-197100000D01*
X37147619Y-197147619D01*
X37100000Y-197242857D01*
X37100000Y-197338095D01*
X37147619Y-197480952D01*
X37719047Y-198052380D01*
X37100000Y-198052380D01*
X36480952Y-197052380D02*
X36385714Y-197052380D01*
X36290476Y-197100000D01*
X36242857Y-197147619D01*
X36195238Y-197242857D01*
X36147619Y-197433333D01*
X36147619Y-197671428D01*
X36195238Y-197861904D01*
X36242857Y-197957142D01*
X36290476Y-198004761D01*
X36385714Y-198052380D01*
X36480952Y-198052380D01*
X36576190Y-198004761D01*
X36623809Y-197957142D01*
X36671428Y-197861904D01*
X36719047Y-197671428D01*
X36719047Y-197433333D01*
X36671428Y-197242857D01*
X36623809Y-197147619D01*
X36576190Y-197100000D01*
X36480952Y-197052380D01*
X35766666Y-197147619D02*
X35719047Y-197100000D01*
X35623809Y-197052380D01*
X35385714Y-197052380D01*
X35290476Y-197100000D01*
X35242857Y-197147619D01*
X35195238Y-197242857D01*
X35195238Y-197338095D01*
X35242857Y-197480952D01*
X35814285Y-198052380D01*
X35195238Y-198052380D01*
X34814285Y-197147619D02*
X34766666Y-197100000D01*
X34671428Y-197052380D01*
X34433333Y-197052380D01*
X34338095Y-197100000D01*
X34290476Y-197147619D01*
X34242857Y-197242857D01*
X34242857Y-197338095D01*
X34290476Y-197480952D01*
X34861904Y-198052380D01*
X34242857Y-198052380D01*
X45719047Y-198662380D02*
X45719047Y-199376666D01*
X45766666Y-199519523D01*
X45861904Y-199614761D01*
X46004761Y-199662380D01*
X46100000Y-199662380D01*
X44766666Y-199662380D02*
X45242857Y-199662380D01*
X45242857Y-198662380D01*
X43861904Y-199567142D02*
X43909523Y-199614761D01*
X44052380Y-199662380D01*
X44147619Y-199662380D01*
X44290476Y-199614761D01*
X44385714Y-199519523D01*
X44433333Y-199424285D01*
X44480952Y-199233809D01*
X44480952Y-199090952D01*
X44433333Y-198900476D01*
X44385714Y-198805238D01*
X44290476Y-198710000D01*
X44147619Y-198662380D01*
X44052380Y-198662380D01*
X43909523Y-198710000D01*
X43861904Y-198757619D01*
X43147619Y-198662380D02*
X43147619Y-199376666D01*
X43195238Y-199519523D01*
X43290476Y-199614761D01*
X43433333Y-199662380D01*
X43528571Y-199662380D01*
X42195238Y-199662380D02*
X42671428Y-199662380D01*
X42671428Y-198662380D01*
X41290476Y-199567142D02*
X41338095Y-199614761D01*
X41480952Y-199662380D01*
X41576190Y-199662380D01*
X41719047Y-199614761D01*
X41814285Y-199519523D01*
X41861904Y-199424285D01*
X41909523Y-199233809D01*
X41909523Y-199090952D01*
X41861904Y-198900476D01*
X41814285Y-198805238D01*
X41719047Y-198710000D01*
X41576190Y-198662380D01*
X41480952Y-198662380D01*
X41338095Y-198710000D01*
X41290476Y-198757619D01*
X40576190Y-198662380D02*
X40576190Y-199376666D01*
X40623809Y-199519523D01*
X40719047Y-199614761D01*
X40861904Y-199662380D01*
X40957142Y-199662380D01*
X39623809Y-199662380D02*
X40100000Y-199662380D01*
X40100000Y-198662380D01*
X38719047Y-199567142D02*
X38766666Y-199614761D01*
X38909523Y-199662380D01*
X39004761Y-199662380D01*
X39147619Y-199614761D01*
X39242857Y-199519523D01*
X39290476Y-199424285D01*
X39338095Y-199233809D01*
X39338095Y-199090952D01*
X39290476Y-198900476D01*
X39242857Y-198805238D01*
X39147619Y-198710000D01*
X39004761Y-198662380D01*
X38909523Y-198662380D01*
X38766666Y-198710000D01*
X38719047Y-198757619D01*
X38004761Y-198662380D02*
X38004761Y-199376666D01*
X38052380Y-199519523D01*
X38147619Y-199614761D01*
X38290476Y-199662380D01*
X38385714Y-199662380D01*
X37052380Y-199662380D02*
X37528571Y-199662380D01*
X37528571Y-198662380D01*
X36147619Y-199567142D02*
X36195238Y-199614761D01*
X36338095Y-199662380D01*
X36433333Y-199662380D01*
X36576190Y-199614761D01*
X36671428Y-199519523D01*
X36719047Y-199424285D01*
X36766666Y-199233809D01*
X36766666Y-199090952D01*
X36719047Y-198900476D01*
X36671428Y-198805238D01*
X36576190Y-198710000D01*
X36433333Y-198662380D01*
X36338095Y-198662380D01*
X36195238Y-198710000D01*
X36147619Y-198757619D01*
X58719047Y-169004761D02*
X58576190Y-169052380D01*
X58338095Y-169052380D01*
X58242857Y-169004761D01*
X58195238Y-168957142D01*
X58147619Y-168861904D01*
X58147619Y-168766666D01*
X58195238Y-168671428D01*
X58242857Y-168623809D01*
X58338095Y-168576190D01*
X58528571Y-168528571D01*
X58623809Y-168480952D01*
X58671428Y-168433333D01*
X58719047Y-168338095D01*
X58719047Y-168242857D01*
X58671428Y-168147619D01*
X58623809Y-168100000D01*
X58528571Y-168052380D01*
X58290476Y-168052380D01*
X58147619Y-168100000D01*
X57719047Y-169052380D02*
X57719047Y-168385714D01*
X57719047Y-168052380D02*
X57766666Y-168100000D01*
X57719047Y-168147619D01*
X57671428Y-168100000D01*
X57719047Y-168052380D01*
X57719047Y-168147619D01*
X56814285Y-168385714D02*
X56814285Y-169195238D01*
X56861904Y-169290476D01*
X56909523Y-169338095D01*
X57004761Y-169385714D01*
X57147619Y-169385714D01*
X57242857Y-169338095D01*
X56814285Y-169004761D02*
X56909523Y-169052380D01*
X57100000Y-169052380D01*
X57195238Y-169004761D01*
X57242857Y-168957142D01*
X57290476Y-168861904D01*
X57290476Y-168576190D01*
X57242857Y-168480952D01*
X57195238Y-168433333D01*
X57100000Y-168385714D01*
X56909523Y-168385714D01*
X56814285Y-168433333D01*
X56338095Y-168385714D02*
X56338095Y-169052380D01*
X56338095Y-168480952D02*
X56290476Y-168433333D01*
X56195238Y-168385714D01*
X56052380Y-168385714D01*
X55957142Y-168433333D01*
X55909523Y-168528571D01*
X55909523Y-169052380D01*
X55004761Y-169052380D02*
X55004761Y-168528571D01*
X55052380Y-168433333D01*
X55147619Y-168385714D01*
X55338095Y-168385714D01*
X55433333Y-168433333D01*
X55004761Y-169004761D02*
X55100000Y-169052380D01*
X55338095Y-169052380D01*
X55433333Y-169004761D01*
X55480952Y-168909523D01*
X55480952Y-168814285D01*
X55433333Y-168719047D01*
X55338095Y-168671428D01*
X55100000Y-168671428D01*
X55004761Y-168623809D01*
X54385714Y-169052380D02*
X54480952Y-169004761D01*
X54528571Y-168909523D01*
X54528571Y-168052380D01*
X53242857Y-169052380D02*
X53242857Y-168385714D01*
X53242857Y-168052380D02*
X53290476Y-168100000D01*
X53242857Y-168147619D01*
X53195238Y-168100000D01*
X53242857Y-168052380D01*
X53242857Y-168147619D01*
X52766666Y-168385714D02*
X52766666Y-169052380D01*
X52766666Y-168480952D02*
X52719047Y-168433333D01*
X52623809Y-168385714D01*
X52480952Y-168385714D01*
X52385714Y-168433333D01*
X52338095Y-168528571D01*
X52338095Y-169052380D01*
X51100000Y-168385714D02*
X51100000Y-169242857D01*
X51147619Y-169338095D01*
X51242857Y-169385714D01*
X51290476Y-169385714D01*
X51100000Y-168052380D02*
X51147619Y-168100000D01*
X51100000Y-168147619D01*
X51052380Y-168100000D01*
X51100000Y-168052380D01*
X51100000Y-168147619D01*
X50195238Y-169052380D02*
X50195238Y-168528571D01*
X50242857Y-168433333D01*
X50338095Y-168385714D01*
X50528571Y-168385714D01*
X50623809Y-168433333D01*
X50195238Y-169004761D02*
X50290476Y-169052380D01*
X50528571Y-169052380D01*
X50623809Y-169004761D01*
X50671428Y-168909523D01*
X50671428Y-168814285D01*
X50623809Y-168719047D01*
X50528571Y-168671428D01*
X50290476Y-168671428D01*
X50195238Y-168623809D01*
X49290476Y-169004761D02*
X49385714Y-169052380D01*
X49576190Y-169052380D01*
X49671428Y-169004761D01*
X49719047Y-168957142D01*
X49766666Y-168861904D01*
X49766666Y-168576190D01*
X49719047Y-168480952D01*
X49671428Y-168433333D01*
X49576190Y-168385714D01*
X49385714Y-168385714D01*
X49290476Y-168433333D01*
X48861904Y-169052380D02*
X48861904Y-168052380D01*
X48766666Y-168671428D02*
X48480952Y-169052380D01*
X48480952Y-168385714D02*
X48861904Y-168766666D01*
X45766666Y-104957142D02*
X45814285Y-105004761D01*
X45957142Y-105052380D01*
X46052380Y-105052380D01*
X46195238Y-105004761D01*
X46290476Y-104909523D01*
X46338095Y-104814285D01*
X46385714Y-104623809D01*
X46385714Y-104480952D01*
X46338095Y-104290476D01*
X46290476Y-104195238D01*
X46195238Y-104100000D01*
X46052380Y-104052380D01*
X45957142Y-104052380D01*
X45814285Y-104100000D01*
X45766666Y-104147619D01*
X45195238Y-105052380D02*
X45290476Y-105004761D01*
X45338095Y-104909523D01*
X45338095Y-104052380D01*
X44671428Y-105052380D02*
X44766666Y-105004761D01*
X44814285Y-104957142D01*
X44861904Y-104861904D01*
X44861904Y-104576190D01*
X44814285Y-104480952D01*
X44766666Y-104433333D01*
X44671428Y-104385714D01*
X44528571Y-104385714D01*
X44433333Y-104433333D01*
X44385714Y-104480952D01*
X44338095Y-104576190D01*
X44338095Y-104861904D01*
X44385714Y-104957142D01*
X44433333Y-105004761D01*
X44528571Y-105052380D01*
X44671428Y-105052380D01*
X43480952Y-105004761D02*
X43576190Y-105052380D01*
X43766666Y-105052380D01*
X43861904Y-105004761D01*
X43909523Y-104957142D01*
X43957142Y-104861904D01*
X43957142Y-104576190D01*
X43909523Y-104480952D01*
X43861904Y-104433333D01*
X43766666Y-104385714D01*
X43576190Y-104385714D01*
X43480952Y-104433333D01*
X43052380Y-105052380D02*
X43052380Y-104052380D01*
X42957142Y-104671428D02*
X42671428Y-105052380D01*
X42671428Y-104385714D02*
X43052380Y-104766666D01*
X41480952Y-105052380D02*
X41480952Y-104385714D01*
X41480952Y-104576190D02*
X41433333Y-104480952D01*
X41385714Y-104433333D01*
X41290476Y-104385714D01*
X41195238Y-104385714D01*
X40433333Y-105052380D02*
X40433333Y-104528571D01*
X40480952Y-104433333D01*
X40576190Y-104385714D01*
X40766666Y-104385714D01*
X40861904Y-104433333D01*
X40433333Y-105004761D02*
X40528571Y-105052380D01*
X40766666Y-105052380D01*
X40861904Y-105004761D01*
X40909523Y-104909523D01*
X40909523Y-104814285D01*
X40861904Y-104719047D01*
X40766666Y-104671428D01*
X40528571Y-104671428D01*
X40433333Y-104623809D01*
X40100000Y-104385714D02*
X39719047Y-104385714D01*
X39957142Y-104052380D02*
X39957142Y-104909523D01*
X39909523Y-105004761D01*
X39814285Y-105052380D01*
X39719047Y-105052380D01*
X39004761Y-105004761D02*
X39100000Y-105052380D01*
X39290476Y-105052380D01*
X39385714Y-105004761D01*
X39433333Y-104909523D01*
X39433333Y-104528571D01*
X39385714Y-104433333D01*
X39290476Y-104385714D01*
X39100000Y-104385714D01*
X39004761Y-104433333D01*
X38957142Y-104528571D01*
X38957142Y-104623809D01*
X39433333Y-104719047D01*
X37766666Y-104385714D02*
X37766666Y-105385714D01*
X37766666Y-104433333D02*
X37671428Y-104385714D01*
X37480952Y-104385714D01*
X37385714Y-104433333D01*
X37338095Y-104480952D01*
X37290476Y-104576190D01*
X37290476Y-104861904D01*
X37338095Y-104957142D01*
X37385714Y-105004761D01*
X37480952Y-105052380D01*
X37671428Y-105052380D01*
X37766666Y-105004761D01*
X36719047Y-105052380D02*
X36814285Y-105004761D01*
X36861904Y-104957142D01*
X36909523Y-104861904D01*
X36909523Y-104576190D01*
X36861904Y-104480952D01*
X36814285Y-104433333D01*
X36719047Y-104385714D01*
X36576190Y-104385714D01*
X36480952Y-104433333D01*
X36433333Y-104480952D01*
X36385714Y-104576190D01*
X36385714Y-104861904D01*
X36433333Y-104957142D01*
X36480952Y-105004761D01*
X36576190Y-105052380D01*
X36719047Y-105052380D01*
X36100000Y-104385714D02*
X35719047Y-104385714D01*
X35957142Y-104052380D02*
X35957142Y-104909523D01*
X35909523Y-105004761D01*
X35814285Y-105052380D01*
X35719047Y-105052380D01*
X59219047Y-194004761D02*
X59076190Y-194052380D01*
X58838095Y-194052380D01*
X58742857Y-194004761D01*
X58695238Y-193957142D01*
X58647619Y-193861904D01*
X58647619Y-193766666D01*
X58695238Y-193671428D01*
X58742857Y-193623809D01*
X58838095Y-193576190D01*
X59028571Y-193528571D01*
X59123809Y-193480952D01*
X59171428Y-193433333D01*
X59219047Y-193338095D01*
X59219047Y-193242857D01*
X59171428Y-193147619D01*
X59123809Y-193100000D01*
X59028571Y-193052380D01*
X58790476Y-193052380D01*
X58647619Y-193100000D01*
X58219047Y-194052380D02*
X58219047Y-193385714D01*
X58219047Y-193052380D02*
X58266666Y-193100000D01*
X58219047Y-193147619D01*
X58171428Y-193100000D01*
X58219047Y-193052380D01*
X58219047Y-193147619D01*
X57314285Y-193385714D02*
X57314285Y-194195238D01*
X57361904Y-194290476D01*
X57409523Y-194338095D01*
X57504761Y-194385714D01*
X57647619Y-194385714D01*
X57742857Y-194338095D01*
X57314285Y-194004761D02*
X57409523Y-194052380D01*
X57600000Y-194052380D01*
X57695238Y-194004761D01*
X57742857Y-193957142D01*
X57790476Y-193861904D01*
X57790476Y-193576190D01*
X57742857Y-193480952D01*
X57695238Y-193433333D01*
X57600000Y-193385714D01*
X57409523Y-193385714D01*
X57314285Y-193433333D01*
X56838095Y-193385714D02*
X56838095Y-194052380D01*
X56838095Y-193480952D02*
X56790476Y-193433333D01*
X56695238Y-193385714D01*
X56552380Y-193385714D01*
X56457142Y-193433333D01*
X56409523Y-193528571D01*
X56409523Y-194052380D01*
X55504761Y-194052380D02*
X55504761Y-193528571D01*
X55552380Y-193433333D01*
X55647619Y-193385714D01*
X55838095Y-193385714D01*
X55933333Y-193433333D01*
X55504761Y-194004761D02*
X55600000Y-194052380D01*
X55838095Y-194052380D01*
X55933333Y-194004761D01*
X55980952Y-193909523D01*
X55980952Y-193814285D01*
X55933333Y-193719047D01*
X55838095Y-193671428D01*
X55600000Y-193671428D01*
X55504761Y-193623809D01*
X54885714Y-194052380D02*
X54980952Y-194004761D01*
X55028571Y-193909523D01*
X55028571Y-193052380D01*
X53600000Y-194052380D02*
X53695238Y-194004761D01*
X53742857Y-193957142D01*
X53790476Y-193861904D01*
X53790476Y-193576190D01*
X53742857Y-193480952D01*
X53695238Y-193433333D01*
X53600000Y-193385714D01*
X53457142Y-193385714D01*
X53361904Y-193433333D01*
X53314285Y-193480952D01*
X53266666Y-193576190D01*
X53266666Y-193861904D01*
X53314285Y-193957142D01*
X53361904Y-194004761D01*
X53457142Y-194052380D01*
X53600000Y-194052380D01*
X52409523Y-193385714D02*
X52409523Y-194052380D01*
X52838095Y-193385714D02*
X52838095Y-193909523D01*
X52790476Y-194004761D01*
X52695238Y-194052380D01*
X52552380Y-194052380D01*
X52457142Y-194004761D01*
X52409523Y-193957142D01*
X52076190Y-193385714D02*
X51695238Y-193385714D01*
X51933333Y-193052380D02*
X51933333Y-193909523D01*
X51885714Y-194004761D01*
X51790476Y-194052380D01*
X51695238Y-194052380D01*
X50600000Y-193385714D02*
X50600000Y-194242857D01*
X50647619Y-194338095D01*
X50742857Y-194385714D01*
X50790476Y-194385714D01*
X50600000Y-193052380D02*
X50647619Y-193100000D01*
X50600000Y-193147619D01*
X50552380Y-193100000D01*
X50600000Y-193052380D01*
X50600000Y-193147619D01*
X49695238Y-194052380D02*
X49695238Y-193528571D01*
X49742857Y-193433333D01*
X49838095Y-193385714D01*
X50028571Y-193385714D01*
X50123809Y-193433333D01*
X49695238Y-194004761D02*
X49790476Y-194052380D01*
X50028571Y-194052380D01*
X50123809Y-194004761D01*
X50171428Y-193909523D01*
X50171428Y-193814285D01*
X50123809Y-193719047D01*
X50028571Y-193671428D01*
X49790476Y-193671428D01*
X49695238Y-193623809D01*
X48790476Y-194004761D02*
X48885714Y-194052380D01*
X49076190Y-194052380D01*
X49171428Y-194004761D01*
X49219047Y-193957142D01*
X49266666Y-193861904D01*
X49266666Y-193576190D01*
X49219047Y-193480952D01*
X49171428Y-193433333D01*
X49076190Y-193385714D01*
X48885714Y-193385714D01*
X48790476Y-193433333D01*
X48361904Y-194052380D02*
X48361904Y-193052380D01*
X48266666Y-193671428D02*
X47980952Y-194052380D01*
X47980952Y-193385714D02*
X48361904Y-193766666D01*
G04 #@! TO.C,GRAF3*
G36*
X29214239Y-197890302D02*
G01*
X29151194Y-198114250D01*
X29052401Y-198326943D01*
X28918861Y-198525473D01*
X28751575Y-198706935D01*
X28750519Y-198707922D01*
X28572932Y-198849928D01*
X28374960Y-198965903D01*
X28165147Y-199051615D01*
X27952036Y-199102835D01*
X27892831Y-199109650D01*
X27761804Y-199114540D01*
X27617661Y-199109844D01*
X27476333Y-199096312D01*
X27353751Y-199074692D01*
X27211382Y-199032904D01*
X27000450Y-198939317D01*
X26804617Y-198814128D01*
X26628345Y-198661404D01*
X26476092Y-198485212D01*
X26352320Y-198289619D01*
X26261488Y-198078692D01*
X26241101Y-198014672D01*
X26226685Y-197957855D01*
X26217274Y-197899255D01*
X26211786Y-197829550D01*
X26209141Y-197739418D01*
X26208257Y-197619538D01*
X26208456Y-197600000D01*
X26464724Y-197600000D01*
X26470085Y-197760468D01*
X26493839Y-197920154D01*
X26539983Y-198065157D01*
X26612259Y-198206814D01*
X26714407Y-198356457D01*
X26784202Y-198438415D01*
X26919642Y-198560299D01*
X27076986Y-198667240D01*
X27245852Y-198752534D01*
X27415852Y-198809472D01*
X27458637Y-198818062D01*
X27540787Y-198829448D01*
X27633045Y-198838131D01*
X27723233Y-198843264D01*
X27799174Y-198844004D01*
X27848692Y-198839505D01*
X27871304Y-198834585D01*
X27927822Y-198822939D01*
X27995231Y-198809527D01*
X28011196Y-198805990D01*
X28086608Y-198783320D01*
X28176119Y-198749895D01*
X28263640Y-198711586D01*
X28285539Y-198700816D01*
X28461307Y-198590947D01*
X28618836Y-198450554D01*
X28753427Y-198285299D01*
X28860380Y-198100843D01*
X28934995Y-197902846D01*
X28948612Y-197838052D01*
X28960389Y-197719780D01*
X28962601Y-197586371D01*
X28955631Y-197451170D01*
X28939862Y-197327521D01*
X28915676Y-197228769D01*
X28870203Y-197115098D01*
X28767892Y-196930800D01*
X28639315Y-196765015D01*
X28489038Y-196621826D01*
X28321627Y-196505315D01*
X28141649Y-196419565D01*
X27953669Y-196368657D01*
X27859944Y-196357356D01*
X27717025Y-196352684D01*
X27570736Y-196359903D01*
X27434844Y-196378184D01*
X27323114Y-196406696D01*
X27257005Y-196431773D01*
X27056439Y-196534010D01*
X26880224Y-196666010D01*
X26730477Y-196825634D01*
X26609318Y-197010739D01*
X26518866Y-197219187D01*
X26504547Y-197262980D01*
X26484761Y-197335844D01*
X26472805Y-197407322D01*
X26466764Y-197490885D01*
X26464724Y-197600000D01*
X26208456Y-197600000D01*
X26209665Y-197481287D01*
X26216892Y-197350114D01*
X26231999Y-197239067D01*
X26256951Y-197138132D01*
X26293712Y-197037295D01*
X26344249Y-196926541D01*
X26357089Y-196900844D01*
X26481589Y-196698696D01*
X26633628Y-196521729D01*
X26809636Y-196371823D01*
X27006042Y-196250861D01*
X27219275Y-196160725D01*
X27445762Y-196103295D01*
X27681934Y-196080453D01*
X27924219Y-196094081D01*
X27952752Y-196098104D01*
X28178478Y-196148158D01*
X28383837Y-196229231D01*
X28574249Y-196343935D01*
X28755132Y-196494885D01*
X28784913Y-196523940D01*
X28945439Y-196707891D01*
X29070059Y-196904919D01*
X29160541Y-197118286D01*
X29218648Y-197351252D01*
X29229080Y-197420259D01*
X29237084Y-197586371D01*
X29240535Y-197658003D01*
X29214239Y-197890302D01*
G37*
D11*
X29214239Y-197890302D02*
X29151194Y-198114250D01*
X29052401Y-198326943D01*
X28918861Y-198525473D01*
X28751575Y-198706935D01*
X28750519Y-198707922D01*
X28572932Y-198849928D01*
X28374960Y-198965903D01*
X28165147Y-199051615D01*
X27952036Y-199102835D01*
X27892831Y-199109650D01*
X27761804Y-199114540D01*
X27617661Y-199109844D01*
X27476333Y-199096312D01*
X27353751Y-199074692D01*
X27211382Y-199032904D01*
X27000450Y-198939317D01*
X26804617Y-198814128D01*
X26628345Y-198661404D01*
X26476092Y-198485212D01*
X26352320Y-198289619D01*
X26261488Y-198078692D01*
X26241101Y-198014672D01*
X26226685Y-197957855D01*
X26217274Y-197899255D01*
X26211786Y-197829550D01*
X26209141Y-197739418D01*
X26208257Y-197619538D01*
X26208456Y-197600000D01*
X26464724Y-197600000D01*
X26470085Y-197760468D01*
X26493839Y-197920154D01*
X26539983Y-198065157D01*
X26612259Y-198206814D01*
X26714407Y-198356457D01*
X26784202Y-198438415D01*
X26919642Y-198560299D01*
X27076986Y-198667240D01*
X27245852Y-198752534D01*
X27415852Y-198809472D01*
X27458637Y-198818062D01*
X27540787Y-198829448D01*
X27633045Y-198838131D01*
X27723233Y-198843264D01*
X27799174Y-198844004D01*
X27848692Y-198839505D01*
X27871304Y-198834585D01*
X27927822Y-198822939D01*
X27995231Y-198809527D01*
X28011196Y-198805990D01*
X28086608Y-198783320D01*
X28176119Y-198749895D01*
X28263640Y-198711586D01*
X28285539Y-198700816D01*
X28461307Y-198590947D01*
X28618836Y-198450554D01*
X28753427Y-198285299D01*
X28860380Y-198100843D01*
X28934995Y-197902846D01*
X28948612Y-197838052D01*
X28960389Y-197719780D01*
X28962601Y-197586371D01*
X28955631Y-197451170D01*
X28939862Y-197327521D01*
X28915676Y-197228769D01*
X28870203Y-197115098D01*
X28767892Y-196930800D01*
X28639315Y-196765015D01*
X28489038Y-196621826D01*
X28321627Y-196505315D01*
X28141649Y-196419565D01*
X27953669Y-196368657D01*
X27859944Y-196357356D01*
X27717025Y-196352684D01*
X27570736Y-196359903D01*
X27434844Y-196378184D01*
X27323114Y-196406696D01*
X27257005Y-196431773D01*
X27056439Y-196534010D01*
X26880224Y-196666010D01*
X26730477Y-196825634D01*
X26609318Y-197010739D01*
X26518866Y-197219187D01*
X26504547Y-197262980D01*
X26484761Y-197335844D01*
X26472805Y-197407322D01*
X26466764Y-197490885D01*
X26464724Y-197600000D01*
X26208456Y-197600000D01*
X26209665Y-197481287D01*
X26216892Y-197350114D01*
X26231999Y-197239067D01*
X26256951Y-197138132D01*
X26293712Y-197037295D01*
X26344249Y-196926541D01*
X26357089Y-196900844D01*
X26481589Y-196698696D01*
X26633628Y-196521729D01*
X26809636Y-196371823D01*
X27006042Y-196250861D01*
X27219275Y-196160725D01*
X27445762Y-196103295D01*
X27681934Y-196080453D01*
X27924219Y-196094081D01*
X27952752Y-196098104D01*
X28178478Y-196148158D01*
X28383837Y-196229231D01*
X28574249Y-196343935D01*
X28755132Y-196494885D01*
X28784913Y-196523940D01*
X28945439Y-196707891D01*
X29070059Y-196904919D01*
X29160541Y-197118286D01*
X29218648Y-197351252D01*
X29229080Y-197420259D01*
X29237084Y-197586371D01*
X29240535Y-197658003D01*
X29214239Y-197890302D01*
G36*
X25928098Y-198013730D02*
G01*
X25850979Y-198226239D01*
X25741960Y-198426151D01*
X25601565Y-198609450D01*
X25430318Y-198772122D01*
X25358665Y-198826800D01*
X25148814Y-198953934D01*
X24922036Y-199046757D01*
X24682701Y-199103333D01*
X24629245Y-199109587D01*
X24497718Y-199113928D01*
X24351603Y-199107309D01*
X24206088Y-199090687D01*
X24076363Y-199065024D01*
X23989193Y-199039403D01*
X23783462Y-198952963D01*
X23587535Y-198835367D01*
X23408404Y-198691903D01*
X23253060Y-198527855D01*
X23128497Y-198348509D01*
X23121923Y-198336967D01*
X23030753Y-198136409D01*
X22971660Y-197920000D01*
X22944543Y-197693698D01*
X22946503Y-197598975D01*
X23207932Y-197598975D01*
X23222905Y-197800620D01*
X23271467Y-197998686D01*
X23354299Y-198189023D01*
X23472085Y-198367478D01*
X23511618Y-198414097D01*
X23645288Y-198539843D01*
X23802582Y-198651041D01*
X23972303Y-198740458D01*
X24143253Y-198800863D01*
X24260214Y-198825598D01*
X24479243Y-198842623D01*
X24695157Y-198821992D01*
X24903936Y-198764254D01*
X25101557Y-198669958D01*
X25108876Y-198665561D01*
X25200350Y-198599920D01*
X25300572Y-198512322D01*
X25398995Y-198413314D01*
X25485076Y-198313441D01*
X25548267Y-198223249D01*
X25632679Y-198050690D01*
X25694064Y-197845751D01*
X25719198Y-197634606D01*
X25707517Y-197422433D01*
X25658456Y-197214411D01*
X25633123Y-197147282D01*
X25550390Y-196987160D01*
X25441458Y-196831978D01*
X25313615Y-196690242D01*
X25174147Y-196570458D01*
X25030339Y-196481134D01*
X24974013Y-196454950D01*
X24772769Y-196387319D01*
X24563972Y-196353993D01*
X24353455Y-196354622D01*
X24147052Y-196388856D01*
X23950595Y-196456346D01*
X23769918Y-196556741D01*
X23612983Y-196682385D01*
X23470259Y-196839647D01*
X23357710Y-197014089D01*
X23276017Y-197201558D01*
X23225863Y-197397904D01*
X23207932Y-197598975D01*
X22946503Y-197598975D01*
X22949306Y-197463459D01*
X22985850Y-197235241D01*
X23054077Y-197014999D01*
X23153888Y-196808692D01*
X23220353Y-196710982D01*
X23317359Y-196595134D01*
X23428792Y-196481493D01*
X23544068Y-196380779D01*
X23652602Y-196303708D01*
X23722761Y-196263945D01*
X23934872Y-196172319D01*
X24162551Y-196111587D01*
X24398289Y-196082853D01*
X24634579Y-196087219D01*
X24863914Y-196125788D01*
X24885476Y-196131460D01*
X25065418Y-196197626D01*
X25245551Y-196294696D01*
X25417123Y-196416554D01*
X25571384Y-196557078D01*
X25699584Y-196710151D01*
X25816833Y-196902756D01*
X25907082Y-197118025D01*
X25962808Y-197340772D01*
X25984536Y-197566982D01*
X25981016Y-197634606D01*
X25972791Y-197792639D01*
X25928098Y-198013730D01*
G37*
X25928098Y-198013730D02*
X25850979Y-198226239D01*
X25741960Y-198426151D01*
X25601565Y-198609450D01*
X25430318Y-198772122D01*
X25358665Y-198826800D01*
X25148814Y-198953934D01*
X24922036Y-199046757D01*
X24682701Y-199103333D01*
X24629245Y-199109587D01*
X24497718Y-199113928D01*
X24351603Y-199107309D01*
X24206088Y-199090687D01*
X24076363Y-199065024D01*
X23989193Y-199039403D01*
X23783462Y-198952963D01*
X23587535Y-198835367D01*
X23408404Y-198691903D01*
X23253060Y-198527855D01*
X23128497Y-198348509D01*
X23121923Y-198336967D01*
X23030753Y-198136409D01*
X22971660Y-197920000D01*
X22944543Y-197693698D01*
X22946503Y-197598975D01*
X23207932Y-197598975D01*
X23222905Y-197800620D01*
X23271467Y-197998686D01*
X23354299Y-198189023D01*
X23472085Y-198367478D01*
X23511618Y-198414097D01*
X23645288Y-198539843D01*
X23802582Y-198651041D01*
X23972303Y-198740458D01*
X24143253Y-198800863D01*
X24260214Y-198825598D01*
X24479243Y-198842623D01*
X24695157Y-198821992D01*
X24903936Y-198764254D01*
X25101557Y-198669958D01*
X25108876Y-198665561D01*
X25200350Y-198599920D01*
X25300572Y-198512322D01*
X25398995Y-198413314D01*
X25485076Y-198313441D01*
X25548267Y-198223249D01*
X25632679Y-198050690D01*
X25694064Y-197845751D01*
X25719198Y-197634606D01*
X25707517Y-197422433D01*
X25658456Y-197214411D01*
X25633123Y-197147282D01*
X25550390Y-196987160D01*
X25441458Y-196831978D01*
X25313615Y-196690242D01*
X25174147Y-196570458D01*
X25030339Y-196481134D01*
X24974013Y-196454950D01*
X24772769Y-196387319D01*
X24563972Y-196353993D01*
X24353455Y-196354622D01*
X24147052Y-196388856D01*
X23950595Y-196456346D01*
X23769918Y-196556741D01*
X23612983Y-196682385D01*
X23470259Y-196839647D01*
X23357710Y-197014089D01*
X23276017Y-197201558D01*
X23225863Y-197397904D01*
X23207932Y-197598975D01*
X22946503Y-197598975D01*
X22949306Y-197463459D01*
X22985850Y-197235241D01*
X23054077Y-197014999D01*
X23153888Y-196808692D01*
X23220353Y-196710982D01*
X23317359Y-196595134D01*
X23428792Y-196481493D01*
X23544068Y-196380779D01*
X23652602Y-196303708D01*
X23722761Y-196263945D01*
X23934872Y-196172319D01*
X24162551Y-196111587D01*
X24398289Y-196082853D01*
X24634579Y-196087219D01*
X24863914Y-196125788D01*
X24885476Y-196131460D01*
X25065418Y-196197626D01*
X25245551Y-196294696D01*
X25417123Y-196416554D01*
X25571384Y-196557078D01*
X25699584Y-196710151D01*
X25816833Y-196902756D01*
X25907082Y-197118025D01*
X25962808Y-197340772D01*
X25984536Y-197566982D01*
X25981016Y-197634606D01*
X25972791Y-197792639D01*
X25928098Y-198013730D01*
G36*
X28211332Y-197138433D02*
G01*
X28330981Y-197174047D01*
X28433280Y-197239869D01*
X28512411Y-197333898D01*
X28513931Y-197336398D01*
X28549251Y-197404936D01*
X28568911Y-197474717D01*
X28578269Y-197564501D01*
X28579597Y-197606835D01*
X28565242Y-197746736D01*
X28520464Y-197862318D01*
X28445027Y-197954034D01*
X28338695Y-198022334D01*
X28323988Y-198028916D01*
X28194244Y-198064942D01*
X28065441Y-198062801D01*
X27941914Y-198023137D01*
X27827998Y-197946592D01*
X27790081Y-197911448D01*
X27754834Y-197874078D01*
X27741231Y-197852736D01*
X27744755Y-197845796D01*
X27773096Y-197822496D01*
X27820557Y-197794786D01*
X27899883Y-197754317D01*
X27967775Y-197813928D01*
X28003904Y-197841518D01*
X28081404Y-197872549D01*
X28157933Y-197864544D01*
X28233179Y-197817499D01*
X28264231Y-197786901D01*
X28285977Y-197752001D01*
X28297588Y-197704710D01*
X28304160Y-197631687D01*
X28305949Y-197566390D01*
X28294410Y-197468778D01*
X28262338Y-197399575D01*
X28208372Y-197354847D01*
X28132889Y-197329439D01*
X28060737Y-197338519D01*
X27988507Y-197385023D01*
X27921809Y-197443585D01*
X27831679Y-197393211D01*
X27809064Y-197380299D01*
X27768257Y-197352581D01*
X27754405Y-197330461D01*
X27761191Y-197306135D01*
X27777964Y-197281844D01*
X27834173Y-197230000D01*
X27907960Y-197183771D01*
X27985462Y-197152643D01*
X28080151Y-197135030D01*
X28211332Y-197138433D01*
G37*
X28211332Y-197138433D02*
X28330981Y-197174047D01*
X28433280Y-197239869D01*
X28512411Y-197333898D01*
X28513931Y-197336398D01*
X28549251Y-197404936D01*
X28568911Y-197474717D01*
X28578269Y-197564501D01*
X28579597Y-197606835D01*
X28565242Y-197746736D01*
X28520464Y-197862318D01*
X28445027Y-197954034D01*
X28338695Y-198022334D01*
X28323988Y-198028916D01*
X28194244Y-198064942D01*
X28065441Y-198062801D01*
X27941914Y-198023137D01*
X27827998Y-197946592D01*
X27790081Y-197911448D01*
X27754834Y-197874078D01*
X27741231Y-197852736D01*
X27744755Y-197845796D01*
X27773096Y-197822496D01*
X27820557Y-197794786D01*
X27899883Y-197754317D01*
X27967775Y-197813928D01*
X28003904Y-197841518D01*
X28081404Y-197872549D01*
X28157933Y-197864544D01*
X28233179Y-197817499D01*
X28264231Y-197786901D01*
X28285977Y-197752001D01*
X28297588Y-197704710D01*
X28304160Y-197631687D01*
X28305949Y-197566390D01*
X28294410Y-197468778D01*
X28262338Y-197399575D01*
X28208372Y-197354847D01*
X28132889Y-197329439D01*
X28060737Y-197338519D01*
X27988507Y-197385023D01*
X27921809Y-197443585D01*
X27831679Y-197393211D01*
X27809064Y-197380299D01*
X27768257Y-197352581D01*
X27754405Y-197330461D01*
X27761191Y-197306135D01*
X27777964Y-197281844D01*
X27834173Y-197230000D01*
X27907960Y-197183771D01*
X27985462Y-197152643D01*
X28080151Y-197135030D01*
X28211332Y-197138433D01*
G36*
X24942941Y-198222255D02*
G01*
X24852785Y-198327434D01*
X24809094Y-198365485D01*
X24746195Y-198411095D01*
X24684600Y-198439781D01*
X24609283Y-198459705D01*
X24531329Y-198468967D01*
X24418276Y-198466619D01*
X24305941Y-198450276D01*
X24212792Y-198421706D01*
X24166924Y-198398346D01*
X24060509Y-198314342D01*
X23973289Y-198198191D01*
X23906600Y-198051964D01*
X23861779Y-197877732D01*
X23849484Y-197801356D01*
X23836482Y-197663482D01*
X23837998Y-197547802D01*
X24189697Y-197547802D01*
X24192197Y-197658843D01*
X24201250Y-197773359D01*
X24215890Y-197877223D01*
X24235151Y-197956308D01*
X24245795Y-197982909D01*
X24283099Y-198048793D01*
X24325245Y-198097962D01*
X24358571Y-198120334D01*
X24425111Y-198143004D01*
X24493708Y-198145931D01*
X24554685Y-198130658D01*
X24598366Y-198098731D01*
X24615077Y-198051694D01*
X24614629Y-198049321D01*
X24601331Y-198019360D01*
X24571760Y-197962368D01*
X24528881Y-197883798D01*
X24475656Y-197789104D01*
X24415052Y-197683738D01*
X24215027Y-197339702D01*
X24198892Y-197425889D01*
X24194716Y-197454362D01*
X24189697Y-197547802D01*
X23837998Y-197547802D01*
X23838268Y-197527178D01*
X23854570Y-197373464D01*
X23872779Y-197268883D01*
X23915128Y-197125434D01*
X24372053Y-197125434D01*
X24376125Y-197153967D01*
X24390655Y-197194906D01*
X24417835Y-197253656D01*
X24459859Y-197335619D01*
X24518921Y-197446196D01*
X24567438Y-197536263D01*
X24624124Y-197641045D01*
X24665921Y-197716164D01*
X24695189Y-197764330D01*
X24714288Y-197788254D01*
X24725578Y-197790645D01*
X24731418Y-197774212D01*
X24734167Y-197741666D01*
X24736185Y-197695716D01*
X24738146Y-197634984D01*
X24733451Y-197472686D01*
X24714163Y-197332535D01*
X24681276Y-197218397D01*
X24635785Y-197134136D01*
X24578683Y-197083617D01*
X24544564Y-197068352D01*
X24472173Y-197052645D01*
X24414080Y-197063197D01*
X24378145Y-197099389D01*
X24376246Y-197103908D01*
X24372053Y-197125434D01*
X23915128Y-197125434D01*
X23922002Y-197102151D01*
X23992347Y-196966970D01*
X24084604Y-196861996D01*
X24199562Y-196785884D01*
X24258500Y-196759197D01*
X24316567Y-196741437D01*
X24381189Y-196733741D01*
X24468539Y-196732925D01*
X24579434Y-196739819D01*
X24679519Y-196762242D01*
X24766009Y-196804584D01*
X24851492Y-196871396D01*
X24899538Y-196920506D01*
X24982214Y-197044339D01*
X25040721Y-197197138D01*
X25075312Y-197379678D01*
X25086238Y-197592731D01*
X25084805Y-197634984D01*
X25081480Y-197733041D01*
X25056836Y-197926483D01*
X25021390Y-198051694D01*
X25010807Y-198089080D01*
X24942941Y-198222255D01*
G37*
X24942941Y-198222255D02*
X24852785Y-198327434D01*
X24809094Y-198365485D01*
X24746195Y-198411095D01*
X24684600Y-198439781D01*
X24609283Y-198459705D01*
X24531329Y-198468967D01*
X24418276Y-198466619D01*
X24305941Y-198450276D01*
X24212792Y-198421706D01*
X24166924Y-198398346D01*
X24060509Y-198314342D01*
X23973289Y-198198191D01*
X23906600Y-198051964D01*
X23861779Y-197877732D01*
X23849484Y-197801356D01*
X23836482Y-197663482D01*
X23837998Y-197547802D01*
X24189697Y-197547802D01*
X24192197Y-197658843D01*
X24201250Y-197773359D01*
X24215890Y-197877223D01*
X24235151Y-197956308D01*
X24245795Y-197982909D01*
X24283099Y-198048793D01*
X24325245Y-198097962D01*
X24358571Y-198120334D01*
X24425111Y-198143004D01*
X24493708Y-198145931D01*
X24554685Y-198130658D01*
X24598366Y-198098731D01*
X24615077Y-198051694D01*
X24614629Y-198049321D01*
X24601331Y-198019360D01*
X24571760Y-197962368D01*
X24528881Y-197883798D01*
X24475656Y-197789104D01*
X24415052Y-197683738D01*
X24215027Y-197339702D01*
X24198892Y-197425889D01*
X24194716Y-197454362D01*
X24189697Y-197547802D01*
X23837998Y-197547802D01*
X23838268Y-197527178D01*
X23854570Y-197373464D01*
X23872779Y-197268883D01*
X23915128Y-197125434D01*
X24372053Y-197125434D01*
X24376125Y-197153967D01*
X24390655Y-197194906D01*
X24417835Y-197253656D01*
X24459859Y-197335619D01*
X24518921Y-197446196D01*
X24567438Y-197536263D01*
X24624124Y-197641045D01*
X24665921Y-197716164D01*
X24695189Y-197764330D01*
X24714288Y-197788254D01*
X24725578Y-197790645D01*
X24731418Y-197774212D01*
X24734167Y-197741666D01*
X24736185Y-197695716D01*
X24738146Y-197634984D01*
X24733451Y-197472686D01*
X24714163Y-197332535D01*
X24681276Y-197218397D01*
X24635785Y-197134136D01*
X24578683Y-197083617D01*
X24544564Y-197068352D01*
X24472173Y-197052645D01*
X24414080Y-197063197D01*
X24378145Y-197099389D01*
X24376246Y-197103908D01*
X24372053Y-197125434D01*
X23915128Y-197125434D01*
X23922002Y-197102151D01*
X23992347Y-196966970D01*
X24084604Y-196861996D01*
X24199562Y-196785884D01*
X24258500Y-196759197D01*
X24316567Y-196741437D01*
X24381189Y-196733741D01*
X24468539Y-196732925D01*
X24579434Y-196739819D01*
X24679519Y-196762242D01*
X24766009Y-196804584D01*
X24851492Y-196871396D01*
X24899538Y-196920506D01*
X24982214Y-197044339D01*
X25040721Y-197197138D01*
X25075312Y-197379678D01*
X25086238Y-197592731D01*
X25084805Y-197634984D01*
X25081480Y-197733041D01*
X25056836Y-197926483D01*
X25021390Y-198051694D01*
X25010807Y-198089080D01*
X24942941Y-198222255D01*
G36*
X27335087Y-197137553D02*
G01*
X27439475Y-197167928D01*
X27464117Y-197180196D01*
X27561800Y-197254078D01*
X27636905Y-197354228D01*
X27685124Y-197473486D01*
X27702154Y-197604694D01*
X27688536Y-197728345D01*
X27642881Y-197848191D01*
X27567214Y-197946141D01*
X27463723Y-198018395D01*
X27380352Y-198050937D01*
X27248419Y-198068493D01*
X27109070Y-198047792D01*
X27086973Y-198039670D01*
X27031448Y-198008947D01*
X26971639Y-197966241D01*
X26917095Y-197919399D01*
X26877365Y-197876272D01*
X26862000Y-197844709D01*
X26864706Y-197837249D01*
X26892090Y-197812301D01*
X26939444Y-197785935D01*
X27016888Y-197751013D01*
X27086663Y-197812275D01*
X27106578Y-197828406D01*
X27184451Y-197867673D01*
X27259213Y-197871845D01*
X27325937Y-197843996D01*
X27379697Y-197787197D01*
X27415565Y-197704520D01*
X27428616Y-197599038D01*
X27428177Y-197576958D01*
X27410986Y-197471618D01*
X27370310Y-197392865D01*
X27308245Y-197343534D01*
X27226890Y-197326461D01*
X27173913Y-197339854D01*
X27113678Y-197375036D01*
X27064922Y-197421783D01*
X27058361Y-197429280D01*
X27038765Y-197436991D01*
X27006758Y-197427060D01*
X26952388Y-197397323D01*
X26940859Y-197390489D01*
X26893686Y-197358572D01*
X26875227Y-197334377D01*
X26879557Y-197310874D01*
X26925953Y-197250711D01*
X27008378Y-197191970D01*
X27110240Y-197151947D01*
X27222242Y-197133017D01*
X27335087Y-197137553D01*
G37*
X27335087Y-197137553D02*
X27439475Y-197167928D01*
X27464117Y-197180196D01*
X27561800Y-197254078D01*
X27636905Y-197354228D01*
X27685124Y-197473486D01*
X27702154Y-197604694D01*
X27688536Y-197728345D01*
X27642881Y-197848191D01*
X27567214Y-197946141D01*
X27463723Y-198018395D01*
X27380352Y-198050937D01*
X27248419Y-198068493D01*
X27109070Y-198047792D01*
X27086973Y-198039670D01*
X27031448Y-198008947D01*
X26971639Y-197966241D01*
X26917095Y-197919399D01*
X26877365Y-197876272D01*
X26862000Y-197844709D01*
X26864706Y-197837249D01*
X26892090Y-197812301D01*
X26939444Y-197785935D01*
X27016888Y-197751013D01*
X27086663Y-197812275D01*
X27106578Y-197828406D01*
X27184451Y-197867673D01*
X27259213Y-197871845D01*
X27325937Y-197843996D01*
X27379697Y-197787197D01*
X27415565Y-197704520D01*
X27428616Y-197599038D01*
X27428177Y-197576958D01*
X27410986Y-197471618D01*
X27370310Y-197392865D01*
X27308245Y-197343534D01*
X27226890Y-197326461D01*
X27173913Y-197339854D01*
X27113678Y-197375036D01*
X27064922Y-197421783D01*
X27058361Y-197429280D01*
X27038765Y-197436991D01*
X27006758Y-197427060D01*
X26952388Y-197397323D01*
X26940859Y-197390489D01*
X26893686Y-197358572D01*
X26875227Y-197334377D01*
X26879557Y-197310874D01*
X26925953Y-197250711D01*
X27008378Y-197191970D01*
X27110240Y-197151947D01*
X27222242Y-197133017D01*
X27335087Y-197137553D01*
G04 #@! TD*
M02*
