G04 #@! TF.GenerationSoftware,KiCad,Pcbnew,6.0.4-6f826c9f35~116~ubuntu20.04.1*
G04 #@! TF.CreationDate,2022-04-20T21:21:03-04:00*
G04 #@! TF.ProjectId,yash_panel,79617368-5f70-4616-9e65-6c2e6b696361,rev?*
G04 #@! TF.SameCoordinates,Original*
G04 #@! TF.FileFunction,Other,Comment*
%FSLAX46Y46*%
G04 Gerber Fmt 4.6, Leading zero omitted, Abs format (unit mm)*
G04 Created by KiCad (PCBNEW 6.0.4-6f826c9f35~116~ubuntu20.04.1) date 2022-04-20 21:21:03*
%MOMM*%
%LPD*%
G01*
G04 APERTURE LIST*
%ADD10C,0.120000*%
%ADD11C,0.150000*%
G04 APERTURE END LIST*
D10*
G04 #@! TO.C,H10*
X63100000Y-201600000D02*
X60300000Y-201600000D01*
X63100000Y-7600000D02*
X60300000Y-7600000D01*
X63100000Y-13600000D02*
X60300000Y-13600000D01*
X63100000Y-207600000D02*
X60300000Y-207600000D01*
X63100000Y-13600000D02*
G75*
G03*
X63100000Y-7600000I0J3000000D01*
G01*
X63100000Y-207600000D02*
G75*
G03*
X63100000Y-201600000I0J3000000D01*
G01*
X60300000Y-201600000D02*
G75*
G03*
X60300000Y-207600000I0J-3000000D01*
G01*
X60300000Y-7600000D02*
G75*
G03*
X60300000Y-13600000I0J-3000000D01*
G01*
D11*
G04 #@! TO.C,H7*
X47100000Y-132600000D02*
G75*
G03*
X47100000Y-132600000I-6000000J0D01*
G01*
G04 #@! TO.C,H5*
X47100000Y-47600000D02*
G75*
G03*
X47100000Y-47600000I-6000000J0D01*
G01*
G04 #@! TO.C,H1*
X38100000Y-157600000D02*
G75*
G03*
X38100000Y-157600000I-9500000J0D01*
G01*
D10*
G04 #@! TO.C,H9*
X19100000Y-7600000D02*
X21900000Y-7600000D01*
X19100000Y-13600000D02*
X21900000Y-13600000D01*
X19100000Y-207600000D02*
X21900000Y-207600000D01*
X19100000Y-201600000D02*
X21900000Y-201600000D01*
X19100000Y-201600000D02*
G75*
G03*
X19100000Y-207600000I0J-3000000D01*
G01*
X21900000Y-207600000D02*
G75*
G03*
X21900000Y-201600000I0J3000000D01*
G01*
X21900000Y-13600000D02*
G75*
G03*
X21900000Y-7600000I0J3000000D01*
G01*
X19100000Y-7600000D02*
G75*
G03*
X19100000Y-13600000I0J-3000000D01*
G01*
D11*
G04 #@! TO.C,H8*
X45100000Y-177600000D02*
G75*
G03*
X45100000Y-177600000I-4000000J0D01*
G01*
G04 #@! TO.C,H2*
X38100000Y-182600000D02*
G75*
G03*
X38100000Y-182600000I-9500000J0D01*
G01*
G04 #@! TO.C,H3*
X63100000Y-157600000D02*
G75*
G03*
X63100000Y-157600000I-9500000J0D01*
G01*
G04 #@! TO.C,H4*
X63100000Y-182600000D02*
G75*
G03*
X63100000Y-182600000I-9500000J0D01*
G01*
G04 #@! TO.C,H6*
X47100000Y-97600000D02*
G75*
G03*
X47100000Y-97600000I-6000000J0D01*
G01*
G04 #@! TD*
M02*
