G04 #@! TF.GenerationSoftware,KiCad,Pcbnew,6.0.4-6f826c9f35~116~ubuntu20.04.1*
G04 #@! TF.CreationDate,2022-04-20T21:21:03-04:00*
G04 #@! TF.ProjectId,yash_panel,79617368-5f70-4616-9e65-6c2e6b696361,rev?*
G04 #@! TF.SameCoordinates,Original*
G04 #@! TF.FileFunction,Legend,Top*
G04 #@! TF.FilePolarity,Positive*
%FSLAX46Y46*%
G04 Gerber Fmt 4.6, Leading zero omitted, Abs format (unit mm)*
G04 Created by KiCad (PCBNEW 6.0.4-6f826c9f35~116~ubuntu20.04.1) date 2022-04-20 21:21:03*
%MOMM*%
%LPD*%
G01*
G04 APERTURE LIST*
G04 APERTURE END LIST*
G04 #@! TO.C,GRAF2*
G36*
X51524425Y-135796797D02*
G01*
X51092192Y-135796797D01*
X51092192Y-134169570D01*
X50456557Y-134169570D01*
X50456557Y-135796797D01*
X49998899Y-135796797D01*
X49998899Y-134169570D01*
X49846346Y-134169570D01*
X49846346Y-133711912D01*
X49997234Y-133711912D01*
X50011612Y-133139840D01*
X50443844Y-133139840D01*
X50458222Y-133711912D01*
X51092192Y-133711912D01*
X51092192Y-133127128D01*
X51524425Y-133127128D01*
X51524425Y-135796797D01*
G37*
G36*
X51720333Y-134076246D02*
G01*
X51789396Y-133906519D01*
X51921560Y-133686008D01*
X52082377Y-133503163D01*
X52266478Y-133358006D01*
X52468493Y-133250554D01*
X52683051Y-133180829D01*
X52904784Y-133148849D01*
X53128321Y-133154635D01*
X53348293Y-133198205D01*
X53559329Y-133279579D01*
X53756059Y-133398777D01*
X53933114Y-133555819D01*
X54085125Y-133750724D01*
X54168012Y-133897837D01*
X54262633Y-134143815D01*
X54307118Y-134389776D01*
X54302068Y-134632295D01*
X54248083Y-134867944D01*
X54145765Y-135093295D01*
X53995712Y-135304920D01*
X53904246Y-135403257D01*
X53703778Y-135568918D01*
X53484149Y-135690873D01*
X53250824Y-135767525D01*
X53009271Y-135797277D01*
X52764957Y-135778532D01*
X52681281Y-135760589D01*
X52436216Y-135673730D01*
X52216393Y-135543943D01*
X52025967Y-135374574D01*
X51869095Y-135168967D01*
X51805582Y-135055700D01*
X51708503Y-134810911D01*
X51661918Y-134564923D01*
X51664667Y-134393496D01*
X52094341Y-134393496D01*
X52103198Y-134599327D01*
X52119763Y-134679002D01*
X52192603Y-134872050D01*
X52302293Y-135037609D01*
X52442187Y-135172387D01*
X52605636Y-135273092D01*
X52785992Y-135336431D01*
X52976608Y-135359112D01*
X53170835Y-135337844D01*
X53336476Y-135281532D01*
X53520474Y-135169989D01*
X53674565Y-135020121D01*
X53791049Y-134839556D01*
X53856520Y-134651915D01*
X53875870Y-134457471D01*
X53851557Y-134264453D01*
X53786037Y-134081088D01*
X53681770Y-133915603D01*
X53541212Y-133776225D01*
X53455876Y-133717563D01*
X53315075Y-133643937D01*
X53183157Y-133602323D01*
X53039193Y-133587741D01*
X52922823Y-133590783D01*
X52727685Y-133620435D01*
X52559796Y-133687272D01*
X52406495Y-133796966D01*
X52355535Y-133844945D01*
X52221911Y-134011344D01*
X52134379Y-134195848D01*
X52094341Y-134393496D01*
X51664667Y-134393496D01*
X51665854Y-134319460D01*
X51720333Y-134076246D01*
G37*
G36*
X38981803Y-11872496D02*
G01*
X39081919Y-11632077D01*
X39174908Y-11410285D01*
X39259057Y-11211137D01*
X39332653Y-11038647D01*
X39393981Y-10896830D01*
X39441327Y-10789701D01*
X39472978Y-10721276D01*
X39487219Y-10695569D01*
X39487560Y-10695479D01*
X39500526Y-10718497D01*
X39532735Y-10783383D01*
X39582174Y-10885810D01*
X39646831Y-11021450D01*
X39724695Y-11185975D01*
X39813754Y-11375058D01*
X39911994Y-11584372D01*
X40017405Y-11809588D01*
X40127974Y-12046379D01*
X40241689Y-12290418D01*
X40356538Y-12537377D01*
X40470509Y-12782928D01*
X40581590Y-13022744D01*
X40687769Y-13252497D01*
X40787033Y-13467860D01*
X40877372Y-13664505D01*
X40956772Y-13838105D01*
X41023221Y-13984331D01*
X41074708Y-14098857D01*
X41109221Y-14177355D01*
X41124746Y-14215497D01*
X41125426Y-14218231D01*
X41101150Y-14223656D01*
X41032919Y-14228505D01*
X40927627Y-14232560D01*
X40792169Y-14235603D01*
X40633439Y-14237416D01*
X40505672Y-14237838D01*
X39885919Y-14237838D01*
X39782219Y-14021722D01*
X39678520Y-13805606D01*
X39117989Y-13800662D01*
X38949256Y-13799142D01*
X38793404Y-13797679D01*
X38659126Y-13796360D01*
X38555111Y-13795269D01*
X38490050Y-13794495D01*
X38477627Y-13794306D01*
X38438756Y-13796316D01*
X38409234Y-13809917D01*
X38381833Y-13844025D01*
X38349324Y-13907555D01*
X38305896Y-14006137D01*
X38246592Y-14130351D01*
X38193777Y-14208870D01*
X38143231Y-14245708D01*
X38090737Y-14244881D01*
X38066531Y-14233954D01*
X38033070Y-14200278D01*
X38028142Y-14147725D01*
X38052841Y-14069493D01*
X38108261Y-13958781D01*
X38111875Y-13952240D01*
X38200227Y-13792893D01*
X38119933Y-13765772D01*
X38035945Y-13722538D01*
X37997998Y-13671665D01*
X38004134Y-13622297D01*
X38052393Y-13583582D01*
X38140818Y-13564667D01*
X38163133Y-13564064D01*
X38283704Y-13564064D01*
X38284325Y-13562559D01*
X38490953Y-13562559D01*
X38491611Y-13577164D01*
X38509281Y-13588936D01*
X38548903Y-13598285D01*
X38615418Y-13605623D01*
X38713770Y-13611360D01*
X38848897Y-13615909D01*
X39025742Y-13619680D01*
X39212162Y-13622576D01*
X39368320Y-13623353D01*
X39477795Y-13620458D01*
X39544640Y-13613620D01*
X39572910Y-13602568D01*
X39574475Y-13598321D01*
X39564276Y-13565305D01*
X39535919Y-13495714D01*
X39492768Y-13396680D01*
X39438183Y-13275338D01*
X39375526Y-13138822D01*
X39308159Y-12994267D01*
X39239443Y-12848806D01*
X39172741Y-12709574D01*
X39111413Y-12583705D01*
X39058822Y-12478333D01*
X39018328Y-12400593D01*
X38993295Y-12357618D01*
X38986999Y-12351577D01*
X38974830Y-12377510D01*
X38946754Y-12443035D01*
X38905872Y-12540581D01*
X38855285Y-12662576D01*
X38798096Y-12801448D01*
X38737405Y-12949625D01*
X38676314Y-13099536D01*
X38617926Y-13243609D01*
X38565341Y-13374272D01*
X38521660Y-13483953D01*
X38490953Y-13562559D01*
X38284325Y-13562559D01*
X38876275Y-12127528D01*
X38981803Y-11872496D01*
G37*
G36*
X41086664Y-200899337D02*
G01*
X41121739Y-200958360D01*
X41175131Y-201053768D01*
X41244436Y-201181113D01*
X41327250Y-201335942D01*
X41421166Y-201513806D01*
X41523782Y-201710253D01*
X41604635Y-201866387D01*
X41712374Y-202074485D01*
X41813251Y-202267951D01*
X41904841Y-202442237D01*
X41984721Y-202592796D01*
X42050469Y-202715080D01*
X42099661Y-202804541D01*
X42129873Y-202856632D01*
X42138569Y-202868448D01*
X42153142Y-202846366D01*
X42188174Y-202783438D01*
X42241271Y-202684246D01*
X42310035Y-202553370D01*
X42392073Y-202395389D01*
X42484989Y-202214885D01*
X42586387Y-202016439D01*
X42663226Y-201865167D01*
X42782766Y-201630751D01*
X42890071Y-201423327D01*
X42983536Y-201245852D01*
X43061557Y-201101284D01*
X43122531Y-200992582D01*
X43164852Y-200922705D01*
X43186917Y-200894610D01*
X43189411Y-200894877D01*
X43200828Y-200924177D01*
X43227079Y-200996608D01*
X43266556Y-201107533D01*
X43317650Y-201252312D01*
X43378751Y-201426307D01*
X43448250Y-201624878D01*
X43524538Y-201843387D01*
X43606006Y-202077194D01*
X43691044Y-202321662D01*
X43778043Y-202572151D01*
X43865395Y-202824022D01*
X43951489Y-203072636D01*
X44034717Y-203313356D01*
X44113469Y-203541541D01*
X44186136Y-203752552D01*
X44251109Y-203941752D01*
X44306779Y-204104501D01*
X44351537Y-204236161D01*
X44383772Y-204332092D01*
X44401877Y-204387655D01*
X44405305Y-204399912D01*
X44381009Y-204405379D01*
X44312631Y-204410280D01*
X44206942Y-204414405D01*
X44070709Y-204417541D01*
X43910703Y-204419477D01*
X43762349Y-204420020D01*
X43119393Y-204420020D01*
X42830468Y-203523774D01*
X42764489Y-203319905D01*
X42702963Y-203131328D01*
X42647714Y-202963518D01*
X42600568Y-202821950D01*
X42563347Y-202712101D01*
X42537877Y-202639446D01*
X42525982Y-202609462D01*
X42525767Y-202609171D01*
X42511611Y-202626980D01*
X42478327Y-202685783D01*
X42428462Y-202780575D01*
X42364559Y-202906348D01*
X42289166Y-203058096D01*
X42204826Y-203230812D01*
X42118585Y-203410071D01*
X42024856Y-203606117D01*
X41935300Y-203793170D01*
X41852966Y-203964883D01*
X41780902Y-204114905D01*
X41722160Y-204236889D01*
X41679786Y-204324485D01*
X41659515Y-204365954D01*
X41591852Y-204502578D01*
X41112983Y-203646715D01*
X41006362Y-203457434D01*
X40907109Y-203283688D01*
X40817988Y-203130134D01*
X40741767Y-203001429D01*
X40681209Y-202902229D01*
X40639081Y-202837191D01*
X40618147Y-202810972D01*
X40616646Y-202810892D01*
X40604630Y-202839181D01*
X40578895Y-202909791D01*
X40541510Y-203016705D01*
X40494545Y-203153904D01*
X40440070Y-203315373D01*
X40380155Y-203495094D01*
X40351751Y-203580981D01*
X40289093Y-203769223D01*
X40229895Y-203943864D01*
X40176417Y-204098485D01*
X40130917Y-204226664D01*
X40095655Y-204321984D01*
X40072891Y-204378024D01*
X40067642Y-204388239D01*
X40016202Y-204432906D01*
X39953285Y-204443766D01*
X39898194Y-204419823D01*
X39881318Y-204397843D01*
X39868442Y-204348391D01*
X39877407Y-204281034D01*
X39910338Y-204187837D01*
X39969359Y-204060870D01*
X39974103Y-204051352D01*
X39995733Y-204000206D01*
X40031739Y-203905469D01*
X40080483Y-203771813D01*
X40140325Y-203603909D01*
X40209627Y-203406430D01*
X40286750Y-203184046D01*
X40370054Y-202941431D01*
X40457902Y-202683255D01*
X40548654Y-202414191D01*
X40553855Y-202398699D01*
X40642825Y-202134042D01*
X40727251Y-201883725D01*
X40805713Y-201651904D01*
X40876791Y-201442737D01*
X40939065Y-201260379D01*
X40991114Y-201108989D01*
X41031519Y-200992722D01*
X41058859Y-200915736D01*
X41071714Y-200882188D01*
X41072311Y-200881151D01*
X41086664Y-200899337D01*
G37*
G36*
X30004422Y-134054399D02*
G01*
X30103603Y-133832055D01*
X30247216Y-133626807D01*
X30276992Y-133593037D01*
X30470688Y-133415381D01*
X30683458Y-133282261D01*
X30909838Y-133193677D01*
X31144358Y-133149629D01*
X31381552Y-133150117D01*
X31615952Y-133195141D01*
X31842091Y-133284701D01*
X32054503Y-133418797D01*
X32243729Y-133593037D01*
X32393754Y-133792692D01*
X32499438Y-134009303D01*
X32561839Y-134236927D01*
X32582019Y-134469620D01*
X32561038Y-134701438D01*
X32499955Y-134926439D01*
X32399833Y-135138677D01*
X32261730Y-135332211D01*
X32086707Y-135501095D01*
X31878944Y-135637730D01*
X31644804Y-135734416D01*
X31396487Y-135784961D01*
X31143320Y-135788179D01*
X30945952Y-135756461D01*
X30726961Y-135679001D01*
X30516946Y-135557362D01*
X30331945Y-135402703D01*
X30168458Y-135207072D01*
X30048282Y-134991598D01*
X29971603Y-134762437D01*
X29938609Y-134525746D01*
X29940942Y-134474675D01*
X30383305Y-134474675D01*
X30385044Y-134594661D01*
X30392133Y-134680065D01*
X30407602Y-134747103D01*
X30434479Y-134811990D01*
X30453178Y-134848762D01*
X30576895Y-135037381D01*
X30727638Y-135183293D01*
X30906971Y-135287807D01*
X31029735Y-135331414D01*
X31178256Y-135354394D01*
X31345955Y-135350087D01*
X31510399Y-135320427D01*
X31623701Y-135280137D01*
X31806756Y-135169391D01*
X31953647Y-135023591D01*
X32048862Y-134877058D01*
X32122338Y-134687636D01*
X32151036Y-134486015D01*
X32134144Y-134284146D01*
X32097733Y-134156857D01*
X32020441Y-134009585D01*
X31907289Y-133868419D01*
X31771578Y-133746733D01*
X31626605Y-133657903D01*
X31583581Y-133639767D01*
X31397533Y-133593933D01*
X31199368Y-133586182D01*
X31008349Y-133616587D01*
X30943581Y-133637431D01*
X30797272Y-133713835D01*
X30655729Y-133826342D01*
X30533849Y-133961226D01*
X30454228Y-134088461D01*
X30419683Y-134164894D01*
X30398475Y-134233440D01*
X30387482Y-134311106D01*
X30383580Y-134414896D01*
X30383305Y-134474675D01*
X29940942Y-134474675D01*
X29949486Y-134287681D01*
X30004422Y-134054399D01*
G37*
G36*
X36503709Y-132194757D02*
G01*
X36570680Y-131741589D01*
X36684050Y-131295189D01*
X36843875Y-130859125D01*
X37050212Y-130436970D01*
X37247100Y-130114215D01*
X37531958Y-129732869D01*
X37852510Y-129386839D01*
X38206407Y-129077695D01*
X38591301Y-128807010D01*
X39004845Y-128576352D01*
X39444691Y-128387296D01*
X39908490Y-128241410D01*
X40121121Y-128190964D01*
X40218031Y-128171255D01*
X40306734Y-128156354D01*
X40396811Y-128145605D01*
X40497841Y-128138353D01*
X40619405Y-128133946D01*
X40771082Y-128131727D01*
X40962452Y-128131042D01*
X40998298Y-128131031D01*
X41197095Y-128131527D01*
X41354628Y-128133449D01*
X41480475Y-128137453D01*
X41584217Y-128144192D01*
X41675433Y-128154323D01*
X41763705Y-128168498D01*
X41858612Y-128187374D01*
X41875476Y-128190964D01*
X42354054Y-128317591D01*
X42804448Y-128486398D01*
X43227220Y-128697619D01*
X43501804Y-128867330D01*
X43882438Y-129151388D01*
X44224250Y-129465343D01*
X44526867Y-129805940D01*
X44789919Y-130169924D01*
X45013033Y-130554039D01*
X45195836Y-130955032D01*
X45337958Y-131369645D01*
X45439027Y-131794625D01*
X45498670Y-132226717D01*
X45516516Y-132662664D01*
X45492192Y-133099212D01*
X45425328Y-133533105D01*
X45315550Y-133961089D01*
X45162488Y-134379908D01*
X44965769Y-134786308D01*
X44725021Y-135177033D01*
X44439873Y-135548827D01*
X44284890Y-135721983D01*
X43946553Y-136045280D01*
X43576118Y-136331652D01*
X43178375Y-136578508D01*
X42758115Y-136783257D01*
X42320128Y-136943310D01*
X41869204Y-137056076D01*
X41791005Y-137070462D01*
X41614680Y-137095249D01*
X41409580Y-137114471D01*
X41190053Y-137127594D01*
X40970446Y-137134087D01*
X40765106Y-137133417D01*
X40588380Y-137125051D01*
X40515215Y-137117813D01*
X40034047Y-137034108D01*
X39571238Y-136904791D01*
X39129495Y-136731445D01*
X38711526Y-136515653D01*
X38320038Y-136258995D01*
X37957740Y-135963054D01*
X37627339Y-135629412D01*
X37331543Y-135259651D01*
X37329261Y-135256463D01*
X37073043Y-134855907D01*
X36862825Y-134437123D01*
X36698662Y-134003681D01*
X36580612Y-133559153D01*
X36508732Y-133107110D01*
X36493168Y-132830468D01*
X36517276Y-132830468D01*
X36560172Y-133277004D01*
X36649130Y-133723031D01*
X36785443Y-134165480D01*
X36955464Y-134570256D01*
X37172339Y-134967461D01*
X37433004Y-135344776D01*
X37732410Y-135696470D01*
X38065508Y-136016817D01*
X38427248Y-136300085D01*
X38557458Y-136387963D01*
X38967130Y-136624085D01*
X39396375Y-136815170D01*
X39840933Y-136960175D01*
X40296548Y-137058058D01*
X40758961Y-137107778D01*
X41223914Y-137108291D01*
X41434193Y-137092053D01*
X41910886Y-137018365D01*
X42371814Y-136896730D01*
X42814601Y-136728206D01*
X43236869Y-136513850D01*
X43636243Y-136254719D01*
X44010344Y-135951870D01*
X44022662Y-135940753D01*
X44340432Y-135619541D01*
X44626568Y-135262216D01*
X44877465Y-134875093D01*
X45089518Y-134464489D01*
X45259122Y-134036719D01*
X45382670Y-133598100D01*
X45396556Y-133533934D01*
X45466311Y-133076218D01*
X45487590Y-132612964D01*
X45461292Y-132149465D01*
X45388315Y-131691015D01*
X45269558Y-131242904D01*
X45105920Y-130810427D01*
X44898298Y-130398875D01*
X44850413Y-130317618D01*
X44580666Y-129919325D01*
X44275340Y-129556798D01*
X43936171Y-129231260D01*
X43564895Y-128943930D01*
X43163249Y-128696032D01*
X42732969Y-128488787D01*
X42275792Y-128323416D01*
X41862763Y-128215692D01*
X41769585Y-128196612D01*
X41683075Y-128182201D01*
X41593808Y-128171832D01*
X41492357Y-128164879D01*
X41369295Y-128160717D01*
X41215198Y-128158719D01*
X41020638Y-128158258D01*
X40998298Y-128158273D01*
X40749888Y-128160405D01*
X40540566Y-128167518D01*
X40358672Y-128181382D01*
X40192545Y-128203766D01*
X40030525Y-128236438D01*
X39860951Y-128281167D01*
X39672161Y-128339723D01*
X39563280Y-128375968D01*
X39124971Y-128549767D01*
X38715923Y-128762964D01*
X38337428Y-129012489D01*
X37990781Y-129295274D01*
X37677271Y-129608247D01*
X37398193Y-129948339D01*
X37154839Y-130312481D01*
X36948500Y-130697603D01*
X36780469Y-131100635D01*
X36652039Y-131518507D01*
X36564502Y-131948150D01*
X36519150Y-132386494D01*
X36517276Y-132830468D01*
X36493168Y-132830468D01*
X36483078Y-132651120D01*
X36503709Y-132194757D01*
G37*
G36*
X48891611Y-200984783D02*
G01*
X49062868Y-200986213D01*
X49199216Y-200988434D01*
X49296048Y-200991413D01*
X49348756Y-200995122D01*
X49356907Y-200997058D01*
X49386699Y-201042670D01*
X49370456Y-201099377D01*
X49348735Y-201125612D01*
X49323128Y-201142161D01*
X49279623Y-201153602D01*
X49210051Y-201160765D01*
X49106243Y-201164476D01*
X48960032Y-201165565D01*
X48954829Y-201165566D01*
X48600877Y-201165566D01*
X48594332Y-202786437D01*
X48587788Y-204407308D01*
X47971221Y-204414116D01*
X47354655Y-204420924D01*
X47354655Y-201165566D01*
X47132182Y-201165758D01*
X47005057Y-201169076D01*
X46873655Y-201177664D01*
X46763583Y-201189775D01*
X46750314Y-201191817D01*
X46623190Y-201203468D01*
X46539009Y-201189780D01*
X46496402Y-201150359D01*
X46490190Y-201116934D01*
X46490938Y-201092408D01*
X46495764Y-201071574D01*
X46508543Y-201054087D01*
X46533150Y-201039605D01*
X46573459Y-201027784D01*
X46633345Y-201018280D01*
X46716684Y-201010751D01*
X46827348Y-201004853D01*
X46969214Y-201000242D01*
X47146156Y-200996575D01*
X47362048Y-200993509D01*
X47620766Y-200990700D01*
X47926184Y-200987805D01*
X47949665Y-200987588D01*
X48214473Y-200985546D01*
X48462805Y-200984419D01*
X48690054Y-200984175D01*
X48891611Y-200984783D01*
G37*
G36*
X58333718Y-191601403D02*
G01*
X58403599Y-191617689D01*
X58643970Y-191712071D01*
X58857835Y-191846056D01*
X59039381Y-192015402D01*
X59150598Y-192162700D01*
X59258680Y-192375132D01*
X59320655Y-192597478D01*
X59338752Y-192823861D01*
X59315200Y-193048403D01*
X59252229Y-193265227D01*
X59152067Y-193468454D01*
X59016944Y-193652208D01*
X58849089Y-193810609D01*
X58650731Y-193937782D01*
X58445652Y-194021397D01*
X58240899Y-194063174D01*
X58022389Y-194070564D01*
X57810325Y-194043769D01*
X57702216Y-194014009D01*
X57474122Y-193911243D01*
X57273307Y-193770295D01*
X57104691Y-193596596D01*
X56973189Y-193395573D01*
X56883720Y-193172656D01*
X56862497Y-193086889D01*
X56843628Y-192927518D01*
X56845091Y-192748253D01*
X56865357Y-192570410D01*
X56902896Y-192415306D01*
X56912653Y-192388079D01*
X57015416Y-192186367D01*
X57158822Y-191999231D01*
X57332871Y-191836678D01*
X57527562Y-191708714D01*
X57646237Y-191654192D01*
X57800665Y-191611228D01*
X57980263Y-191587455D01*
X58164719Y-191583854D01*
X58333718Y-191601403D01*
G37*
G36*
X40121121Y-119497049D02*
G01*
X40395493Y-119192969D01*
X40669864Y-118888889D01*
X41062910Y-118888889D01*
X41197777Y-118889837D01*
X41312687Y-118892452D01*
X41398983Y-118896392D01*
X41448007Y-118901316D01*
X41455956Y-118904422D01*
X41439876Y-118927549D01*
X41395263Y-118982106D01*
X41327557Y-119061686D01*
X41242198Y-119159884D01*
X41159100Y-119254021D01*
X41058714Y-119366996D01*
X40966935Y-119470296D01*
X40890421Y-119556424D01*
X40835832Y-119617885D01*
X40812755Y-119643880D01*
X40802491Y-119653899D01*
X40793488Y-119662375D01*
X40786874Y-119672507D01*
X40783777Y-119687494D01*
X40785324Y-119710535D01*
X40792644Y-119744830D01*
X40806865Y-119793577D01*
X40829115Y-119859976D01*
X40860522Y-119947226D01*
X40902213Y-120058527D01*
X40955317Y-120197077D01*
X41020962Y-120366076D01*
X41100276Y-120568722D01*
X41194387Y-120808216D01*
X41304423Y-121087756D01*
X41431512Y-121410542D01*
X41471350Y-121511760D01*
X41557651Y-121731656D01*
X41637915Y-121937335D01*
X41710267Y-122123900D01*
X41772827Y-122286458D01*
X41823720Y-122420112D01*
X41861068Y-122519969D01*
X41882994Y-122581133D01*
X41888188Y-122598697D01*
X41863144Y-122612185D01*
X41787894Y-122621213D01*
X41662258Y-122625795D01*
X41574386Y-122626427D01*
X41260583Y-122626427D01*
X41011761Y-121997148D01*
X40927845Y-121784838D01*
X40834100Y-121547525D01*
X40737095Y-121301844D01*
X40643399Y-121064433D01*
X40559580Y-120851930D01*
X40534151Y-120787429D01*
X40305363Y-120206989D01*
X40108409Y-120399309D01*
X40108409Y-122626427D01*
X39815218Y-122626427D01*
X39675447Y-122624543D01*
X39581275Y-122618535D01*
X39527577Y-122607870D01*
X39509891Y-122594645D01*
X39507988Y-122564575D01*
X39506355Y-122487759D01*
X39505005Y-122368304D01*
X39503951Y-122210312D01*
X39503204Y-122017891D01*
X39502777Y-121795143D01*
X39502683Y-121546176D01*
X39502932Y-121275092D01*
X39503539Y-120985998D01*
X39504333Y-120732233D01*
X39510911Y-118901602D01*
X39808871Y-118894446D01*
X40106831Y-118887289D01*
X40121121Y-119497049D01*
G37*
G36*
X21661152Y-156570099D02*
G01*
X21772290Y-156005770D01*
X21928656Y-155454654D01*
X22129126Y-154919304D01*
X22372577Y-154402271D01*
X22657885Y-153906106D01*
X22983925Y-153433363D01*
X23349574Y-152986593D01*
X23753707Y-152568348D01*
X24195200Y-152181180D01*
X24672930Y-151827641D01*
X24865866Y-151701296D01*
X25010648Y-151615172D01*
X25189625Y-151517085D01*
X25389932Y-151413374D01*
X25598705Y-151310381D01*
X25803079Y-151214445D01*
X25990191Y-151131907D01*
X26147175Y-151069107D01*
X26152613Y-151067107D01*
X26727571Y-150883240D01*
X27311061Y-150749311D01*
X27901226Y-150665499D01*
X28496208Y-150631982D01*
X29094150Y-150648940D01*
X29693194Y-150716550D01*
X29732365Y-150722741D01*
X30309523Y-150840913D01*
X30870321Y-151006289D01*
X31412405Y-151217186D01*
X31933419Y-151471925D01*
X32431011Y-151768825D01*
X32902825Y-152106205D01*
X33346508Y-152482384D01*
X33759704Y-152895680D01*
X34140061Y-153344415D01*
X34485223Y-153826905D01*
X34787643Y-154331932D01*
X34990138Y-154742375D01*
X35171193Y-155188669D01*
X35326878Y-155658924D01*
X35453267Y-156141251D01*
X35546430Y-156623762D01*
X35547865Y-156632933D01*
X35567546Y-156798103D01*
X35582445Y-157002968D01*
X35592564Y-157236597D01*
X35597904Y-157488059D01*
X35598467Y-157746425D01*
X35594253Y-158000762D01*
X35585263Y-158240140D01*
X35571499Y-158453630D01*
X35552962Y-158630299D01*
X35547654Y-158666967D01*
X35430933Y-159259265D01*
X35268566Y-159831617D01*
X35062332Y-160382071D01*
X34814008Y-160908677D01*
X34525373Y-161409484D01*
X34198204Y-161882541D01*
X33834279Y-162325898D01*
X33435376Y-162737603D01*
X33003274Y-163115706D01*
X32539749Y-163458256D01*
X32046580Y-163763302D01*
X31525544Y-164028894D01*
X30978420Y-164253080D01*
X30406985Y-164433910D01*
X30256056Y-164473233D01*
X29911811Y-164546832D01*
X29538750Y-164604891D01*
X29153427Y-164645843D01*
X28772400Y-164668122D01*
X28412222Y-164670162D01*
X28247448Y-164663244D01*
X27683238Y-164610133D01*
X27146729Y-164519369D01*
X26629045Y-164388625D01*
X26121309Y-164215573D01*
X25614646Y-163997887D01*
X25501502Y-163943312D01*
X25118228Y-163743349D01*
X24770912Y-163536183D01*
X24447399Y-163313086D01*
X24135537Y-163065331D01*
X23823174Y-162784191D01*
X23643966Y-162609382D01*
X23230300Y-162161776D01*
X22862369Y-161692070D01*
X22540263Y-161200431D01*
X22264071Y-160687026D01*
X22033879Y-160152023D01*
X21849776Y-159595588D01*
X21711852Y-159017890D01*
X21691371Y-158908509D01*
X21610353Y-158316846D01*
X21579060Y-157728189D01*
X21579935Y-157698707D01*
X21612934Y-157698707D01*
X21617187Y-157963587D01*
X21627680Y-158212850D01*
X21644412Y-158433278D01*
X21658318Y-158552553D01*
X21765648Y-159147798D01*
X21919989Y-159725567D01*
X22120354Y-160283857D01*
X22365755Y-160820668D01*
X22655205Y-161333996D01*
X22987717Y-161821839D01*
X23362304Y-162282194D01*
X23645446Y-162583430D01*
X24083736Y-162987821D01*
X24551057Y-163350940D01*
X25045324Y-163671735D01*
X25564454Y-163949155D01*
X26106363Y-164182148D01*
X26668966Y-164369663D01*
X27250179Y-164510647D01*
X27579102Y-164568290D01*
X27878513Y-164603408D01*
X28211654Y-164624578D01*
X28563378Y-164631899D01*
X28918543Y-164625469D01*
X29262004Y-164605384D01*
X29578617Y-164571744D01*
X29693517Y-164554650D01*
X30282892Y-164433350D01*
X30854010Y-164265269D01*
X31404784Y-164051573D01*
X31933132Y-163793427D01*
X32436967Y-163491998D01*
X32914204Y-163148450D01*
X33362760Y-162763950D01*
X33780550Y-162339664D01*
X33902749Y-162201102D01*
X34270153Y-161735201D01*
X34593898Y-161244729D01*
X34873298Y-160732298D01*
X35107670Y-160200521D01*
X35296327Y-159652010D01*
X35438585Y-159089380D01*
X35533760Y-158515242D01*
X35581165Y-157932211D01*
X35580116Y-157342899D01*
X35529929Y-156749919D01*
X35454941Y-156279831D01*
X35321703Y-155722280D01*
X35140780Y-155178107D01*
X34914277Y-154650368D01*
X34644301Y-154142116D01*
X34332957Y-153656406D01*
X33982350Y-153196293D01*
X33594588Y-152764831D01*
X33171777Y-152365074D01*
X32716021Y-152000077D01*
X32315516Y-151726527D01*
X32157008Y-151632318D01*
X31964136Y-151527376D01*
X31749688Y-151417873D01*
X31526456Y-151309977D01*
X31307229Y-151209860D01*
X31104797Y-151123691D01*
X30931950Y-151057640D01*
X30921341Y-151053948D01*
X30382595Y-150890372D01*
X29841766Y-150772054D01*
X29291757Y-150698000D01*
X28725475Y-150667215D01*
X28216943Y-150674725D01*
X27640520Y-150725622D01*
X27072103Y-150825780D01*
X26514710Y-150973856D01*
X25971359Y-151168507D01*
X25445067Y-151408389D01*
X24938852Y-151692159D01*
X24455731Y-152018471D01*
X23998722Y-152385984D01*
X23657992Y-152704705D01*
X23252672Y-153145189D01*
X22889148Y-153614073D01*
X22568323Y-154109532D01*
X22291099Y-154629741D01*
X22058380Y-155172875D01*
X21871067Y-155737110D01*
X21730063Y-156320620D01*
X21658318Y-156747348D01*
X21637612Y-156942530D01*
X21623147Y-157174961D01*
X21614921Y-157431426D01*
X21612934Y-157698707D01*
X21579935Y-157698707D01*
X21596368Y-157145090D01*
X21661152Y-156570099D01*
G37*
G36*
X54658108Y-133132456D02*
G01*
X54867868Y-133139840D01*
X54874492Y-134252203D01*
X54881115Y-135364565D01*
X55668769Y-135364565D01*
X55668769Y-135796797D01*
X54448348Y-135796797D01*
X54448348Y-133125071D01*
X54658108Y-133132456D01*
G37*
G36*
X34305055Y-133137330D02*
G01*
X34579693Y-133180861D01*
X34827594Y-133266090D01*
X35046578Y-133391586D01*
X35234464Y-133555916D01*
X35389070Y-133757649D01*
X35466779Y-133899875D01*
X35558452Y-134147321D01*
X35599712Y-134395774D01*
X35590860Y-134642488D01*
X35532195Y-134884717D01*
X35424016Y-135119717D01*
X35315827Y-135282647D01*
X35143453Y-135471493D01*
X34944448Y-135617050D01*
X34719108Y-135719166D01*
X34467731Y-135777687D01*
X34330481Y-135790651D01*
X34082583Y-135803596D01*
X34082583Y-134699945D01*
X34514612Y-134699945D01*
X34514805Y-134893063D01*
X34516597Y-135043870D01*
X34521192Y-135156634D01*
X34529793Y-135235622D01*
X34543604Y-135285099D01*
X34563828Y-135309334D01*
X34591668Y-135312593D01*
X34628327Y-135299143D01*
X34675010Y-135273251D01*
X34732919Y-135239184D01*
X34734273Y-135238407D01*
X34900117Y-135115904D01*
X35026229Y-134962341D01*
X35111506Y-134779726D01*
X35154846Y-134570067D01*
X35160421Y-134461962D01*
X35157828Y-134343683D01*
X35145342Y-134253529D01*
X35118606Y-134169078D01*
X35091237Y-134106006D01*
X34987404Y-133932015D01*
X34853126Y-133786429D01*
X34697050Y-133677267D01*
X34572022Y-133624472D01*
X34514815Y-133606784D01*
X34514815Y-134460249D01*
X34514612Y-134699945D01*
X34082583Y-134699945D01*
X34082583Y-133120135D01*
X34305055Y-133137330D01*
G37*
G36*
X27166867Y-130044152D02*
G01*
X27067485Y-130060044D01*
X26965389Y-130097134D01*
X26889253Y-130165303D01*
X26848049Y-130253665D01*
X26845822Y-130328924D01*
X26859106Y-130374081D01*
X26888374Y-130424341D01*
X26939470Y-130486994D01*
X27018239Y-130569327D01*
X27111974Y-130660861D01*
X27252459Y-130801238D01*
X27356692Y-130920674D01*
X27429570Y-131028105D01*
X27475991Y-131132465D01*
X27500852Y-131242689D01*
X27509050Y-131367712D01*
X27509147Y-131385486D01*
X27505895Y-131502887D01*
X27493231Y-131591139D01*
X27466836Y-131671689D01*
X27439359Y-131731943D01*
X27333093Y-131896021D01*
X27189797Y-132038504D01*
X27020500Y-132151616D01*
X26836235Y-132227586D01*
X26696572Y-132255337D01*
X26556657Y-132269777D01*
X26556657Y-131836930D01*
X26661027Y-131820240D01*
X26801349Y-131781586D01*
X26915739Y-131709642D01*
X26983861Y-131641583D01*
X27056698Y-131527990D01*
X27084046Y-131409178D01*
X27063983Y-131293696D01*
X27062690Y-131290522D01*
X27033168Y-131242947D01*
X26975327Y-131168354D01*
X26896674Y-131075809D01*
X26804721Y-130974380D01*
X26773066Y-130940848D01*
X26676708Y-130836340D01*
X26589701Y-130735545D01*
X26520110Y-130648264D01*
X26476001Y-130584300D01*
X26469062Y-130571374D01*
X26415086Y-130401993D01*
X26409674Y-130230219D01*
X26451687Y-130064214D01*
X26539987Y-129912138D01*
X26565363Y-129881530D01*
X26664955Y-129790374D01*
X26787083Y-129710971D01*
X26915633Y-129651696D01*
X27034489Y-129620926D01*
X27071522Y-129618439D01*
X27166867Y-129618419D01*
X27166867Y-130044152D01*
G37*
G36*
X48015716Y-169663464D02*
G01*
X47405176Y-169663464D01*
X47411697Y-167801051D01*
X47418218Y-165938639D01*
X48015716Y-165924313D01*
X48015716Y-169663464D01*
G37*
G36*
X42939757Y-10783161D02*
G01*
X43155847Y-10826478D01*
X43350595Y-10894238D01*
X43502703Y-10978116D01*
X43577602Y-11046044D01*
X43612746Y-11113670D01*
X43605526Y-11173307D01*
X43578922Y-11202685D01*
X43538528Y-11221062D01*
X43490874Y-11214848D01*
X43425112Y-11180603D01*
X43352315Y-11130811D01*
X43238919Y-11066146D01*
X43101520Y-11013819D01*
X42951655Y-10975537D01*
X42800861Y-10953006D01*
X42660675Y-10947933D01*
X42542634Y-10962026D01*
X42458275Y-10996991D01*
X42456525Y-10998275D01*
X42385760Y-11075241D01*
X42362454Y-11166644D01*
X42386144Y-11275248D01*
X42403490Y-11313914D01*
X42441442Y-11374060D01*
X42503019Y-11445733D01*
X42593325Y-11534108D01*
X42717460Y-11644362D01*
X42790791Y-11706769D01*
X42931033Y-11827969D01*
X43085593Y-11966558D01*
X43238007Y-12107482D01*
X43371808Y-12235683D01*
X43403076Y-12266631D01*
X43521865Y-12387713D01*
X43610781Y-12485267D01*
X43677939Y-12569573D01*
X43731453Y-12650907D01*
X43779439Y-12739548D01*
X43784457Y-12749635D01*
X43831408Y-12847725D01*
X43860696Y-12923005D01*
X43876472Y-12993987D01*
X43882885Y-13079182D01*
X43884084Y-13194077D01*
X43882496Y-13313826D01*
X43875301Y-13400982D01*
X43858856Y-13473766D01*
X43829516Y-13550397D01*
X43799907Y-13614915D01*
X43681331Y-13808241D01*
X43525088Y-13969019D01*
X43333602Y-14095982D01*
X43109296Y-14187859D01*
X42854596Y-14243385D01*
X42571927Y-14261290D01*
X42564251Y-14261242D01*
X42431629Y-14256520D01*
X42296248Y-14245628D01*
X42180273Y-14230553D01*
X42142865Y-14223491D01*
X41958535Y-14174245D01*
X41795679Y-14112639D01*
X41659571Y-14042168D01*
X41555482Y-13966327D01*
X41488687Y-13888609D01*
X41464456Y-13812510D01*
X41469596Y-13777259D01*
X41504594Y-13737291D01*
X41566679Y-13731014D01*
X41645967Y-13757203D01*
X41725783Y-13809053D01*
X41878231Y-13909842D01*
X42053177Y-13988703D01*
X42241710Y-14044856D01*
X42434921Y-14077518D01*
X42623900Y-14085909D01*
X42799737Y-14069247D01*
X42953522Y-14026751D01*
X43076346Y-13957639D01*
X43107228Y-13930202D01*
X43156989Y-13871150D01*
X43179690Y-13810391D01*
X43184885Y-13728259D01*
X43182591Y-13674530D01*
X43173152Y-13625023D01*
X43152731Y-13575586D01*
X43117493Y-13522064D01*
X43063602Y-13460304D01*
X42987222Y-13386153D01*
X42884517Y-13295457D01*
X42751652Y-13184063D01*
X42584789Y-13047818D01*
X42472973Y-12957429D01*
X42248266Y-12772409D01*
X42062712Y-12610254D01*
X41912757Y-12466222D01*
X41794851Y-12335571D01*
X41705439Y-12213561D01*
X41640970Y-12095448D01*
X41597892Y-11976493D01*
X41572651Y-11851953D01*
X41562785Y-11742598D01*
X41563929Y-11559289D01*
X41590727Y-11408799D01*
X41647343Y-11277860D01*
X41737938Y-11153206D01*
X41753084Y-11136040D01*
X41889033Y-11006690D01*
X42039394Y-10909370D01*
X42214438Y-10839162D01*
X42424438Y-10791149D01*
X42496408Y-10780253D01*
X42715540Y-10766887D01*
X42939757Y-10783161D01*
G37*
G36*
X43057758Y-71953554D02*
G01*
X44176477Y-71953554D01*
X44176477Y-72563764D01*
X42447548Y-72563764D01*
X42447548Y-68851652D01*
X43057758Y-68851652D01*
X43057758Y-71953554D01*
G37*
G36*
X50075175Y-119499099D02*
G01*
X49388689Y-119499099D01*
X49388689Y-122626427D01*
X49100534Y-122626427D01*
X48984213Y-122625013D01*
X48887229Y-122621174D01*
X48820499Y-122615519D01*
X48795429Y-122609477D01*
X48792409Y-122581699D01*
X48789561Y-122507500D01*
X48786934Y-122391306D01*
X48784574Y-122237546D01*
X48782531Y-122050649D01*
X48780852Y-121835043D01*
X48779585Y-121595155D01*
X48778778Y-121335415D01*
X48778479Y-121060251D01*
X48778479Y-119499099D01*
X48091992Y-119499099D01*
X48091992Y-118888889D01*
X50075175Y-118888889D01*
X50075175Y-119499099D01*
G37*
G36*
X51241192Y-192215364D02*
G01*
X51263185Y-192275313D01*
X51294579Y-192366290D01*
X51332521Y-192479532D01*
X51374158Y-192606275D01*
X51416636Y-192737755D01*
X51457100Y-192865210D01*
X51492698Y-192979876D01*
X51520576Y-193072990D01*
X51537879Y-193135788D01*
X51538297Y-193137488D01*
X51555363Y-193207408D01*
X51234788Y-193207408D01*
X51113832Y-193206241D01*
X51013760Y-193203055D01*
X50944159Y-193198318D01*
X50914614Y-193192500D01*
X50914214Y-193191715D01*
X50921560Y-193162804D01*
X50941710Y-193094862D01*
X50971829Y-192996787D01*
X51009085Y-192877480D01*
X51050646Y-192745839D01*
X51093677Y-192610763D01*
X51135346Y-192481152D01*
X51172820Y-192365905D01*
X51203265Y-192273921D01*
X51223849Y-192214099D01*
X51231455Y-192195206D01*
X51241192Y-192215364D01*
G37*
G36*
X36615646Y-70708038D02*
G01*
X36657879Y-70572855D01*
X36709965Y-70405899D01*
X36769290Y-70215564D01*
X36833235Y-70010244D01*
X36899185Y-69798332D01*
X36934893Y-69683523D01*
X37194072Y-68850029D01*
X37730560Y-68864365D01*
X38881974Y-72551051D01*
X38587712Y-72558257D01*
X38468846Y-72560245D01*
X38367952Y-72560210D01*
X38296309Y-72558269D01*
X38266011Y-72554933D01*
X38249767Y-72528266D01*
X38222116Y-72461077D01*
X38186080Y-72361605D01*
X38144679Y-72238087D01*
X38111978Y-72134799D01*
X37985386Y-71725196D01*
X37462480Y-71724961D01*
X36939574Y-71724725D01*
X36806906Y-72144245D01*
X36674238Y-72563764D01*
X36357289Y-72563764D01*
X36237069Y-72562579D01*
X36137788Y-72559342D01*
X36069086Y-72554534D01*
X36040605Y-72548635D01*
X36040340Y-72547988D01*
X36047712Y-72519365D01*
X36067971Y-72451449D01*
X36098330Y-72353322D01*
X36136005Y-72234066D01*
X36151474Y-72185676D01*
X36192905Y-72056350D01*
X36229954Y-71940451D01*
X36259253Y-71848535D01*
X36277432Y-71791158D01*
X36280315Y-71781932D01*
X36286525Y-71742041D01*
X36262589Y-71726785D01*
X36220032Y-71724725D01*
X36142042Y-71724725D01*
X36142042Y-71089089D01*
X36496056Y-71089089D01*
X36506217Y-71056735D01*
X37140609Y-71056735D01*
X37146403Y-71070407D01*
X37180149Y-71079855D01*
X37247985Y-71085695D01*
X37356049Y-71088544D01*
X37462945Y-71089089D01*
X37585561Y-71087740D01*
X37686346Y-71084043D01*
X37756319Y-71078527D01*
X37786502Y-71071722D01*
X37786866Y-71070020D01*
X37776291Y-71040837D01*
X37753252Y-70970853D01*
X37720247Y-70867868D01*
X37679774Y-70739681D01*
X37634330Y-70594092D01*
X37630137Y-70580581D01*
X37584040Y-70433797D01*
X37542130Y-70303774D01*
X37507008Y-70198312D01*
X37481276Y-70125212D01*
X37467538Y-70092274D01*
X37466995Y-70091563D01*
X37454570Y-70108778D01*
X37430013Y-70167691D01*
X37395858Y-70261309D01*
X37354639Y-70382640D01*
X37308889Y-70524690D01*
X37301388Y-70548648D01*
X37254915Y-70697300D01*
X37213111Y-70830324D01*
X37178515Y-70939695D01*
X37153668Y-71017391D01*
X37141108Y-71055385D01*
X37140609Y-71056735D01*
X36506217Y-71056735D01*
X36585885Y-70803053D01*
X36615646Y-70708038D01*
G37*
G36*
X48441592Y-129622781D02*
G01*
X48576084Y-129629649D01*
X48675372Y-129640693D01*
X48755090Y-129658815D01*
X48830869Y-129686917D01*
X48861905Y-129700827D01*
X49037485Y-129807199D01*
X49197089Y-129951815D01*
X49328388Y-130122199D01*
X49390254Y-130235485D01*
X49433879Y-130336110D01*
X49459400Y-130417831D01*
X49471450Y-130502600D01*
X49474661Y-130612367D01*
X49474661Y-130635436D01*
X49456867Y-130848818D01*
X49401709Y-131035929D01*
X49304913Y-131209107D01*
X49251500Y-131279809D01*
X49173458Y-131364029D01*
X49078958Y-131448702D01*
X48982586Y-131522105D01*
X48898931Y-131572513D01*
X48874420Y-131582885D01*
X48864523Y-131603093D01*
X48892992Y-131637267D01*
X48951509Y-131679208D01*
X49031759Y-131722717D01*
X49103178Y-131753405D01*
X49211304Y-131787382D01*
X49329710Y-131813989D01*
X49376501Y-131821058D01*
X49515816Y-131837432D01*
X49515816Y-132262663D01*
X49394031Y-132262663D01*
X49297088Y-132255695D01*
X49184839Y-132237921D01*
X49126888Y-132224802D01*
X49035524Y-132195955D01*
X48932590Y-132155764D01*
X48830949Y-132110230D01*
X48743461Y-132065357D01*
X48682989Y-132027146D01*
X48664416Y-132008978D01*
X48635579Y-131981844D01*
X48614343Y-132002134D01*
X48602442Y-132066758D01*
X48600501Y-132122823D01*
X48600501Y-132262663D01*
X48168268Y-132262663D01*
X48168268Y-131223647D01*
X48600501Y-131223647D01*
X48657708Y-131205886D01*
X48720350Y-131178089D01*
X48782831Y-131140304D01*
X48905240Y-131025979D01*
X48992078Y-130885537D01*
X49038887Y-130729787D01*
X49041209Y-130569540D01*
X49034393Y-130530398D01*
X49002905Y-130431149D01*
X48956455Y-130334223D01*
X48937069Y-130303916D01*
X48877219Y-130235358D01*
X48801197Y-130168194D01*
X48723151Y-130113044D01*
X48657230Y-130080528D01*
X48633549Y-130076076D01*
X48622471Y-130086077D01*
X48614022Y-130119537D01*
X48607903Y-130181646D01*
X48603816Y-130277593D01*
X48601462Y-130412565D01*
X48600542Y-130591753D01*
X48600501Y-130649862D01*
X48600501Y-131223647D01*
X48168268Y-131223647D01*
X48168268Y-129612793D01*
X48441592Y-129622781D01*
G37*
G36*
X31556730Y-129490527D02*
G01*
X31558616Y-129561448D01*
X31560344Y-129674040D01*
X31561880Y-129823713D01*
X31563188Y-130005878D01*
X31564233Y-130215943D01*
X31564980Y-130449320D01*
X31565393Y-130701418D01*
X31565466Y-130864265D01*
X31565466Y-132262663D01*
X31133845Y-132262663D01*
X31120521Y-130348283D01*
X30929830Y-130499457D01*
X30844185Y-130566827D01*
X30771922Y-130622701D01*
X30723413Y-130659107D01*
X30710746Y-130667865D01*
X30680354Y-130660126D01*
X30620246Y-130625766D01*
X30539826Y-130570654D01*
X30469204Y-130517159D01*
X30256056Y-130349218D01*
X30249394Y-131305940D01*
X30242732Y-132262663D01*
X29811111Y-132262663D01*
X29811111Y-130864265D01*
X29811331Y-130602907D01*
X29811963Y-130357440D01*
X29812967Y-130132452D01*
X29814302Y-129932534D01*
X29815926Y-129762277D01*
X29817799Y-129626269D01*
X29819880Y-129529100D01*
X29822128Y-129475361D01*
X29823580Y-129465866D01*
X29846372Y-129480884D01*
X29902978Y-129522859D01*
X29987356Y-129587170D01*
X30093459Y-129669199D01*
X30215244Y-129764325D01*
X30256056Y-129796397D01*
X30381540Y-129894703D01*
X30493251Y-129981374D01*
X30585146Y-130051788D01*
X30651180Y-130101328D01*
X30685310Y-130125372D01*
X30688492Y-130126927D01*
X30711296Y-130111942D01*
X30767970Y-130070056D01*
X30852470Y-130005873D01*
X30958751Y-129923997D01*
X31080769Y-129829031D01*
X31122449Y-129796397D01*
X31248141Y-129698220D01*
X31359918Y-129611641D01*
X31451761Y-129541259D01*
X31517656Y-129491676D01*
X31551585Y-129467490D01*
X31554722Y-129465866D01*
X31556730Y-129490527D01*
G37*
G36*
X28120978Y-130761565D02*
G01*
X28173131Y-130594259D01*
X28230427Y-130409908D01*
X28287961Y-130224288D01*
X28327881Y-130095146D01*
X28475033Y-129618419D01*
X28861229Y-129618419D01*
X29262752Y-130907771D01*
X29339525Y-131154163D01*
X29411951Y-131386332D01*
X29478584Y-131599665D01*
X29537980Y-131789550D01*
X29588694Y-131951373D01*
X29629282Y-132080523D01*
X29658297Y-132172386D01*
X29674297Y-132222350D01*
X29676849Y-132229893D01*
X29671321Y-132246030D01*
X29635142Y-132256171D01*
X29561353Y-132261362D01*
X29458435Y-132262663D01*
X29227445Y-132262663D01*
X29133177Y-131957558D01*
X29038910Y-131652453D01*
X28676461Y-131652453D01*
X28545835Y-131653969D01*
X28434100Y-131658135D01*
X28350745Y-131664378D01*
X28305256Y-131672121D01*
X28299931Y-131675236D01*
X28287080Y-131707441D01*
X28262912Y-131777508D01*
X28231040Y-131874687D01*
X28199525Y-131973985D01*
X28113199Y-132249950D01*
X27878473Y-132257302D01*
X27764997Y-132259362D01*
X27694966Y-132256369D01*
X27661149Y-132247490D01*
X27656317Y-132231895D01*
X27656367Y-132231762D01*
X27676119Y-132175770D01*
X27703784Y-132091703D01*
X27735556Y-131991857D01*
X27767627Y-131888530D01*
X27796190Y-131794017D01*
X27817440Y-131720617D01*
X27827570Y-131680625D01*
X27827928Y-131677574D01*
X27806630Y-131657163D01*
X27777077Y-131652453D01*
X27752352Y-131648431D01*
X27737249Y-131629737D01*
X27729430Y-131586428D01*
X27726553Y-131508560D01*
X27726226Y-131436337D01*
X27726226Y-131220221D01*
X27977019Y-131220221D01*
X27987005Y-131188439D01*
X28443473Y-131188439D01*
X28451460Y-131204276D01*
X28492616Y-131214223D01*
X28573320Y-131219199D01*
X28664247Y-131220221D01*
X28765673Y-131218659D01*
X28844523Y-131214472D01*
X28889517Y-131208409D01*
X28895796Y-131204860D01*
X28888442Y-131170651D01*
X28868657Y-131101209D01*
X28839854Y-131007008D01*
X28805447Y-130898520D01*
X28768848Y-130786219D01*
X28733473Y-130680580D01*
X28702733Y-130592075D01*
X28680044Y-130531177D01*
X28668818Y-130508362D01*
X28668791Y-130508361D01*
X28656384Y-130531253D01*
X28632588Y-130593927D01*
X28600565Y-130687437D01*
X28563474Y-130802839D01*
X28554251Y-130832535D01*
X28516337Y-130955192D01*
X28483325Y-131061569D01*
X28458362Y-131141558D01*
X28444593Y-131185048D01*
X28443473Y-131188439D01*
X27987005Y-131188439D01*
X28078873Y-130896046D01*
X28120978Y-130761565D01*
G37*
G36*
X52388889Y-119499099D02*
G01*
X51092192Y-119499099D01*
X51092192Y-119702503D01*
X52414314Y-119702503D01*
X52414314Y-120312713D01*
X51092192Y-120312713D01*
X51092192Y-120628266D01*
X51098097Y-120832715D01*
X51117853Y-120999938D01*
X51154520Y-121142401D01*
X51211158Y-121272573D01*
X51277532Y-121383230D01*
X51442795Y-121587250D01*
X51639983Y-121752818D01*
X51865262Y-121877637D01*
X52114799Y-121959409D01*
X52287187Y-121988281D01*
X52427027Y-122003504D01*
X52427027Y-122613714D01*
X52338038Y-122617311D01*
X52260052Y-122615870D01*
X52161150Y-122608176D01*
X52109209Y-122602088D01*
X51810842Y-122537119D01*
X51531806Y-122426863D01*
X51275813Y-122274425D01*
X51046576Y-122082910D01*
X50847806Y-121855424D01*
X50683216Y-121595072D01*
X50556518Y-121304958D01*
X50555654Y-121302490D01*
X50532042Y-121225739D01*
X50514532Y-121143553D01*
X50501736Y-121044893D01*
X50492266Y-120918720D01*
X50484734Y-120753996D01*
X50483934Y-120732233D01*
X50469269Y-120325426D01*
X50361211Y-120317608D01*
X50253153Y-120309789D01*
X50253153Y-119702503D01*
X50481982Y-119702503D01*
X50481982Y-118888889D01*
X52388889Y-118888889D01*
X52388889Y-119499099D01*
G37*
G36*
X46788353Y-118927027D02*
G01*
X47335389Y-118927027D01*
X47903759Y-120744945D01*
X47995303Y-121038146D01*
X48082298Y-121317553D01*
X48163563Y-121579324D01*
X48237916Y-121819617D01*
X48304177Y-122034590D01*
X48361162Y-122220401D01*
X48407693Y-122373208D01*
X48442586Y-122489170D01*
X48464661Y-122564444D01*
X48472736Y-122595188D01*
X48472751Y-122595428D01*
X48461221Y-122609490D01*
X48421622Y-122618280D01*
X48347407Y-122622335D01*
X48232030Y-122622191D01*
X48162926Y-122620853D01*
X47852479Y-122613714D01*
X47820604Y-122524725D01*
X47801203Y-122467479D01*
X47770648Y-122373745D01*
X47732832Y-122255606D01*
X47691648Y-122125148D01*
X47683415Y-122098849D01*
X47578101Y-121761962D01*
X46545096Y-121761962D01*
X46427776Y-122136987D01*
X46376984Y-122302242D01*
X46338440Y-122425885D01*
X46306414Y-122513873D01*
X46275175Y-122572161D01*
X46238991Y-122606705D01*
X46192133Y-122623459D01*
X46128869Y-122628380D01*
X46043469Y-122627423D01*
X45956801Y-122626427D01*
X45827213Y-122625753D01*
X45740224Y-122622929D01*
X45687594Y-122616751D01*
X45661081Y-122606017D01*
X45652441Y-122589521D01*
X45652120Y-122581932D01*
X45660064Y-122543290D01*
X45681347Y-122465847D01*
X45713192Y-122359033D01*
X45752828Y-122232278D01*
X45777407Y-122156056D01*
X45901724Y-121774675D01*
X45827289Y-121766708D01*
X45752853Y-121758741D01*
X45752853Y-121154076D01*
X45924475Y-121146557D01*
X46096096Y-121139039D01*
X46102064Y-121119970D01*
X46744811Y-121119970D01*
X46758576Y-121134058D01*
X46804086Y-121143645D01*
X46887092Y-121149309D01*
X47013346Y-121151624D01*
X47062262Y-121151752D01*
X47182724Y-121150322D01*
X47282323Y-121146419D01*
X47351412Y-121140619D01*
X47380338Y-121133501D01*
X47380654Y-121132683D01*
X47373530Y-121103740D01*
X47353298Y-121033777D01*
X47322207Y-120930255D01*
X47282504Y-120800630D01*
X47236437Y-120652361D01*
X47222214Y-120606960D01*
X47063201Y-120100306D01*
X46904189Y-120594247D01*
X46856005Y-120745366D01*
X46813654Y-120880956D01*
X46779495Y-120993233D01*
X46755889Y-121074412D01*
X46745196Y-121116708D01*
X46744811Y-121119970D01*
X46102064Y-121119970D01*
X46442225Y-120033033D01*
X46788353Y-118927027D01*
G37*
G36*
X47663880Y-133265704D02*
G01*
X47813739Y-133338341D01*
X47922134Y-133427439D01*
X47992268Y-133500643D01*
X47857796Y-133614434D01*
X47769649Y-133688052D01*
X47710351Y-133732140D01*
X47670109Y-133750221D01*
X47639127Y-133745819D01*
X47607614Y-133722459D01*
X47593619Y-133709491D01*
X47510125Y-133659248D01*
X47421654Y-133650026D01*
X47340415Y-133677253D01*
X47278615Y-133736354D01*
X47248462Y-133822755D01*
X47247378Y-133839211D01*
X47266497Y-133918988D01*
X47318640Y-133989315D01*
X47389235Y-134034269D01*
X47433377Y-134042443D01*
X47458153Y-134046284D01*
X47472525Y-134064575D01*
X47478605Y-134107471D01*
X47478502Y-134185124D01*
X47476454Y-134249717D01*
X47469069Y-134456991D01*
X47368125Y-134491866D01*
X47232149Y-134562756D01*
X47130201Y-134666109D01*
X47067677Y-134794653D01*
X47049550Y-134921252D01*
X47072962Y-135063731D01*
X47138019Y-135187072D01*
X47236956Y-135283484D01*
X47362004Y-135345173D01*
X47491385Y-135364565D01*
X47618699Y-135346249D01*
X47741229Y-135297173D01*
X47837529Y-135226142D01*
X47843125Y-135220144D01*
X47877075Y-135171815D01*
X47912366Y-135105901D01*
X47941716Y-135038663D01*
X47957840Y-134986364D01*
X47956707Y-134966550D01*
X47936255Y-134977730D01*
X47897302Y-135019251D01*
X47849426Y-135079060D01*
X47802204Y-135145102D01*
X47765213Y-135205322D01*
X47761697Y-135212012D01*
X47735357Y-135261452D01*
X47721194Y-135284856D01*
X47698199Y-135277052D01*
X47643775Y-135251290D01*
X47570910Y-135214360D01*
X47492596Y-135173054D01*
X47421822Y-135134164D01*
X47371578Y-135104483D01*
X47357740Y-135094828D01*
X47365170Y-135071113D01*
X47394189Y-135017552D01*
X47430717Y-134958092D01*
X47570451Y-134782282D01*
X47748688Y-134623582D01*
X47953957Y-134489693D01*
X48174788Y-134388316D01*
X48358959Y-134334947D01*
X48483688Y-134309035D01*
X48566766Y-134297021D01*
X48616635Y-134304040D01*
X48641734Y-134335226D01*
X48650502Y-134395712D01*
X48651380Y-134490634D01*
X48651351Y-134512813D01*
X48651351Y-134728929D01*
X48368556Y-134728929D01*
X48385190Y-134839855D01*
X48386581Y-134954613D01*
X48364991Y-135090833D01*
X48325428Y-135227523D01*
X48272902Y-135343689D01*
X48260000Y-135364565D01*
X48137258Y-135513983D01*
X47986035Y-135642016D01*
X47867556Y-135712790D01*
X47726941Y-135761893D01*
X47564834Y-135787527D01*
X47402391Y-135787998D01*
X47260772Y-135761612D01*
X47260226Y-135761434D01*
X47058939Y-135671777D01*
X46892697Y-135545382D01*
X46760394Y-135381272D01*
X46696715Y-135264023D01*
X46661558Y-135178156D01*
X46641304Y-135095728D01*
X46632246Y-134996717D01*
X46630581Y-134906907D01*
X46632880Y-134788972D01*
X46642969Y-134702352D01*
X46664559Y-134627675D01*
X46698866Y-134550634D01*
X46753106Y-134456660D01*
X46817636Y-134367481D01*
X46855776Y-134325110D01*
X46943851Y-134239745D01*
X46891003Y-134138353D01*
X46840626Y-133994146D01*
X46824646Y-133832968D01*
X46845213Y-133677164D01*
X46846270Y-133673334D01*
X46900646Y-133553492D01*
X46989949Y-133435250D01*
X47100312Y-133334535D01*
X47188742Y-133279993D01*
X47339011Y-133234043D01*
X47501514Y-133230109D01*
X47663880Y-133265704D01*
G37*
G36*
X48759656Y-68852213D02*
G01*
X48858959Y-68853744D01*
X48927683Y-68856018D01*
X48956189Y-68858809D01*
X48956457Y-68859117D01*
X48949013Y-68883960D01*
X48927464Y-68953559D01*
X48892983Y-69064168D01*
X48846746Y-69212044D01*
X48789925Y-69393440D01*
X48723695Y-69604611D01*
X48649231Y-69841812D01*
X48567705Y-70101298D01*
X48480291Y-70379323D01*
X48388165Y-70672144D01*
X48376623Y-70708816D01*
X47796790Y-72551051D01*
X47525876Y-72558258D01*
X47254961Y-72565464D01*
X47177490Y-72316716D01*
X47156329Y-72249042D01*
X47121421Y-72137730D01*
X47074294Y-71987647D01*
X47016478Y-71803657D01*
X46949504Y-71590625D01*
X46874899Y-71353416D01*
X46794195Y-71096895D01*
X46708920Y-70825926D01*
X46620603Y-70545375D01*
X46595665Y-70466167D01*
X46091311Y-68864365D01*
X46384616Y-68857159D01*
X46503309Y-68855175D01*
X46604042Y-68855229D01*
X46675508Y-68857202D01*
X46705525Y-68860547D01*
X46718186Y-68886181D01*
X46744263Y-68955857D01*
X46782247Y-69065004D01*
X46830628Y-69209053D01*
X46887895Y-69383435D01*
X46952537Y-69583579D01*
X47023046Y-69804917D01*
X47097910Y-70042878D01*
X47125566Y-70131507D01*
X47201121Y-70373489D01*
X47272218Y-70599889D01*
X47337422Y-70806232D01*
X47395301Y-70988045D01*
X47444422Y-71140855D01*
X47483352Y-71260188D01*
X47510657Y-71341571D01*
X47524904Y-71380530D01*
X47526589Y-71383288D01*
X47535799Y-71357919D01*
X47558376Y-71289277D01*
X47592640Y-71182657D01*
X47636907Y-71043357D01*
X47689496Y-70876677D01*
X47748725Y-70687913D01*
X47812911Y-70482363D01*
X47826928Y-70437351D01*
X47896953Y-70212455D01*
X47966578Y-69988994D01*
X48033327Y-69774906D01*
X48094724Y-69578128D01*
X48148291Y-69406598D01*
X48191553Y-69268254D01*
X48220526Y-69175826D01*
X48322371Y-68851652D01*
X48639414Y-68851652D01*
X48759656Y-68852213D01*
G37*
G36*
X51784471Y-200991651D02*
G01*
X51925372Y-200992743D01*
X52029701Y-200994355D01*
X52092402Y-200996462D01*
X52109209Y-200998553D01*
X52100493Y-201023048D01*
X52075531Y-201090377D01*
X52036106Y-201195827D01*
X51983997Y-201334684D01*
X51920986Y-201502234D01*
X51848853Y-201693763D01*
X51769381Y-201904557D01*
X51684350Y-202129902D01*
X51595541Y-202365086D01*
X51504735Y-202605393D01*
X51413714Y-202846109D01*
X51324258Y-203082522D01*
X51238148Y-203309917D01*
X51157165Y-203523579D01*
X51083091Y-203718797D01*
X51017707Y-203890854D01*
X50962793Y-204035038D01*
X50920131Y-204146635D01*
X50899107Y-204201296D01*
X50895165Y-204216077D01*
X50899986Y-204227313D01*
X50919237Y-204235325D01*
X50958580Y-204240433D01*
X51023683Y-204242958D01*
X51120209Y-204243219D01*
X51253823Y-204241538D01*
X51430192Y-204238234D01*
X51519916Y-204236408D01*
X51729296Y-204232558D01*
X51892975Y-204231068D01*
X52016075Y-204232616D01*
X52103720Y-204237881D01*
X52161032Y-204247541D01*
X52193133Y-204262274D01*
X52205145Y-204282760D01*
X52202192Y-204309676D01*
X52196599Y-204326032D01*
X52185223Y-204346752D01*
X52165601Y-204364209D01*
X52133653Y-204378678D01*
X52085302Y-204390436D01*
X52016468Y-204399758D01*
X51923071Y-204406921D01*
X51801034Y-204412198D01*
X51646278Y-204415867D01*
X51454723Y-204418203D01*
X51222291Y-204419482D01*
X50944902Y-204419978D01*
X50805998Y-204420020D01*
X50515337Y-204419769D01*
X50272014Y-204418955D01*
X50072517Y-204417484D01*
X49913335Y-204415264D01*
X49790957Y-204412203D01*
X49701871Y-204408208D01*
X49642567Y-204403187D01*
X49609534Y-204397047D01*
X49599259Y-204389696D01*
X49599555Y-204388239D01*
X49627980Y-204317145D01*
X49670846Y-204208464D01*
X49726327Y-204066921D01*
X49792593Y-203897240D01*
X49867817Y-203704144D01*
X49950171Y-203492357D01*
X50037827Y-203266604D01*
X50128958Y-203031608D01*
X50221736Y-202792093D01*
X50314332Y-202552784D01*
X50404918Y-202318404D01*
X50491668Y-202093678D01*
X50572753Y-201883329D01*
X50646345Y-201692081D01*
X50710616Y-201524658D01*
X50763739Y-201385785D01*
X50803885Y-201280186D01*
X50829227Y-201212584D01*
X50837938Y-201187729D01*
X50814173Y-201178596D01*
X50749381Y-201172071D01*
X50653317Y-201168107D01*
X50535735Y-201166660D01*
X50406391Y-201167686D01*
X50275039Y-201171140D01*
X50151435Y-201176978D01*
X50045331Y-201185154D01*
X49991068Y-201191600D01*
X49861774Y-201202838D01*
X49775606Y-201192058D01*
X49729451Y-201158406D01*
X49719219Y-201116934D01*
X49720325Y-201090415D01*
X49726446Y-201068241D01*
X49741790Y-201049991D01*
X49770565Y-201035244D01*
X49816978Y-201023578D01*
X49885236Y-201014571D01*
X49979547Y-201007801D01*
X50104118Y-201002847D01*
X50263157Y-200999287D01*
X50460871Y-200996700D01*
X50701466Y-200994663D01*
X50956233Y-200992965D01*
X51192878Y-200991735D01*
X51413170Y-200991122D01*
X51612052Y-200991102D01*
X51784471Y-200991651D01*
G37*
G36*
X45879980Y-69461862D02*
G01*
X44557858Y-69461862D01*
X44557858Y-69665266D01*
X45905406Y-69665266D01*
X45905406Y-70275476D01*
X44557858Y-70275476D01*
X44559324Y-70548799D01*
X44575508Y-70814417D01*
X44622787Y-71044618D01*
X44703850Y-71246160D01*
X44821382Y-71425801D01*
X44970729Y-71583664D01*
X45122883Y-71699945D01*
X45301866Y-71801245D01*
X45492925Y-71881351D01*
X45681303Y-71934050D01*
X45848198Y-71953112D01*
X45872305Y-71955211D01*
X45888465Y-71966720D01*
X45898267Y-71996123D01*
X45903298Y-72051902D01*
X45905148Y-72142540D01*
X45905406Y-72258659D01*
X45905406Y-72563764D01*
X45746497Y-72561743D01*
X45627318Y-72554354D01*
X45498688Y-72537725D01*
X45435035Y-72525643D01*
X45138809Y-72434384D01*
X44867379Y-72299298D01*
X44622835Y-72122058D01*
X44407269Y-71904339D01*
X44222770Y-71647813D01*
X44130658Y-71481583D01*
X44069954Y-71347812D01*
X44024900Y-71215298D01*
X43992901Y-71071742D01*
X43971360Y-70904849D01*
X43957681Y-70702323D01*
X43955470Y-70651785D01*
X43940352Y-70278043D01*
X43731532Y-70262763D01*
X43724368Y-69964014D01*
X43717205Y-69665266D01*
X43947648Y-69665266D01*
X43947648Y-68851652D01*
X45879980Y-68851652D01*
X45879980Y-69461862D01*
G37*
G36*
X39308261Y-200983305D02*
G01*
X39371071Y-201011923D01*
X39371071Y-201898065D01*
X39467471Y-201885135D01*
X39545113Y-201883669D01*
X39592977Y-201907949D01*
X39599481Y-201915111D01*
X39620117Y-201968461D01*
X39593266Y-202016127D01*
X39522265Y-202053981D01*
X39476881Y-202066695D01*
X39371071Y-202090648D01*
X39371071Y-203228093D01*
X39370903Y-203501603D01*
X39370299Y-203728687D01*
X39369109Y-203913769D01*
X39367183Y-204061270D01*
X39364371Y-204175616D01*
X39360522Y-204261230D01*
X39355487Y-204322535D01*
X39349115Y-204363954D01*
X39341257Y-204389912D01*
X39331761Y-204404832D01*
X39331117Y-204405492D01*
X39271317Y-204442239D01*
X39208811Y-204429957D01*
X39198003Y-204423593D01*
X39189913Y-204409360D01*
X39183218Y-204375282D01*
X39177815Y-204317510D01*
X39173603Y-204232193D01*
X39170481Y-204115479D01*
X39168347Y-203963520D01*
X39167100Y-203772465D01*
X39166639Y-203538463D01*
X39166863Y-203257664D01*
X39166891Y-203241700D01*
X39169008Y-202080881D01*
X37972673Y-202080881D01*
X37972673Y-204420020D01*
X36726469Y-204420020D01*
X36733004Y-202710161D01*
X36739540Y-201000301D01*
X37959960Y-201000301D01*
X37973846Y-201902903D01*
X39167668Y-201902903D01*
X39167668Y-201461072D01*
X39168366Y-201295786D01*
X39170850Y-201174260D01*
X39175697Y-201089417D01*
X39183491Y-201034180D01*
X39194810Y-201001471D01*
X39206559Y-200986963D01*
X39251096Y-200967656D01*
X39308261Y-200983305D01*
G37*
G36*
X66144044Y-17899099D02*
G01*
X16081382Y-17899099D01*
X16081382Y-17110911D01*
X66144044Y-17110911D01*
X66144044Y-17899099D01*
G37*
G36*
X33567735Y-120155371D02*
G01*
X33684666Y-119883155D01*
X33845743Y-119633922D01*
X34049453Y-119410447D01*
X34294280Y-119215502D01*
X34326197Y-119194258D01*
X34589584Y-119050420D01*
X34861775Y-118954002D01*
X35138371Y-118903315D01*
X35414972Y-118896674D01*
X35687181Y-118932390D01*
X35950597Y-119008776D01*
X36200823Y-119124144D01*
X36433458Y-119276807D01*
X36644104Y-119465078D01*
X36828362Y-119687269D01*
X36981833Y-119941692D01*
X37100118Y-120226661D01*
X37111717Y-120262758D01*
X37153323Y-120451027D01*
X37173160Y-120666289D01*
X37171219Y-120889581D01*
X37147493Y-121101936D01*
X37112130Y-121253454D01*
X36997860Y-121539483D01*
X36835590Y-121813422D01*
X36738497Y-121942906D01*
X36541320Y-122148250D01*
X36311021Y-122320077D01*
X36055144Y-122455400D01*
X35781232Y-122551235D01*
X35496828Y-122604595D01*
X35209476Y-122612495D01*
X35078274Y-122600027D01*
X34791049Y-122537376D01*
X34523235Y-122429318D01*
X34272189Y-122274493D01*
X34035268Y-122071543D01*
X34019019Y-122055373D01*
X33817227Y-121825215D01*
X33663935Y-121586768D01*
X33556877Y-121334650D01*
X33493786Y-121063479D01*
X33472394Y-120767874D01*
X33472372Y-120757658D01*
X33479016Y-120672211D01*
X34073125Y-120672211D01*
X34077272Y-120895112D01*
X34121494Y-121108894D01*
X34202238Y-121309370D01*
X34315950Y-121492352D01*
X34459079Y-121653653D01*
X34628069Y-121789084D01*
X34819370Y-121894458D01*
X35029427Y-121965587D01*
X35254687Y-121998282D01*
X35491598Y-121988357D01*
X35671672Y-121951290D01*
X35864346Y-121874767D01*
X36052039Y-121757547D01*
X36222813Y-121609307D01*
X36364730Y-121439724D01*
X36427241Y-121338871D01*
X36520263Y-121117775D01*
X36566452Y-120890878D01*
X36568542Y-120663724D01*
X36529271Y-120441854D01*
X36451373Y-120230812D01*
X36337586Y-120036139D01*
X36190644Y-119863378D01*
X36013285Y-119718071D01*
X35808243Y-119605760D01*
X35578256Y-119531989D01*
X35530627Y-119522547D01*
X35292963Y-119504954D01*
X35058986Y-119534756D01*
X34835187Y-119608573D01*
X34628055Y-119723024D01*
X34444081Y-119874732D01*
X34289754Y-120060315D01*
X34199268Y-120215809D01*
X34112606Y-120444381D01*
X34073125Y-120672211D01*
X33479016Y-120672211D01*
X33496466Y-120447796D01*
X33567735Y-120155371D01*
G37*
G36*
X46628549Y-157388482D02*
G01*
X46634985Y-157153735D01*
X46645537Y-156940178D01*
X46660205Y-156758079D01*
X46676363Y-156632933D01*
X46791917Y-156053136D01*
X46941770Y-155507332D01*
X47128234Y-154989989D01*
X47353615Y-154495573D01*
X47620224Y-154018553D01*
X47930370Y-153553394D01*
X48002696Y-153454755D01*
X48310258Y-153068550D01*
X48634308Y-152716029D01*
X48985673Y-152386393D01*
X49375183Y-152068846D01*
X49447293Y-152014299D01*
X49932278Y-151682445D01*
X50439433Y-151395228D01*
X50965813Y-151153070D01*
X51508475Y-150956392D01*
X52064475Y-150805614D01*
X52630870Y-150701157D01*
X53204716Y-150643443D01*
X53783069Y-150632891D01*
X54362986Y-150669923D01*
X54941523Y-150754960D01*
X55515736Y-150888422D01*
X56072812Y-151067107D01*
X56227644Y-151128683D01*
X56413216Y-151210188D01*
X56616707Y-151305317D01*
X56825296Y-151407767D01*
X57026161Y-151511232D01*
X57206480Y-151609408D01*
X57353434Y-151695991D01*
X57359560Y-151699829D01*
X57775457Y-151986423D01*
X58182579Y-152315549D01*
X58572739Y-152678966D01*
X58937748Y-153068433D01*
X59269417Y-153475710D01*
X59559558Y-153892556D01*
X59595990Y-153950551D01*
X59877977Y-154448783D01*
X60115763Y-154963411D01*
X60310853Y-155498643D01*
X60464753Y-156058688D01*
X60578969Y-156647755D01*
X60592151Y-156734635D01*
X60612451Y-156915741D01*
X60627030Y-157134894D01*
X60635888Y-157379612D01*
X60639024Y-157637412D01*
X60636439Y-157895814D01*
X60628133Y-158142336D01*
X60614105Y-158364496D01*
X60594356Y-158549813D01*
X60592151Y-158565266D01*
X60480896Y-159170686D01*
X60328606Y-159746695D01*
X60134375Y-160295112D01*
X59897301Y-160817752D01*
X59616479Y-161316434D01*
X59291007Y-161792975D01*
X58919980Y-162249191D01*
X58581459Y-162609050D01*
X58271689Y-162905446D01*
X57971228Y-163164092D01*
X57668245Y-163393487D01*
X57350911Y-163602132D01*
X57007397Y-163798524D01*
X56723924Y-163943647D01*
X56376034Y-164106010D01*
X56048431Y-164240027D01*
X55723933Y-164351728D01*
X55385356Y-164447142D01*
X55094895Y-164515347D01*
X54752389Y-164578095D01*
X54380571Y-164625349D01*
X53996621Y-164655901D01*
X53617719Y-164668545D01*
X53261043Y-164662073D01*
X53126226Y-164653691D01*
X52527916Y-164582811D01*
X51945004Y-164464247D01*
X51379653Y-164299414D01*
X50834026Y-164089725D01*
X50310285Y-163836594D01*
X49810594Y-163541437D01*
X49337116Y-163205668D01*
X48892014Y-162830701D01*
X48477451Y-162417949D01*
X48095590Y-161968829D01*
X47748594Y-161484753D01*
X47438625Y-160967136D01*
X47411636Y-160917118D01*
X47176851Y-160426649D01*
X46978145Y-159901387D01*
X46816020Y-159342873D01*
X46690981Y-158752651D01*
X46676363Y-158666967D01*
X46658105Y-158520701D01*
X46643962Y-158334019D01*
X46633935Y-158117188D01*
X46628024Y-157880476D01*
X46626343Y-157649950D01*
X46642805Y-157649950D01*
X46666976Y-158253680D01*
X46739538Y-158841909D01*
X46860558Y-159414842D01*
X47030105Y-159972686D01*
X47248249Y-160515647D01*
X47515058Y-161043930D01*
X47830601Y-161557742D01*
X48057807Y-161878615D01*
X48182140Y-162034555D01*
X48337370Y-162212463D01*
X48514283Y-162403052D01*
X48703667Y-162597034D01*
X48896307Y-162785122D01*
X49082990Y-162958028D01*
X49254502Y-163106465D01*
X49356470Y-163187702D01*
X49853885Y-163535145D01*
X50370844Y-163835879D01*
X50905804Y-164089469D01*
X51457222Y-164295478D01*
X52023557Y-164453471D01*
X52603265Y-164563011D01*
X53194803Y-164623663D01*
X53796629Y-164634992D01*
X54359359Y-164601351D01*
X54931102Y-164520874D01*
X55488919Y-164392935D01*
X56030484Y-164219581D01*
X56553469Y-164002859D01*
X57055548Y-163744818D01*
X57534394Y-163447505D01*
X57987680Y-163112967D01*
X58413079Y-162743252D01*
X58808265Y-162340409D01*
X59170910Y-161906484D01*
X59498687Y-161443526D01*
X59789271Y-160953582D01*
X60040333Y-160438699D01*
X60249547Y-159900925D01*
X60414586Y-159342309D01*
X60436124Y-159253732D01*
X60498128Y-158969484D01*
X60544770Y-158701605D01*
X60577617Y-158435616D01*
X60598237Y-158157039D01*
X60608197Y-157851396D01*
X60609708Y-157649950D01*
X60605341Y-157320536D01*
X60591201Y-157026876D01*
X60565727Y-156754540D01*
X60527359Y-156489099D01*
X60474538Y-156216122D01*
X60436545Y-156048149D01*
X60276764Y-155480939D01*
X60071053Y-154932811D01*
X59821485Y-154406269D01*
X59530129Y-153903818D01*
X59199056Y-153427962D01*
X58830338Y-152981205D01*
X58426044Y-152566052D01*
X57988247Y-152185008D01*
X57519015Y-151840576D01*
X57020422Y-151535262D01*
X56494536Y-151271570D01*
X56482635Y-151266238D01*
X55967727Y-151061379D01*
X55422926Y-150893978D01*
X54845466Y-150763226D01*
X54646324Y-150727825D01*
X54552650Y-150714172D01*
X54450297Y-150703530D01*
X54331925Y-150695587D01*
X54190190Y-150690035D01*
X54017754Y-150686561D01*
X53807273Y-150684858D01*
X53622022Y-150684554D01*
X53394606Y-150684993D01*
X53209836Y-150686453D01*
X53059509Y-150689364D01*
X52935425Y-150694157D01*
X52829382Y-150701261D01*
X52733178Y-150711107D01*
X52638611Y-150724124D01*
X52537480Y-150740743D01*
X52531908Y-150741711D01*
X51933045Y-150868850D01*
X51362356Y-151037516D01*
X50817015Y-151248930D01*
X50294192Y-151504312D01*
X49791058Y-151804883D01*
X49356470Y-152112198D01*
X49200300Y-152239013D01*
X49022778Y-152396527D01*
X48833117Y-152575455D01*
X48640532Y-152766508D01*
X48454235Y-152960399D01*
X48283440Y-153147840D01*
X48137361Y-153319544D01*
X48057807Y-153421286D01*
X47711084Y-153925957D01*
X47413139Y-154444969D01*
X47163903Y-154978526D01*
X46963308Y-155526835D01*
X46811284Y-156090101D01*
X46707762Y-156668532D01*
X46652675Y-157262331D01*
X46642805Y-157649950D01*
X46626343Y-157649950D01*
X46626228Y-157634152D01*
X46628549Y-157388482D01*
G37*
G36*
X30713714Y-165938639D02*
G01*
X30726427Y-166229487D01*
X30739139Y-166520334D01*
X30991916Y-166242199D01*
X31083027Y-166142657D01*
X31163322Y-166056257D01*
X31226023Y-165990194D01*
X31264349Y-165951662D01*
X31271596Y-165945385D01*
X31306922Y-165937420D01*
X31379663Y-165931652D01*
X31479218Y-165928016D01*
X31594986Y-165926445D01*
X31716364Y-165926876D01*
X31832752Y-165929242D01*
X31933547Y-165933477D01*
X32008148Y-165939518D01*
X32045953Y-165947298D01*
X32048549Y-165950173D01*
X32032359Y-165975715D01*
X31987183Y-166032923D01*
X31918109Y-166115720D01*
X31830227Y-166218029D01*
X31728625Y-166333771D01*
X31706263Y-166358944D01*
X31363978Y-166743468D01*
X31424021Y-166900413D01*
X31510170Y-167125127D01*
X31592743Y-167339448D01*
X31675372Y-167552685D01*
X31761685Y-167774143D01*
X31855311Y-168013130D01*
X31959879Y-168278953D01*
X32079020Y-168580918D01*
X32103529Y-168642958D01*
X32184104Y-168846938D01*
X32259486Y-169037884D01*
X32327465Y-169210191D01*
X32385832Y-169358254D01*
X32432377Y-169476466D01*
X32464891Y-169559222D01*
X32481163Y-169600916D01*
X32481871Y-169602768D01*
X32504948Y-169663464D01*
X31853101Y-169663464D01*
X31771620Y-169453704D01*
X31744419Y-169384129D01*
X31700992Y-169273618D01*
X31643840Y-169128510D01*
X31575464Y-168955146D01*
X31498366Y-168759867D01*
X31415047Y-168549013D01*
X31328007Y-168328924D01*
X31295806Y-168247545D01*
X30901474Y-167251146D01*
X30726972Y-167444298D01*
X30720343Y-168547525D01*
X30713714Y-169650751D01*
X30414965Y-169657914D01*
X30116216Y-169665078D01*
X30116216Y-165924313D01*
X30713714Y-165938639D01*
G37*
G36*
X66144044Y-198089089D02*
G01*
X16081382Y-198089089D01*
X16081382Y-197300901D01*
X66144044Y-197300901D01*
X66144044Y-198089089D01*
G37*
G36*
X35012400Y-200974251D02*
G01*
X35191388Y-200982474D01*
X35347861Y-200998770D01*
X35455556Y-201019856D01*
X35601703Y-201066671D01*
X35742448Y-201125158D01*
X35869644Y-201190496D01*
X35975146Y-201257865D01*
X36050808Y-201322444D01*
X36088482Y-201379412D01*
X36091191Y-201396008D01*
X36070491Y-201436787D01*
X36022785Y-201475657D01*
X35969665Y-201495744D01*
X35963133Y-201496096D01*
X35915329Y-201480055D01*
X35852437Y-201439758D01*
X35828640Y-201420286D01*
X35672763Y-201313429D01*
X35479859Y-201230459D01*
X35259099Y-201174007D01*
X35019649Y-201146704D01*
X34870771Y-201145410D01*
X34629229Y-201152853D01*
X34629229Y-204254755D01*
X34901293Y-204261959D01*
X35181548Y-204251510D01*
X35429924Y-204204858D01*
X35644816Y-204122528D01*
X35824619Y-204005045D01*
X35898842Y-203935422D01*
X35957899Y-203879325D01*
X36007499Y-203842967D01*
X36027956Y-203835236D01*
X36077151Y-203855111D01*
X36122525Y-203900209D01*
X36142042Y-203948037D01*
X36118988Y-204009459D01*
X36054850Y-204080604D01*
X35957167Y-204156304D01*
X35833475Y-204231388D01*
X35691314Y-204300687D01*
X35546995Y-204356129D01*
X35456727Y-204380997D01*
X35338240Y-204406413D01*
X35205779Y-204430130D01*
X35073592Y-204449902D01*
X34955926Y-204463483D01*
X34867026Y-204468629D01*
X34839991Y-204467573D01*
X34799988Y-204463183D01*
X34724793Y-204454654D01*
X34629725Y-204443725D01*
X34617049Y-204442258D01*
X34317990Y-204384381D01*
X34042297Y-204284347D01*
X33793378Y-204145014D01*
X33574647Y-203969244D01*
X33389514Y-203759897D01*
X33241390Y-203519832D01*
X33133686Y-203251910D01*
X33113713Y-203181814D01*
X33081866Y-203016321D01*
X33063207Y-202823888D01*
X33058300Y-202623983D01*
X33067709Y-202436074D01*
X33088086Y-202296997D01*
X33132119Y-202148346D01*
X33201163Y-201981526D01*
X33285827Y-201815817D01*
X33376724Y-201670499D01*
X33422406Y-201610511D01*
X33617077Y-201414088D01*
X33848623Y-201245709D01*
X34108370Y-201110808D01*
X34362262Y-201021633D01*
X34485829Y-200997795D01*
X34645073Y-200981935D01*
X34825446Y-200974080D01*
X35012400Y-200974251D01*
G37*
G36*
X61586702Y-167801051D02*
G01*
X61593223Y-169663464D01*
X60982683Y-169663464D01*
X60982683Y-166921849D01*
X60858303Y-166830545D01*
X60742081Y-166755515D01*
X60605619Y-166682710D01*
X60471926Y-166623791D01*
X60404254Y-166600438D01*
X60347047Y-166583561D01*
X60347047Y-169663464D01*
X59736507Y-169663464D01*
X59743028Y-167801051D01*
X59749550Y-165938639D01*
X60016517Y-165944604D01*
X60309742Y-165967674D01*
X60581967Y-166025621D01*
X60809802Y-166104609D01*
X60980165Y-166173605D01*
X60987780Y-166056122D01*
X60995396Y-165938639D01*
X61580180Y-165938639D01*
X61586702Y-167801051D01*
G37*
G36*
X29925526Y-166548849D02*
G01*
X29836537Y-166554987D01*
X29587990Y-166594039D01*
X29357323Y-166672771D01*
X29148541Y-166786554D01*
X28965647Y-166930760D01*
X28812648Y-167100761D01*
X28693547Y-167291926D01*
X28612349Y-167499628D01*
X28573060Y-167719237D01*
X28579684Y-167946125D01*
X28587983Y-167998098D01*
X28655155Y-168226701D01*
X28765986Y-168436279D01*
X28915424Y-168622406D01*
X29098420Y-168780658D01*
X29309920Y-168906609D01*
X29544875Y-168995833D01*
X29779329Y-169041896D01*
X29938238Y-169059822D01*
X29938238Y-169663464D01*
X29779329Y-169661443D01*
X29662577Y-169654341D01*
X29532365Y-169638250D01*
X29455155Y-169624425D01*
X29170891Y-169539314D01*
X28903376Y-169410220D01*
X28658959Y-169241947D01*
X28443990Y-169039296D01*
X28264816Y-168807069D01*
X28178995Y-168659160D01*
X28091252Y-168475510D01*
X28030965Y-168312374D01*
X27993766Y-168151592D01*
X27975285Y-167975002D01*
X27971033Y-167794695D01*
X27972837Y-167651275D01*
X27979371Y-167542106D01*
X27992840Y-167450651D01*
X28015447Y-167360372D01*
X28038830Y-167286187D01*
X28158543Y-167004651D01*
X28321531Y-166745981D01*
X28523582Y-166514853D01*
X28760483Y-166315946D01*
X29028023Y-166153938D01*
X29081970Y-166127715D01*
X29252772Y-166059726D01*
X29443354Y-166003303D01*
X29631880Y-165964089D01*
X29775495Y-165948444D01*
X29925526Y-165941494D01*
X29925526Y-166548849D01*
G37*
G36*
X25826597Y-133233928D02*
G01*
X25922894Y-133255125D01*
X25953369Y-133265940D01*
X26013952Y-133298806D01*
X26086187Y-133348199D01*
X26157635Y-133404136D01*
X26215854Y-133456636D01*
X26248405Y-133495718D01*
X26251457Y-133505111D01*
X26233033Y-133527660D01*
X26184379Y-133572650D01*
X26115274Y-133631133D01*
X26101062Y-133642691D01*
X25950762Y-133764159D01*
X25856067Y-133699898D01*
X25780632Y-133654039D01*
X25723971Y-133638356D01*
X25666464Y-133649685D01*
X25632629Y-133663865D01*
X25567050Y-133718297D01*
X25524039Y-133801056D01*
X25514214Y-133863401D01*
X25534680Y-133912919D01*
X25585007Y-133968692D01*
X25648592Y-134016314D01*
X25708832Y-134041382D01*
X25720597Y-134042443D01*
X25745180Y-134046425D01*
X25759389Y-134065154D01*
X25765326Y-134108804D01*
X25765093Y-134187550D01*
X25763140Y-134248283D01*
X25755756Y-134454124D01*
X25663845Y-134485648D01*
X25524874Y-134554902D01*
X25415422Y-134653169D01*
X25342296Y-134772055D01*
X25312305Y-134903164D01*
X25311928Y-134919620D01*
X25332859Y-135032846D01*
X25388682Y-135149340D01*
X25468942Y-135249359D01*
X25501220Y-135277085D01*
X25624884Y-135341279D01*
X25764957Y-135365065D01*
X25905814Y-135347527D01*
X26002955Y-135306480D01*
X26077496Y-135248586D01*
X26147096Y-135170947D01*
X26200249Y-135088976D01*
X26225447Y-135018084D01*
X26226126Y-135007563D01*
X26213452Y-134994815D01*
X26180559Y-135016786D01*
X26135139Y-135065691D01*
X26084888Y-135133744D01*
X26056216Y-135179507D01*
X25993277Y-135286903D01*
X25817309Y-135198287D01*
X25733870Y-135152462D01*
X25671906Y-135111178D01*
X25642577Y-135082060D01*
X25641609Y-135078209D01*
X25658618Y-135034288D01*
X25703599Y-134965073D01*
X25768194Y-134880848D01*
X25844044Y-134791897D01*
X25922790Y-134708506D01*
X25996073Y-134640957D01*
X25998844Y-134638672D01*
X26158915Y-134527415D01*
X26343624Y-134431734D01*
X26537848Y-134357563D01*
X26726466Y-134310837D01*
X26869147Y-134297139D01*
X26940095Y-134296697D01*
X26925325Y-134716217D01*
X26791842Y-134723902D01*
X26658358Y-134731587D01*
X26658358Y-134907282D01*
X26634539Y-135117657D01*
X26564588Y-135308735D01*
X26450767Y-135476842D01*
X26295337Y-135618302D01*
X26174900Y-135693244D01*
X26074039Y-135741418D01*
X25981997Y-135769262D01*
X25873748Y-135783428D01*
X25823709Y-135786580D01*
X25673915Y-135786432D01*
X25552901Y-135770285D01*
X25522457Y-135761855D01*
X25346450Y-135679082D01*
X25186671Y-135556277D01*
X25054136Y-135403991D01*
X24959861Y-135232777D01*
X24953757Y-135217139D01*
X24923819Y-135124236D01*
X24909344Y-135035403D01*
X24907564Y-134928520D01*
X24910160Y-134868769D01*
X24934566Y-134682020D01*
X24989637Y-134523374D01*
X25081891Y-134376179D01*
X25122623Y-134326090D01*
X25211237Y-134222565D01*
X25156144Y-134114574D01*
X25115127Y-134000289D01*
X25101133Y-133862960D01*
X25101051Y-133849459D01*
X25124604Y-133677047D01*
X25191095Y-133523751D01*
X25294269Y-133395801D01*
X25427872Y-133299426D01*
X25585652Y-133240857D01*
X25727504Y-133225407D01*
X25826597Y-133233928D01*
G37*
G36*
X31611030Y-200971331D02*
G01*
X31780843Y-200996995D01*
X31938862Y-201036389D01*
X32078989Y-201086749D01*
X32195127Y-201145311D01*
X32281177Y-201209309D01*
X32331040Y-201275980D01*
X32338619Y-201342558D01*
X32329141Y-201367264D01*
X32289949Y-201409738D01*
X32234586Y-201413369D01*
X32157355Y-201377488D01*
X32103724Y-201340841D01*
X31958827Y-201251891D01*
X31800569Y-201191994D01*
X31615909Y-201157052D01*
X31484210Y-201146215D01*
X31237689Y-201133475D01*
X31160036Y-201211128D01*
X31097582Y-201300720D01*
X31084224Y-201397317D01*
X31119892Y-201503728D01*
X31151390Y-201554803D01*
X31192464Y-201602492D01*
X31265346Y-201675442D01*
X31362550Y-201766634D01*
X31476593Y-201869050D01*
X31599990Y-201975672D01*
X31602691Y-201977960D01*
X31865472Y-202207028D01*
X32084628Y-202412599D01*
X32261101Y-202595666D01*
X32395830Y-202757223D01*
X32489755Y-202898264D01*
X32510597Y-202937698D01*
X32548092Y-203016882D01*
X32572491Y-203081691D01*
X32586595Y-203147089D01*
X32593203Y-203228037D01*
X32595117Y-203339501D01*
X32595195Y-203389756D01*
X32594040Y-203518050D01*
X32588990Y-203609836D01*
X32577671Y-203679431D01*
X32557707Y-203741155D01*
X32526724Y-203809328D01*
X32525032Y-203812778D01*
X32408801Y-203993164D01*
X32253014Y-204147487D01*
X32063083Y-204273423D01*
X31844421Y-204368651D01*
X31602439Y-204430848D01*
X31342549Y-204457692D01*
X31070164Y-204446860D01*
X31052131Y-204444794D01*
X30813068Y-204401456D01*
X30592823Y-204332480D01*
X30401920Y-204241825D01*
X30271036Y-204151060D01*
X30216172Y-204094803D01*
X30196766Y-204040227D01*
X30197492Y-204003455D01*
X30220626Y-203938618D01*
X30270591Y-203914219D01*
X30343047Y-203930520D01*
X30433656Y-203987781D01*
X30435378Y-203989150D01*
X30640137Y-204121746D01*
X30869021Y-204211423D01*
X31124272Y-204258898D01*
X31303996Y-204267468D01*
X31493320Y-204257802D01*
X31642363Y-204227340D01*
X31758173Y-204173890D01*
X31844381Y-204099188D01*
X31906267Y-204000008D01*
X31918747Y-203897113D01*
X31881955Y-203786454D01*
X31856347Y-203743438D01*
X31826378Y-203700331D01*
X31792429Y-203658095D01*
X31749529Y-203612255D01*
X31692706Y-203558332D01*
X31616992Y-203491851D01*
X31517414Y-203408334D01*
X31389003Y-203303304D01*
X31226787Y-203172284D01*
X31184084Y-203137931D01*
X30971178Y-202963333D01*
X30796876Y-202812497D01*
X30657144Y-202681479D01*
X30547948Y-202566333D01*
X30465253Y-202463114D01*
X30415185Y-202385986D01*
X30323234Y-202182797D01*
X30278304Y-201978378D01*
X30278760Y-201778416D01*
X30322969Y-201588599D01*
X30409296Y-201414614D01*
X30536108Y-201262150D01*
X30701770Y-201136894D01*
X30787033Y-201091638D01*
X30951666Y-201025667D01*
X31119353Y-200984636D01*
X31307555Y-200965061D01*
X31435523Y-200962163D01*
X31611030Y-200971331D01*
G37*
G36*
X65152453Y-171672072D02*
G01*
X65152453Y-196690691D01*
X17072973Y-196690691D01*
X17072973Y-192747983D01*
X17680454Y-192747983D01*
X17683328Y-192945082D01*
X17701245Y-193135116D01*
X17730775Y-193287602D01*
X17827802Y-193564633D01*
X17966052Y-193820075D01*
X18140562Y-194049953D01*
X18346371Y-194250294D01*
X18578515Y-194417121D01*
X18832033Y-194546462D01*
X19101961Y-194634340D01*
X19383337Y-194676782D01*
X19469319Y-194680061D01*
X19640941Y-194682082D01*
X19818919Y-194682082D01*
X21547848Y-194682082D01*
X21547848Y-194071872D01*
X20429129Y-194071872D01*
X20429129Y-192966463D01*
X21348993Y-192966463D01*
X21366196Y-193156320D01*
X21405110Y-193330970D01*
X21469029Y-193507086D01*
X21524953Y-193629028D01*
X21680070Y-193890108D01*
X21873932Y-194121261D01*
X22101771Y-194318882D01*
X22358821Y-194479363D01*
X22640317Y-194599097D01*
X22895396Y-194666167D01*
X22945888Y-194670455D01*
X23034049Y-194672700D01*
X23146729Y-194672727D01*
X23251351Y-194670891D01*
X23402454Y-194664449D01*
X23521306Y-194652143D01*
X23626418Y-194631141D01*
X23736298Y-194598607D01*
X23747147Y-194594985D01*
X24007771Y-194486723D01*
X24242927Y-194343522D01*
X24463986Y-194158195D01*
X24510471Y-194112455D01*
X24701827Y-193885675D01*
X24853473Y-193634589D01*
X24963289Y-193365735D01*
X25029154Y-193085651D01*
X25044242Y-192868565D01*
X25236220Y-192868565D01*
X25253400Y-193107523D01*
X25272554Y-193220121D01*
X25316679Y-193372319D01*
X25386523Y-193544813D01*
X25473593Y-193720275D01*
X25569397Y-193881377D01*
X25652604Y-193995596D01*
X25849951Y-194199448D01*
X26077015Y-194372870D01*
X26325373Y-194511647D01*
X26586606Y-194611566D01*
X26852291Y-194668412D01*
X27020671Y-194680242D01*
X27192292Y-194682082D01*
X27370270Y-194682082D01*
X27980481Y-194682082D01*
X27981565Y-193582433D01*
X27982649Y-192482783D01*
X28077492Y-192374855D01*
X28172335Y-192266926D01*
X29119721Y-194669370D01*
X29439991Y-194676486D01*
X29560861Y-194678128D01*
X29660853Y-194677498D01*
X29730383Y-194674804D01*
X29759868Y-194670253D01*
X29760260Y-194669565D01*
X29751257Y-194643665D01*
X29725530Y-194575426D01*
X29685006Y-194469816D01*
X29631609Y-194331805D01*
X29567265Y-194166362D01*
X29493900Y-193978454D01*
X29413439Y-193773052D01*
X29368321Y-193658145D01*
X29227546Y-193299717D01*
X29104549Y-192986119D01*
X29002443Y-192725271D01*
X31445674Y-192725271D01*
X31452648Y-193021448D01*
X31506114Y-193305863D01*
X31602306Y-193574492D01*
X31737458Y-193823317D01*
X31907804Y-194048315D01*
X32109578Y-194245466D01*
X32339014Y-194410748D01*
X32592347Y-194540142D01*
X32865810Y-194629626D01*
X33155636Y-194675179D01*
X33276663Y-194680211D01*
X33408767Y-194676002D01*
X33549709Y-194663166D01*
X33671390Y-194644356D01*
X33683469Y-194641800D01*
X33851871Y-194592069D01*
X34036301Y-194516731D01*
X34218653Y-194424638D01*
X34380821Y-194324641D01*
X34468937Y-194257822D01*
X34688736Y-194039273D01*
X34872098Y-193787905D01*
X35014613Y-193510398D01*
X35078553Y-193334535D01*
X35104647Y-193241875D01*
X35121783Y-193154549D01*
X35131589Y-193057775D01*
X35135693Y-192936772D01*
X35135969Y-192813314D01*
X35133835Y-192665890D01*
X35127959Y-192554298D01*
X35116397Y-192463549D01*
X35097205Y-192378655D01*
X35068438Y-192284630D01*
X35066700Y-192279380D01*
X34978247Y-192056476D01*
X34865773Y-191857102D01*
X34720240Y-191667002D01*
X34591234Y-191529186D01*
X34399061Y-191354577D01*
X34207558Y-191219296D01*
X34002223Y-191114140D01*
X33841041Y-191053039D01*
X33749550Y-191024281D01*
X33668446Y-191004799D01*
X33583535Y-190992795D01*
X33480623Y-190986469D01*
X33345518Y-190984023D01*
X33294395Y-190983770D01*
X33143959Y-190984566D01*
X33030880Y-190989051D01*
X32941708Y-190998720D01*
X32862997Y-191015070D01*
X32781298Y-191039596D01*
X32775667Y-191041474D01*
X32479294Y-191165120D01*
X32215025Y-191325180D01*
X31985340Y-191518514D01*
X31792719Y-191741983D01*
X31639642Y-191992446D01*
X31528589Y-192266765D01*
X31462040Y-192561799D01*
X31445674Y-192725271D01*
X29002443Y-192725271D01*
X28998385Y-192714903D01*
X28908109Y-192483622D01*
X28832775Y-192289826D01*
X28771439Y-192131068D01*
X28723154Y-192004900D01*
X28686977Y-191908874D01*
X28661960Y-191840542D01*
X28647160Y-191797455D01*
X28641630Y-191777166D01*
X28641542Y-191775962D01*
X28657701Y-191750851D01*
X28702610Y-191694409D01*
X28770910Y-191613024D01*
X28857248Y-191513084D01*
X28951355Y-191406481D01*
X29052827Y-191292522D01*
X29144575Y-191189226D01*
X29220412Y-191103581D01*
X29274150Y-191042572D01*
X29298539Y-191014465D01*
X29309778Y-190997818D01*
X29306680Y-190985958D01*
X29282656Y-190978103D01*
X29231116Y-190973468D01*
X29145471Y-190971272D01*
X29019129Y-190970731D01*
X28931518Y-190970851D01*
X28527127Y-190971732D01*
X27993193Y-191566292D01*
X27978867Y-190969970D01*
X35328429Y-190969970D01*
X35328826Y-192362012D01*
X35329035Y-192683996D01*
X35329712Y-192959499D01*
X35331228Y-193192893D01*
X35333954Y-193388547D01*
X35338260Y-193550832D01*
X35344518Y-193684118D01*
X35353099Y-193792777D01*
X35364373Y-193881178D01*
X35378712Y-193953693D01*
X35396486Y-194014690D01*
X35418067Y-194068542D01*
X35443825Y-194119618D01*
X35474131Y-194172289D01*
X35483854Y-194188536D01*
X35619756Y-194367386D01*
X35791559Y-194510769D01*
X36000095Y-194619328D01*
X36078479Y-194648075D01*
X36204494Y-194672723D01*
X36357307Y-194676823D01*
X36517883Y-194661849D01*
X36667184Y-194629275D01*
X36757614Y-194595470D01*
X36953615Y-194476163D01*
X37115004Y-194319781D01*
X37242596Y-194125517D01*
X37254001Y-194103019D01*
X37349750Y-193909323D01*
X37356896Y-192439647D01*
X37361075Y-191580181D01*
X37540441Y-191580181D01*
X38226927Y-191580181D01*
X38226927Y-194682082D01*
X38837137Y-194682082D01*
X38837137Y-191926541D01*
X42946380Y-191926541D01*
X42951179Y-192046079D01*
X42968834Y-192153822D01*
X43003311Y-192256768D01*
X43058580Y-192361919D01*
X43138607Y-192476275D01*
X43247362Y-192606838D01*
X43388811Y-192760607D01*
X43463002Y-192838015D01*
X43573744Y-192954920D01*
X43674506Y-193065724D01*
X43758862Y-193163009D01*
X43820386Y-193239357D01*
X43852652Y-193287352D01*
X43853146Y-193288370D01*
X43891883Y-193424396D01*
X43885171Y-193562581D01*
X43837681Y-193696491D01*
X43754083Y-193819692D01*
X43639048Y-193925750D01*
X43497246Y-194008233D01*
X43333348Y-194060705D01*
X43286587Y-194068797D01*
X43172172Y-194085132D01*
X43157846Y-194682082D01*
X43255013Y-194682082D01*
X44684985Y-194682082D01*
X45295195Y-194682082D01*
X45295195Y-192860191D01*
X45475865Y-192860191D01*
X45491175Y-193067012D01*
X45522179Y-193261728D01*
X45556403Y-193392455D01*
X45674550Y-193676271D01*
X45833479Y-193931733D01*
X46030026Y-194156074D01*
X46261027Y-194346524D01*
X46523318Y-194500315D01*
X46813735Y-194614680D01*
X47011412Y-194665593D01*
X47057145Y-194670245D01*
X47140611Y-194674464D01*
X47248690Y-194677703D01*
X47335586Y-194679133D01*
X47608909Y-194682082D01*
X47786887Y-194682082D01*
X48397097Y-194682082D01*
X48397097Y-191605813D01*
X48524095Y-191654068D01*
X48694304Y-191731146D01*
X48855732Y-191826606D01*
X48954226Y-191900023D01*
X49032733Y-191966082D01*
X49032733Y-194682082D01*
X49617518Y-194682082D01*
X49617518Y-194665137D01*
X49820921Y-194665137D01*
X49844736Y-194671572D01*
X49909745Y-194676885D01*
X50006295Y-194680556D01*
X50124734Y-194682070D01*
X50137025Y-194682082D01*
X50270135Y-194681344D01*
X50360869Y-194678364D01*
X50417693Y-194671998D01*
X50449071Y-194661102D01*
X50463467Y-194644529D01*
X50465943Y-194637588D01*
X50477741Y-194598654D01*
X50501776Y-194520810D01*
X50535063Y-194413667D01*
X50574622Y-194286834D01*
X50596284Y-194217557D01*
X50713813Y-193842021D01*
X51238711Y-193848889D01*
X51763609Y-193855756D01*
X52018021Y-194682082D01*
X52330582Y-194682082D01*
X52846547Y-194682082D01*
X54577089Y-194682082D01*
X54569926Y-194383334D01*
X54562763Y-194084585D01*
X53456757Y-194070881D01*
X53456757Y-192778167D01*
X56230083Y-192778167D01*
X56245110Y-193058425D01*
X56304641Y-193334946D01*
X56408672Y-193603014D01*
X56557200Y-193857915D01*
X56750220Y-194094932D01*
X56824937Y-194169615D01*
X57042009Y-194350564D01*
X57271548Y-194489560D01*
X57525480Y-194592975D01*
X57715516Y-194645605D01*
X57858475Y-194667101D01*
X58031424Y-194674943D01*
X58216654Y-194669912D01*
X58396457Y-194652787D01*
X58553125Y-194624349D01*
X58618118Y-194605840D01*
X58895038Y-194490526D01*
X59148049Y-194340772D01*
X59369220Y-194162050D01*
X59546493Y-193965319D01*
X59716497Y-193701328D01*
X59839287Y-193423730D01*
X59914474Y-193136701D01*
X59941665Y-192844413D01*
X59920471Y-192551040D01*
X59850501Y-192260756D01*
X59732378Y-191979697D01*
X59634495Y-191821345D01*
X59504404Y-191656114D01*
X59353734Y-191495857D01*
X59194114Y-191352430D01*
X59037174Y-191237687D01*
X58961361Y-191193745D01*
X58786175Y-191108473D01*
X58633071Y-191048924D01*
X58485018Y-191011024D01*
X58324984Y-190990693D01*
X58135937Y-190983856D01*
X58084184Y-190983770D01*
X57936093Y-190985371D01*
X57824636Y-190990290D01*
X57735619Y-191000325D01*
X57654850Y-191017274D01*
X57568134Y-191042937D01*
X57537538Y-191053039D01*
X57274333Y-191162503D01*
X57035860Y-191308359D01*
X56822655Y-191485873D01*
X56615100Y-191714081D01*
X56452069Y-191962130D01*
X56333559Y-192225304D01*
X56259565Y-192498888D01*
X56230083Y-192778167D01*
X53456757Y-192778167D01*
X53456757Y-190969970D01*
X60115538Y-190969970D01*
X60123235Y-192425576D01*
X60124913Y-192734475D01*
X60126531Y-192996771D01*
X60128257Y-193216712D01*
X60130258Y-193398547D01*
X60132702Y-193546522D01*
X60135757Y-193664885D01*
X60139590Y-193757884D01*
X60144369Y-193829768D01*
X60150262Y-193884783D01*
X60157436Y-193927177D01*
X60166059Y-193961198D01*
X60176299Y-193991094D01*
X60185986Y-194015429D01*
X60294739Y-194215564D01*
X60443207Y-194390169D01*
X60623569Y-194531777D01*
X60828005Y-194632922D01*
X60835575Y-194635664D01*
X60987916Y-194670004D01*
X61163350Y-194677614D01*
X61342367Y-194659524D01*
X61505455Y-194616765D01*
X61551508Y-194597850D01*
X61718969Y-194496905D01*
X61873385Y-194357958D01*
X62001716Y-194193860D01*
X62053773Y-194102930D01*
X62139540Y-193932032D01*
X62153820Y-190969970D01*
X62328617Y-190969970D01*
X62342943Y-191567468D01*
X62692543Y-191574542D01*
X63042142Y-191581616D01*
X63042142Y-194682082D01*
X63626927Y-194682082D01*
X63626927Y-191580181D01*
X64313414Y-191580181D01*
X64313414Y-190969970D01*
X62328617Y-190969970D01*
X62153820Y-190969970D01*
X61569495Y-190969970D01*
X61562125Y-192374725D01*
X61560414Y-192680043D01*
X61558649Y-192938653D01*
X61556686Y-193154700D01*
X61554382Y-193332326D01*
X61551592Y-193475675D01*
X61548174Y-193588891D01*
X61543984Y-193676118D01*
X61538878Y-193741497D01*
X61532712Y-193789174D01*
X61525344Y-193823292D01*
X61516628Y-193847993D01*
X61510644Y-193860108D01*
X61424480Y-193968100D01*
X61305810Y-194037208D01*
X61162324Y-194066483D01*
X61027158Y-194057085D01*
X60912865Y-194005535D01*
X60811412Y-193907886D01*
X60794330Y-193885696D01*
X60782925Y-193869205D01*
X60773253Y-193850240D01*
X60765147Y-193824675D01*
X60758439Y-193788381D01*
X60752964Y-193737231D01*
X60748553Y-193667098D01*
X60745041Y-193573854D01*
X60742261Y-193453371D01*
X60740045Y-193301523D01*
X60738228Y-193114182D01*
X60736642Y-192887221D01*
X60735120Y-192616511D01*
X60733970Y-192391953D01*
X60726798Y-190969970D01*
X60115538Y-190969970D01*
X53456757Y-190969970D01*
X52846547Y-190969970D01*
X52846547Y-194682082D01*
X52330582Y-194682082D01*
X52450756Y-194680302D01*
X52549248Y-194675434D01*
X52616526Y-194668192D01*
X52643055Y-194659288D01*
X52643143Y-194658727D01*
X52635748Y-194631370D01*
X52614409Y-194559593D01*
X52580401Y-194447497D01*
X52534996Y-194299182D01*
X52479469Y-194118749D01*
X52415090Y-193910298D01*
X52343135Y-193677931D01*
X52264876Y-193425749D01*
X52181586Y-193157851D01*
X52094538Y-192878339D01*
X52005005Y-192591314D01*
X51914261Y-192300875D01*
X51823579Y-192011125D01*
X51734231Y-191726164D01*
X51647491Y-191450091D01*
X51610413Y-191332283D01*
X51496320Y-190969970D01*
X51232406Y-190969970D01*
X51112152Y-190970985D01*
X51033450Y-190975020D01*
X50987021Y-190983568D01*
X50963589Y-190998116D01*
X50955345Y-191014465D01*
X50944961Y-191048422D01*
X50921436Y-191124681D01*
X50886712Y-191236982D01*
X50842730Y-191379066D01*
X50791433Y-191544671D01*
X50734761Y-191727537D01*
X50674657Y-191921404D01*
X50613062Y-192120012D01*
X50551917Y-192317101D01*
X50493165Y-192506410D01*
X50438747Y-192681678D01*
X50390604Y-192836647D01*
X50350678Y-192965055D01*
X50320911Y-193060642D01*
X50303244Y-193117147D01*
X50300838Y-193124775D01*
X50274635Y-193207408D01*
X49922623Y-193207408D01*
X49922623Y-193843043D01*
X50001619Y-193843043D01*
X50056348Y-193849533D01*
X50068918Y-193871752D01*
X50066622Y-193879511D01*
X50051267Y-193923801D01*
X50025551Y-194002398D01*
X49992636Y-194105187D01*
X49955687Y-194222050D01*
X49917868Y-194342872D01*
X49882342Y-194457536D01*
X49852274Y-194555925D01*
X49830827Y-194627924D01*
X49821165Y-194663415D01*
X49820921Y-194665137D01*
X49617518Y-194665137D01*
X49617518Y-190969970D01*
X49032733Y-190969970D01*
X49032733Y-191087105D01*
X49030289Y-191157640D01*
X49019788Y-191187913D01*
X48996473Y-191188405D01*
X48988238Y-191185169D01*
X48946476Y-191169059D01*
X48869012Y-191140689D01*
X48768165Y-191104532D01*
X48689490Y-191076713D01*
X48573058Y-191037572D01*
X48476301Y-191010934D01*
X48382168Y-190993807D01*
X48273611Y-190983203D01*
X48133582Y-190976132D01*
X48111061Y-190975275D01*
X47786887Y-190963221D01*
X47786887Y-194682082D01*
X47608909Y-194682082D01*
X47608909Y-191783584D01*
X47144895Y-191782518D01*
X46680881Y-191781453D01*
X46769870Y-191732760D01*
X46943886Y-191656062D01*
X47136691Y-191601324D01*
X47252388Y-191582570D01*
X47392793Y-191567468D01*
X47407119Y-190969970D01*
X47306273Y-190969970D01*
X47228290Y-190975392D01*
X47124619Y-190989534D01*
X47028191Y-191007253D01*
X46739230Y-191091603D01*
X46468135Y-191216917D01*
X46219676Y-191378577D01*
X45998622Y-191571965D01*
X45809746Y-191792464D01*
X45657816Y-192035456D01*
X45547603Y-192296323D01*
X45497466Y-192488963D01*
X45477535Y-192660946D01*
X45475865Y-192860191D01*
X45295195Y-192860191D01*
X45295195Y-190969970D01*
X44684985Y-190969970D01*
X44684985Y-194682082D01*
X43255013Y-194682082D01*
X43335721Y-194675382D01*
X43436842Y-194658217D01*
X43497788Y-194644156D01*
X43739064Y-194557466D01*
X43957920Y-194431395D01*
X44148306Y-194271227D01*
X44304174Y-194082245D01*
X44419476Y-193869731D01*
X44437783Y-193823116D01*
X44478016Y-193662185D01*
X44493569Y-193478850D01*
X44484553Y-193293131D01*
X44451079Y-193125049D01*
X44433609Y-193074102D01*
X44342550Y-192895199D01*
X44207676Y-192713315D01*
X44026573Y-192525412D01*
X43926054Y-192435236D01*
X43766339Y-192288171D01*
X43650891Y-192159225D01*
X43577943Y-192044913D01*
X43545731Y-191941750D01*
X43552487Y-191846251D01*
X43587872Y-191767986D01*
X43652452Y-191699431D01*
X43746679Y-191637657D01*
X43849571Y-191594175D01*
X43930250Y-191580181D01*
X43998499Y-191580181D01*
X43998499Y-190962969D01*
X43858601Y-190979411D01*
X43640276Y-191028991D01*
X43437520Y-191121460D01*
X43258109Y-191251228D01*
X43109818Y-191412702D01*
X43002802Y-191594919D01*
X42969766Y-191686687D01*
X42952091Y-191788017D01*
X42946410Y-191918693D01*
X42946380Y-191926541D01*
X38837137Y-191926541D01*
X38837137Y-191580181D01*
X39523624Y-191580181D01*
X39523624Y-190969970D01*
X37540441Y-190969970D01*
X37540441Y-191580181D01*
X37361075Y-191580181D01*
X37364042Y-190969970D01*
X36752252Y-190969970D01*
X36752252Y-193805814D01*
X36690241Y-193897071D01*
X36595452Y-193996265D01*
X36480037Y-194054692D01*
X36353551Y-194072511D01*
X36225549Y-194049880D01*
X36105587Y-193986958D01*
X36004540Y-193885692D01*
X35993136Y-193869203D01*
X35983465Y-193850247D01*
X35975360Y-193824695D01*
X35968657Y-193788422D01*
X35963187Y-193737298D01*
X35958786Y-193667197D01*
X35955286Y-193573992D01*
X35952522Y-193453554D01*
X35950328Y-193301756D01*
X35948536Y-193114471D01*
X35946981Y-192887572D01*
X35945497Y-192616930D01*
X35944376Y-192391949D01*
X35937400Y-190969970D01*
X35328429Y-190969970D01*
X27978867Y-190969970D01*
X27370270Y-190969970D01*
X27370270Y-194682082D01*
X27192292Y-194682082D01*
X27192292Y-194071872D01*
X27095933Y-194071872D01*
X26916392Y-194051491D01*
X26723300Y-193994475D01*
X26530522Y-193907015D01*
X26351923Y-193795303D01*
X26213414Y-193677792D01*
X26050277Y-193481981D01*
X25933868Y-193270549D01*
X25864527Y-193048264D01*
X25842597Y-192819894D01*
X25868422Y-192590207D01*
X25942344Y-192363969D01*
X26064706Y-192145950D01*
X26099814Y-192097367D01*
X26243299Y-191944091D01*
X26423320Y-191809188D01*
X26626819Y-191699802D01*
X26840738Y-191623077D01*
X27031179Y-191587872D01*
X27192292Y-191572827D01*
X27192292Y-190969970D01*
X27089519Y-190969970D01*
X26962978Y-190980059D01*
X26808710Y-191007497D01*
X26645029Y-191048043D01*
X26490247Y-191097456D01*
X26419748Y-191125082D01*
X26150157Y-191265107D01*
X25905947Y-191443013D01*
X25692049Y-191653220D01*
X25513389Y-191890152D01*
X25374898Y-192148231D01*
X25284584Y-192409640D01*
X25246724Y-192628589D01*
X25236220Y-192868565D01*
X25044242Y-192868565D01*
X25048947Y-192800877D01*
X25023128Y-192531857D01*
X24948426Y-192240045D01*
X24833298Y-191975055D01*
X24674347Y-191730410D01*
X24497197Y-191528498D01*
X24262344Y-191322995D01*
X24011227Y-191165499D01*
X23742517Y-191055410D01*
X23454888Y-190992127D01*
X23276777Y-190976544D01*
X23015121Y-190979841D01*
X22779634Y-191015321D01*
X22554883Y-191085921D01*
X22440889Y-191135700D01*
X22164202Y-191290289D01*
X21928919Y-191472851D01*
X21731954Y-191686741D01*
X21570220Y-191935311D01*
X21440631Y-192221905D01*
X21405213Y-192323242D01*
X21381175Y-192412956D01*
X21365688Y-192507404D01*
X21355923Y-192622946D01*
X21350207Y-192744727D01*
X21348993Y-192966463D01*
X20429129Y-192966463D01*
X20429129Y-190969970D01*
X19818919Y-190969970D01*
X19818919Y-194682082D01*
X19640941Y-194682082D01*
X19640941Y-194071872D01*
X19536553Y-194071872D01*
X19334874Y-194048835D01*
X19126241Y-193982972D01*
X18921323Y-193879155D01*
X18730793Y-193742257D01*
X18647095Y-193665744D01*
X18484692Y-193472496D01*
X18368950Y-193264102D01*
X18299866Y-193045629D01*
X18277442Y-192822144D01*
X18301676Y-192598714D01*
X18372566Y-192380407D01*
X18490114Y-192172289D01*
X18647334Y-191986309D01*
X18826821Y-191835254D01*
X19025969Y-191714873D01*
X19234079Y-191630052D01*
X19440450Y-191585678D01*
X19536553Y-191580181D01*
X19640941Y-191580181D01*
X19640941Y-190962631D01*
X19456607Y-190977628D01*
X19222376Y-191010060D01*
X19002290Y-191070950D01*
X18774973Y-191166326D01*
X18757715Y-191174705D01*
X18486517Y-191333773D01*
X18247482Y-191528042D01*
X18044227Y-191753217D01*
X17880368Y-192005003D01*
X17759520Y-192279106D01*
X17720684Y-192406507D01*
X17692836Y-192562298D01*
X17680454Y-192747983D01*
X17072973Y-192747983D01*
X17072973Y-182838455D01*
X21614074Y-182838455D01*
X21618437Y-183067759D01*
X21627504Y-183274272D01*
X21641372Y-183445748D01*
X21645662Y-183482183D01*
X21746933Y-184082406D01*
X21894579Y-184663965D01*
X22087493Y-185224964D01*
X22324568Y-185763511D01*
X22604695Y-186277711D01*
X22926769Y-186765668D01*
X23289681Y-187225490D01*
X23692324Y-187655283D01*
X24133591Y-188053150D01*
X24471772Y-188316715D01*
X24658741Y-188450790D01*
X24828381Y-188565102D01*
X24994497Y-188667932D01*
X25170893Y-188767564D01*
X25371375Y-188872282D01*
X25526927Y-188949846D01*
X26074527Y-189191564D01*
X26633885Y-189384005D01*
X27203684Y-189526913D01*
X27782609Y-189620033D01*
X28369342Y-189663109D01*
X28962569Y-189655886D01*
X29111912Y-189646177D01*
X29705505Y-189576375D01*
X30284756Y-189458503D01*
X30847399Y-189293890D01*
X31391169Y-189083863D01*
X31913800Y-188829749D01*
X32413026Y-188532875D01*
X32886582Y-188194569D01*
X33332201Y-187816158D01*
X33747619Y-187398969D01*
X34130569Y-186944329D01*
X34426694Y-186532672D01*
X34728993Y-186034760D01*
X34987567Y-185511701D01*
X35202614Y-184962977D01*
X35374332Y-184388070D01*
X35502920Y-183786463D01*
X35520571Y-183681088D01*
X35541573Y-183513334D01*
X35557966Y-183306896D01*
X35569569Y-183073749D01*
X35576203Y-182825866D01*
X35576894Y-182709459D01*
X46647413Y-182709459D01*
X46650246Y-182868706D01*
X46666504Y-183246895D01*
X46697064Y-183591230D01*
X46744362Y-183917303D01*
X46810833Y-184240706D01*
X46898911Y-184577030D01*
X46937423Y-184707733D01*
X47130559Y-185259505D01*
X47369136Y-185791069D01*
X47650854Y-186299734D01*
X47973415Y-186782810D01*
X48334521Y-187237607D01*
X48731874Y-187661433D01*
X49163175Y-188051600D01*
X49626126Y-188405415D01*
X50118429Y-188720189D01*
X50570971Y-188961235D01*
X51108697Y-189195181D01*
X51661929Y-189383185D01*
X52226394Y-189524425D01*
X52797819Y-189618079D01*
X53371930Y-189663323D01*
X53944455Y-189659336D01*
X54133195Y-189647005D01*
X54740307Y-189573832D01*
X55329452Y-189453146D01*
X55900130Y-189285143D01*
X56451842Y-189070022D01*
X56984087Y-188807983D01*
X57496365Y-188499224D01*
X57988177Y-188143943D01*
X58058759Y-188087773D01*
X58189675Y-187975855D01*
X58342669Y-187834602D01*
X58507745Y-187674137D01*
X58674906Y-187504582D01*
X58834153Y-187336061D01*
X58975490Y-187178696D01*
X59080688Y-187053002D01*
X59430086Y-186574645D01*
X59737773Y-186070516D01*
X60002131Y-185544404D01*
X60221540Y-185000093D01*
X60394382Y-184441372D01*
X60519039Y-183872027D01*
X60562564Y-183586304D01*
X60614532Y-182994748D01*
X60616758Y-182406493D01*
X60570174Y-181824318D01*
X60475713Y-181251000D01*
X60334310Y-180689319D01*
X60146898Y-180142053D01*
X59914410Y-179611981D01*
X59637781Y-179101883D01*
X59317942Y-178614535D01*
X58955829Y-178152718D01*
X58611192Y-177777972D01*
X58167063Y-177363876D01*
X57697911Y-176993952D01*
X57204674Y-176668648D01*
X56688289Y-176388411D01*
X56149691Y-176153687D01*
X55589818Y-175964925D01*
X55009607Y-175822570D01*
X54409994Y-175727070D01*
X54284420Y-175713285D01*
X54089334Y-175699504D01*
X53857735Y-175692865D01*
X53603287Y-175692975D01*
X53339653Y-175699437D01*
X53080496Y-175711859D01*
X52839481Y-175729844D01*
X52630270Y-175752999D01*
X52562205Y-175763031D01*
X51976526Y-175881992D01*
X51409937Y-176046712D01*
X50864525Y-176255327D01*
X50342382Y-176505976D01*
X49845595Y-176796794D01*
X49376254Y-177125921D01*
X48936448Y-177491492D01*
X48528267Y-177891646D01*
X48153799Y-178324520D01*
X47815133Y-178788251D01*
X47514359Y-179280976D01*
X47253567Y-179800834D01*
X47034844Y-180345960D01*
X46884276Y-180825226D01*
X46791287Y-181198158D01*
X46722663Y-181559452D01*
X46676847Y-181922703D01*
X46652283Y-182301506D01*
X46647413Y-182709459D01*
X35576894Y-182709459D01*
X35577690Y-182575221D01*
X35573850Y-182333789D01*
X35564503Y-182113542D01*
X35549470Y-181926454D01*
X35547161Y-181905806D01*
X35452678Y-181308160D01*
X35310342Y-180726441D01*
X35120908Y-180162464D01*
X34921578Y-179702206D01*
X34993243Y-179702206D01*
X34996129Y-179730495D01*
X35015582Y-179797199D01*
X35048737Y-179893743D01*
X35092729Y-180011549D01*
X35118508Y-180077284D01*
X35261141Y-180435348D01*
X37096928Y-179700874D01*
X38932715Y-178966399D01*
X38849126Y-178796162D01*
X38798048Y-178681449D01*
X38745954Y-178547398D01*
X38705992Y-178428893D01*
X38675629Y-178339094D01*
X38647182Y-178273341D01*
X38625568Y-178242473D01*
X38621021Y-178241683D01*
X38536942Y-178274539D01*
X38416272Y-178322230D01*
X38263403Y-178382989D01*
X38082726Y-178455047D01*
X37878633Y-178536636D01*
X37655516Y-178625989D01*
X37417765Y-178721337D01*
X37169773Y-178820913D01*
X36915931Y-178922948D01*
X36660631Y-179025674D01*
X36408263Y-179127323D01*
X36163220Y-179226128D01*
X35929894Y-179320320D01*
X35712675Y-179408132D01*
X35515955Y-179487795D01*
X35344126Y-179557541D01*
X35201579Y-179615602D01*
X35092706Y-179660211D01*
X35021899Y-179689599D01*
X34993548Y-179701998D01*
X34993243Y-179702206D01*
X34921578Y-179702206D01*
X34885129Y-179618045D01*
X34603761Y-179095002D01*
X34277560Y-178595150D01*
X34041156Y-178282683D01*
X33929535Y-178150954D01*
X33788992Y-177996890D01*
X33629564Y-177830525D01*
X33461287Y-177661893D01*
X33418727Y-177620918D01*
X38636696Y-177620918D01*
X38640527Y-177840049D01*
X38657193Y-178056105D01*
X38686106Y-178251823D01*
X38707464Y-178346247D01*
X38817973Y-178666605D01*
X38972531Y-178967269D01*
X39166824Y-179244259D01*
X39396538Y-179493594D01*
X39657361Y-179711296D01*
X39944977Y-179893382D01*
X40255075Y-180035874D01*
X40583340Y-180134791D01*
X40663933Y-180151526D01*
X40803060Y-180169227D01*
X40974664Y-180177997D01*
X41162608Y-180178213D01*
X41350754Y-180170255D01*
X41522967Y-180154503D01*
X41663108Y-180131334D01*
X41678568Y-180127689D01*
X42017167Y-180018849D01*
X42332577Y-179866968D01*
X42621301Y-179675437D01*
X42879843Y-179447645D01*
X43104708Y-179186982D01*
X43292400Y-178896840D01*
X43439424Y-178580606D01*
X43516284Y-178345487D01*
X43552890Y-178168390D01*
X43577157Y-177960495D01*
X43588459Y-177739390D01*
X43586172Y-177522659D01*
X43569668Y-177327888D01*
X43555536Y-177242478D01*
X43460612Y-176896291D01*
X43322486Y-176573430D01*
X43144238Y-176277036D01*
X42928947Y-176010252D01*
X42679690Y-175776222D01*
X42399548Y-175578086D01*
X42091599Y-175418989D01*
X41758922Y-175302071D01*
X41621221Y-175268167D01*
X41402664Y-175235240D01*
X41158077Y-175222746D01*
X40907074Y-175230304D01*
X40669270Y-175257531D01*
X40514923Y-175289700D01*
X40172146Y-175404242D01*
X39856182Y-175560697D01*
X39569731Y-175756208D01*
X39315491Y-175987919D01*
X39096161Y-176252975D01*
X38914440Y-176548518D01*
X38773026Y-176871692D01*
X38674618Y-177219641D01*
X38669890Y-177242478D01*
X38646288Y-177415974D01*
X38636696Y-177620918D01*
X33418727Y-177620918D01*
X33294200Y-177501029D01*
X33138338Y-177357967D01*
X33003739Y-177242740D01*
X32989289Y-177231098D01*
X32504052Y-176875549D01*
X31994090Y-176564187D01*
X31461167Y-176297788D01*
X30907048Y-176077132D01*
X30333496Y-175902998D01*
X29742277Y-175776164D01*
X29663221Y-175763031D01*
X29469614Y-175738022D01*
X29239030Y-175718034D01*
X28985133Y-175703460D01*
X28721587Y-175694695D01*
X28462055Y-175692134D01*
X28220200Y-175696172D01*
X28009686Y-175707203D01*
X27941005Y-175713285D01*
X27337864Y-175799104D01*
X26753640Y-175931953D01*
X26189372Y-176111338D01*
X25646098Y-176336762D01*
X25124859Y-176607731D01*
X24626693Y-176923747D01*
X24152638Y-177284315D01*
X23703733Y-177688941D01*
X23614296Y-177777905D01*
X23212531Y-178218554D01*
X22855290Y-178682974D01*
X22542268Y-179171793D01*
X22273158Y-179685638D01*
X22047654Y-180225134D01*
X21865450Y-180790910D01*
X21726240Y-181383591D01*
X21659369Y-181778679D01*
X21641691Y-181938249D01*
X21628223Y-182136258D01*
X21619066Y-182360459D01*
X21614317Y-182598607D01*
X21614074Y-182838455D01*
X17072973Y-182838455D01*
X17072973Y-171672072D01*
X65152453Y-171672072D01*
G37*
G36*
X54161627Y-129623890D02*
G01*
X54445411Y-129631132D01*
X54205891Y-129898098D01*
X54119582Y-129996011D01*
X54047012Y-130081603D01*
X53994360Y-130147333D01*
X53967804Y-130185660D01*
X53965818Y-130191083D01*
X53974713Y-130219642D01*
X54000345Y-130290396D01*
X54040767Y-130398249D01*
X54094031Y-130538101D01*
X54158193Y-130704854D01*
X54231303Y-130893412D01*
X54311417Y-131098674D01*
X54349333Y-131195387D01*
X54432477Y-131407437D01*
X54510055Y-131605810D01*
X54580038Y-131785277D01*
X54640396Y-131940609D01*
X54689099Y-132066578D01*
X54724116Y-132157954D01*
X54743419Y-132209509D01*
X54746393Y-132218169D01*
X54747833Y-132239362D01*
X54731112Y-132252549D01*
X54687283Y-132259582D01*
X54607399Y-132262314D01*
X54531639Y-132262663D01*
X54303894Y-132262663D01*
X53966382Y-131408964D01*
X53628871Y-130555264D01*
X53555527Y-130625532D01*
X53482182Y-130695800D01*
X53482182Y-132262663D01*
X53049950Y-132262663D01*
X53049950Y-129618419D01*
X53482182Y-129618419D01*
X53483405Y-129828179D01*
X53484628Y-130037938D01*
X53681236Y-129827294D01*
X53877844Y-129616649D01*
X54161627Y-129623890D01*
G37*
G36*
X35582683Y-130050651D02*
G01*
X34641942Y-130050651D01*
X34641942Y-130176656D01*
X35118669Y-130183574D01*
X35595396Y-130190491D01*
X35602742Y-130412963D01*
X35610088Y-130635436D01*
X34635143Y-130635436D01*
X34647151Y-130884796D01*
X34657016Y-131023219D01*
X34673426Y-131128395D01*
X34699841Y-131217833D01*
X34724797Y-131277530D01*
X34832847Y-131453973D01*
X34979804Y-131600934D01*
X35160856Y-131714892D01*
X35371187Y-131792329D01*
X35454375Y-131810817D01*
X35608108Y-131839406D01*
X35608108Y-132262663D01*
X35474625Y-132260990D01*
X35367184Y-132252597D01*
X35250066Y-132233322D01*
X35204157Y-132222477D01*
X34977709Y-132136486D01*
X34768757Y-132008393D01*
X34584009Y-131845064D01*
X34430174Y-131653367D01*
X34313963Y-131440170D01*
X34249284Y-131245098D01*
X34230473Y-131137591D01*
X34216568Y-131005470D01*
X34210221Y-130874923D01*
X34210086Y-130857908D01*
X34209710Y-130635436D01*
X34057157Y-130635436D01*
X34057157Y-130177778D01*
X34209710Y-130177778D01*
X34209710Y-129618419D01*
X35582683Y-129618419D01*
X35582683Y-130050651D01*
G37*
G36*
X36613599Y-47545146D02*
G01*
X36615935Y-47302793D01*
X36623359Y-47098922D01*
X36637389Y-46921290D01*
X36659542Y-46757653D01*
X36691336Y-46595768D01*
X36734286Y-46423391D01*
X36767144Y-46306018D01*
X36923794Y-45852887D01*
X37124463Y-45423184D01*
X37366874Y-45019603D01*
X37648748Y-44644837D01*
X37967809Y-44301577D01*
X38321779Y-43992519D01*
X38708381Y-43720354D01*
X39125338Y-43487776D01*
X39167668Y-43467253D01*
X39606148Y-43284758D01*
X40054345Y-43150771D01*
X40508764Y-43064693D01*
X40965911Y-43025927D01*
X41422292Y-43033875D01*
X41874414Y-43087938D01*
X42318782Y-43187520D01*
X42751902Y-43332023D01*
X43170281Y-43520848D01*
X43570424Y-43753397D01*
X43948838Y-44029074D01*
X44300134Y-44345388D01*
X44623705Y-44703539D01*
X44904270Y-45088674D01*
X45141402Y-45499980D01*
X45334675Y-45936643D01*
X45483664Y-46397851D01*
X45566901Y-46763676D01*
X45584139Y-46871898D01*
X45596719Y-46993458D01*
X45605170Y-47137578D01*
X45610022Y-47313480D01*
X45611805Y-47530386D01*
X45611826Y-47545146D01*
X45611328Y-47740003D01*
X45608848Y-47894818D01*
X45603644Y-48020385D01*
X45594973Y-48127498D01*
X45582091Y-48226951D01*
X45564255Y-48329538D01*
X45554342Y-48379959D01*
X45433625Y-48854355D01*
X45268021Y-49306193D01*
X45059044Y-49733343D01*
X44808206Y-50133674D01*
X44517021Y-50505056D01*
X44187003Y-50845358D01*
X43819664Y-51152452D01*
X43416519Y-51424205D01*
X43373572Y-51449779D01*
X43045126Y-51622007D01*
X42690403Y-51769941D01*
X42322471Y-51889474D01*
X41954398Y-51976498D01*
X41599249Y-52026905D01*
X41518125Y-52033053D01*
X41401303Y-52040425D01*
X41291021Y-52047615D01*
X41206497Y-52053362D01*
X41188989Y-52054621D01*
X41121901Y-52055990D01*
X41019310Y-52053889D01*
X40896412Y-52048771D01*
X40794895Y-52042889D01*
X40331641Y-51987332D01*
X39878964Y-51883364D01*
X39440311Y-51732921D01*
X39019130Y-51537940D01*
X38618868Y-51300358D01*
X38242973Y-51022113D01*
X37894891Y-50705140D01*
X37578071Y-50351377D01*
X37423189Y-50148491D01*
X37313355Y-49982001D01*
X37197010Y-49781132D01*
X37081452Y-49560440D01*
X36973979Y-49334486D01*
X36881889Y-49117829D01*
X36817055Y-48939318D01*
X36748833Y-48716791D01*
X36696951Y-48515837D01*
X36659467Y-48323153D01*
X36634442Y-48125439D01*
X36619934Y-47909394D01*
X36615998Y-47745067D01*
X36632509Y-47745067D01*
X36672632Y-48189204D01*
X36754719Y-48617758D01*
X36792559Y-48759508D01*
X36949268Y-49214961D01*
X37149892Y-49645419D01*
X37393592Y-50049437D01*
X37679527Y-50425570D01*
X37902843Y-50669953D01*
X38260236Y-50999671D01*
X38639010Y-51283447D01*
X39040328Y-51521880D01*
X39465352Y-51715568D01*
X39915247Y-51865109D01*
X40391174Y-51971103D01*
X40451652Y-51981175D01*
X40615243Y-51999768D01*
X40815700Y-52010553D01*
X41039691Y-52013842D01*
X41273883Y-52009944D01*
X41504944Y-51999171D01*
X41719541Y-51981833D01*
X41904343Y-51958240D01*
X41974090Y-51945695D01*
X42437560Y-51826924D01*
X42879277Y-51663656D01*
X43296819Y-51458359D01*
X43687765Y-51213501D01*
X44049694Y-50931548D01*
X44380184Y-50614967D01*
X44676815Y-50266228D01*
X44937166Y-49887795D01*
X45158815Y-49482138D01*
X45339341Y-49051723D01*
X45476324Y-48599018D01*
X45537179Y-48314564D01*
X45565460Y-48111280D01*
X45584391Y-47874834D01*
X45593620Y-47622112D01*
X45592797Y-47370000D01*
X45581570Y-47135385D01*
X45565056Y-46973073D01*
X45476268Y-46495174D01*
X45341520Y-46037420D01*
X45162167Y-45601974D01*
X44939564Y-45190997D01*
X44675066Y-44806653D01*
X44370026Y-44451103D01*
X44025802Y-44126510D01*
X43643746Y-43835036D01*
X43566266Y-43783103D01*
X43159856Y-43546053D01*
X42736238Y-43355355D01*
X42299090Y-43210996D01*
X41852086Y-43112963D01*
X41398901Y-43061243D01*
X40943213Y-43055821D01*
X40488696Y-43096686D01*
X40039026Y-43183825D01*
X39597879Y-43317223D01*
X39168930Y-43496868D01*
X38755855Y-43722747D01*
X38633734Y-43800743D01*
X38257352Y-44079567D01*
X37913045Y-44395613D01*
X37603616Y-44744952D01*
X37331871Y-45123655D01*
X37100614Y-45527794D01*
X36912649Y-45953439D01*
X36770781Y-46396662D01*
X36765098Y-46418628D01*
X36678626Y-46849832D01*
X36634469Y-47295294D01*
X36632509Y-47745067D01*
X36615998Y-47745067D01*
X36614001Y-47661716D01*
X36613599Y-47545146D01*
G37*
G36*
X32557057Y-122016217D02*
G01*
X33675776Y-122016217D01*
X33675776Y-122626427D01*
X31946847Y-122626427D01*
X31946847Y-118888889D01*
X32557057Y-118888889D01*
X32557057Y-122016217D01*
G37*
G36*
X55796024Y-134178283D02*
G01*
X55796486Y-133929523D01*
X55797403Y-133723584D01*
X55798895Y-133556450D01*
X55801080Y-133424106D01*
X55804079Y-133322536D01*
X55808011Y-133247726D01*
X55812995Y-133195661D01*
X55819152Y-133162324D01*
X55826600Y-133143702D01*
X55835461Y-133135778D01*
X55835763Y-133135659D01*
X55877305Y-133131775D01*
X55955893Y-133133982D01*
X56058162Y-133141699D01*
X56118916Y-133147996D01*
X56379617Y-133201812D01*
X56617695Y-133299814D01*
X56829297Y-133439090D01*
X57010569Y-133616729D01*
X57157659Y-133829821D01*
X57235419Y-133991592D01*
X57285884Y-134159596D01*
X57314342Y-134350767D01*
X57319606Y-134545650D01*
X57300491Y-134724790D01*
X57284284Y-134792813D01*
X57193921Y-135032846D01*
X57069554Y-135240929D01*
X56917578Y-135415416D01*
X56719962Y-135579562D01*
X56507523Y-135696468D01*
X56275531Y-135768042D01*
X56019255Y-135796193D01*
X55972623Y-135796797D01*
X55795896Y-135796797D01*
X55795896Y-134699617D01*
X56227938Y-134699617D01*
X56228109Y-134890842D01*
X56229753Y-135040055D01*
X56233979Y-135151672D01*
X56241902Y-135230110D01*
X56254630Y-135279786D01*
X56273276Y-135305115D01*
X56298952Y-135310515D01*
X56332768Y-135300401D01*
X56375836Y-135279191D01*
X56427041Y-135252426D01*
X56554627Y-135166947D01*
X56676774Y-135048392D01*
X56777719Y-134913476D01*
X56819475Y-134836217D01*
X56847984Y-134761724D01*
X56865175Y-134680438D01*
X56873517Y-134576402D01*
X56875448Y-134474140D01*
X56874487Y-134355714D01*
X56868043Y-134270446D01*
X56852576Y-134200680D01*
X56824543Y-134128760D01*
X56792776Y-134062044D01*
X56724876Y-133945274D01*
X56647366Y-133844716D01*
X56605546Y-133803408D01*
X56529777Y-133746381D01*
X56440737Y-133690609D01*
X56353329Y-133644276D01*
X56282457Y-133615570D01*
X56253831Y-133610211D01*
X56245969Y-133635469D01*
X56239501Y-133710609D01*
X56234455Y-133834683D01*
X56230859Y-134006739D01*
X56228744Y-134225829D01*
X56228128Y-134461962D01*
X56227938Y-134699617D01*
X55795896Y-134699617D01*
X55795896Y-134473877D01*
X55796024Y-134178283D01*
G37*
G36*
X23359658Y-191586264D02*
G01*
X23451959Y-191601023D01*
X23550530Y-191627487D01*
X23775280Y-191720461D01*
X23973345Y-191851489D01*
X24141318Y-192014647D01*
X24275792Y-192204010D01*
X24373360Y-192413654D01*
X24430614Y-192637655D01*
X24444148Y-192870090D01*
X24410555Y-193105034D01*
X24407415Y-193117362D01*
X24324172Y-193343687D01*
X24200569Y-193550412D01*
X24042943Y-193731206D01*
X23857627Y-193879735D01*
X23650957Y-193989668D01*
X23480180Y-194044278D01*
X23375463Y-194059845D01*
X23244581Y-194067348D01*
X23107015Y-194066818D01*
X22982245Y-194058285D01*
X22895396Y-194043363D01*
X22653508Y-193953445D01*
X22440382Y-193823480D01*
X22259634Y-193657451D01*
X22114882Y-193459341D01*
X22009741Y-193233132D01*
X21951122Y-193003717D01*
X21937509Y-192770699D01*
X21971318Y-192541388D01*
X22049180Y-192321995D01*
X22167728Y-192118727D01*
X22323594Y-191937796D01*
X22513411Y-191785412D01*
X22656497Y-191703073D01*
X22761022Y-191653203D01*
X22843431Y-191621241D01*
X22922877Y-191602350D01*
X23018511Y-191591695D01*
X23120959Y-191585782D01*
X23255804Y-191581813D01*
X23359658Y-191586264D01*
G37*
G36*
X47119470Y-10795564D02*
G01*
X47135942Y-10811179D01*
X47148122Y-10839147D01*
X47156828Y-10886864D01*
X47162882Y-10961723D01*
X47167103Y-11071122D01*
X47170312Y-11222456D01*
X47170921Y-11259448D01*
X47177878Y-11695296D01*
X47292490Y-11695296D01*
X47379949Y-11708545D01*
X47426606Y-11742003D01*
X47432973Y-11786232D01*
X47399563Y-11831796D01*
X47326888Y-11869258D01*
X47282407Y-11880783D01*
X47177193Y-11901590D01*
X47170579Y-13047549D01*
X47168949Y-13318762D01*
X47167328Y-13543627D01*
X47165497Y-13726646D01*
X47163236Y-13872323D01*
X47160325Y-13985159D01*
X47156543Y-14069658D01*
X47151671Y-14130321D01*
X47145490Y-14171652D01*
X47137779Y-14198152D01*
X47128318Y-14214325D01*
X47116888Y-14224673D01*
X47112964Y-14227367D01*
X47053012Y-14246942D01*
X47025201Y-14238504D01*
X47016433Y-14227081D01*
X47009249Y-14201866D01*
X47003543Y-14158654D01*
X46999212Y-14093239D01*
X46996150Y-14001415D01*
X46994254Y-13878976D01*
X46993419Y-13721717D01*
X46993539Y-13525430D01*
X46994512Y-13285910D01*
X46995853Y-13057241D01*
X47003267Y-11898699D01*
X45778791Y-11898699D01*
X45772179Y-13061912D01*
X45765566Y-14225126D01*
X44545145Y-14225126D01*
X44532075Y-10805406D01*
X45778278Y-10805406D01*
X45778278Y-11720721D01*
X47005565Y-11720721D01*
X46995776Y-11272364D01*
X46992648Y-11109948D01*
X46991772Y-10990989D01*
X46993684Y-10908126D01*
X46998919Y-10853992D01*
X47008015Y-10821226D01*
X47021506Y-10802463D01*
X47030481Y-10795767D01*
X47085002Y-10781103D01*
X47119470Y-10795564D01*
G37*
G36*
X31768869Y-119499099D02*
G01*
X31696660Y-119499099D01*
X31602347Y-119509277D01*
X31478574Y-119536586D01*
X31341743Y-119576189D01*
X31208255Y-119623252D01*
X31094512Y-119672936D01*
X31077749Y-119681598D01*
X30892167Y-119805461D01*
X30727653Y-119963985D01*
X30591259Y-120147405D01*
X30490037Y-120345954D01*
X30431038Y-120549866D01*
X30425665Y-120584726D01*
X30417994Y-120827392D01*
X30458502Y-121061928D01*
X30544594Y-121282914D01*
X30673670Y-121484930D01*
X30843134Y-121662558D01*
X30997771Y-121778188D01*
X31103850Y-121836627D01*
X31231725Y-121892667D01*
X31365570Y-121940718D01*
X31489560Y-121975191D01*
X31587870Y-121990494D01*
X31599651Y-121990791D01*
X31668384Y-121992112D01*
X31715414Y-122001481D01*
X31744858Y-122027007D01*
X31760835Y-122076799D01*
X31767461Y-122158967D01*
X31768855Y-122281621D01*
X31768869Y-122324042D01*
X31768869Y-122626427D01*
X31673524Y-122623203D01*
X31595312Y-122618042D01*
X31492948Y-122608084D01*
X31417013Y-122599071D01*
X31131758Y-122537926D01*
X30863955Y-122430275D01*
X30611691Y-122275140D01*
X30373056Y-122071539D01*
X30356739Y-122055373D01*
X30152383Y-121821794D01*
X29996780Y-121577118D01*
X29888377Y-121317696D01*
X29825624Y-121039876D01*
X29806874Y-120761047D01*
X29828405Y-120464629D01*
X29893993Y-120190145D01*
X30005129Y-119934250D01*
X30163305Y-119693601D01*
X30370011Y-119464855D01*
X30396012Y-119440053D01*
X30638935Y-119245774D01*
X30910796Y-119090275D01*
X31203960Y-118977009D01*
X31510790Y-118909424D01*
X31591340Y-118899812D01*
X31768869Y-118882319D01*
X31768869Y-119499099D01*
G37*
G36*
X22361462Y-166561562D02*
G01*
X22252389Y-166561562D01*
X22053097Y-166584465D01*
X21846379Y-166649891D01*
X21643095Y-166752912D01*
X21454105Y-166888602D01*
X21376953Y-166958680D01*
X21220000Y-167144586D01*
X21108003Y-167346822D01*
X21039985Y-167559903D01*
X21014970Y-167778341D01*
X21031980Y-167996650D01*
X21090039Y-168209343D01*
X21188170Y-168410935D01*
X21325396Y-168595938D01*
X21500740Y-168758866D01*
X21713226Y-168894232D01*
X21722409Y-168898958D01*
X21810898Y-168936472D01*
X21926317Y-168975161D01*
X22051681Y-169010401D01*
X22170004Y-169037569D01*
X22264302Y-169052042D01*
X22289252Y-169053254D01*
X22361462Y-169053254D01*
X22361462Y-169663464D01*
X22215265Y-169660473D01*
X22106555Y-169654843D01*
X21995420Y-169643915D01*
X21948482Y-169637182D01*
X21665946Y-169564365D01*
X21398469Y-169445667D01*
X21151355Y-169285116D01*
X20929909Y-169086738D01*
X20739435Y-168854558D01*
X20592981Y-168608309D01*
X20480184Y-168327690D01*
X20416452Y-168039475D01*
X20401849Y-167748153D01*
X20436437Y-167458215D01*
X20520281Y-167174152D01*
X20571078Y-167055808D01*
X20719275Y-166799655D01*
X20907510Y-166569290D01*
X21129799Y-166368875D01*
X21380157Y-166202575D01*
X21652598Y-166074552D01*
X21941137Y-165988969D01*
X22151702Y-165956328D01*
X22361462Y-165936091D01*
X22361462Y-166561562D01*
G37*
G36*
X31965916Y-129622526D02*
G01*
X32098408Y-129628477D01*
X32195615Y-129638469D01*
X32273091Y-129655385D01*
X32346388Y-129682104D01*
X32387619Y-129700645D01*
X32572358Y-129804695D01*
X32718969Y-129928818D01*
X32837680Y-130080619D01*
X32941801Y-130285431D01*
X32997585Y-130498448D01*
X33005574Y-130713842D01*
X32966308Y-130925786D01*
X32880326Y-131128451D01*
X32748168Y-131316009D01*
X32720326Y-131346851D01*
X32599428Y-131463107D01*
X32480710Y-131545540D01*
X32344944Y-131606450D01*
X32281538Y-131627549D01*
X32137538Y-131672060D01*
X32130374Y-131967361D01*
X32123211Y-132262663D01*
X31692593Y-132262663D01*
X31692593Y-130648149D01*
X32124825Y-130648149D01*
X32124904Y-130841365D01*
X32126226Y-130988632D01*
X32130420Y-131094850D01*
X32139113Y-131164919D01*
X32153934Y-131203738D01*
X32176511Y-131216208D01*
X32208472Y-131207229D01*
X32251446Y-131181700D01*
X32292899Y-131153961D01*
X32414176Y-131055489D01*
X32497678Y-130942599D01*
X32546558Y-130829158D01*
X32576258Y-130667342D01*
X32559834Y-130506026D01*
X32500904Y-130355522D01*
X32403087Y-130226138D01*
X32308310Y-130150380D01*
X32236896Y-130108730D01*
X32179653Y-130081768D01*
X32157985Y-130076076D01*
X32146864Y-130085960D01*
X32138387Y-130119091D01*
X32132251Y-130180691D01*
X32128155Y-130275980D01*
X32125795Y-130410179D01*
X32124869Y-130588510D01*
X32124825Y-130648149D01*
X31692593Y-130648149D01*
X31692593Y-129613920D01*
X31965916Y-129622526D01*
G37*
G36*
X50094737Y-130817918D02*
G01*
X50142024Y-130666473D01*
X50196056Y-130493228D01*
X50252662Y-130311565D01*
X50307667Y-130134863D01*
X50308159Y-130133284D01*
X50468336Y-129618419D01*
X50853242Y-129618419D01*
X51252534Y-130900682D01*
X51329187Y-131146668D01*
X51401578Y-131378649D01*
X51468246Y-131591963D01*
X51527730Y-131781952D01*
X51578569Y-131943954D01*
X51619300Y-132073311D01*
X51648464Y-132165361D01*
X51664599Y-132215445D01*
X51667122Y-132222804D01*
X51668148Y-132241809D01*
X51647837Y-132253702D01*
X51597688Y-132260059D01*
X51509197Y-132262456D01*
X51452180Y-132262663D01*
X51221943Y-132262663D01*
X51125286Y-131963914D01*
X51028629Y-131665166D01*
X50292216Y-131665166D01*
X50194893Y-131963914D01*
X50097569Y-132262663D01*
X49870256Y-132262663D01*
X49769914Y-132262005D01*
X49692323Y-132260245D01*
X49648838Y-132257699D01*
X49643411Y-132256307D01*
X49650851Y-132231066D01*
X49670712Y-132167273D01*
X49699897Y-132074801D01*
X49732400Y-131972633D01*
X49767577Y-131860657D01*
X49796131Y-131766384D01*
X49814930Y-131700383D01*
X49820921Y-131673885D01*
X49799592Y-131656461D01*
X49770070Y-131652453D01*
X49745345Y-131648431D01*
X49730242Y-131629737D01*
X49722423Y-131586428D01*
X49719546Y-131508560D01*
X49719219Y-131436337D01*
X49719219Y-131220221D01*
X49968756Y-131220221D01*
X49976135Y-131196667D01*
X50436503Y-131196667D01*
X50453155Y-131209810D01*
X50496491Y-131216928D01*
X50575370Y-131219794D01*
X50659960Y-131220221D01*
X50770204Y-131219329D01*
X50838475Y-131215471D01*
X50873636Y-131206874D01*
X50884550Y-131191764D01*
X50882334Y-131175726D01*
X50852969Y-131074598D01*
X50817550Y-130959185D01*
X50779341Y-130839322D01*
X50741607Y-130724844D01*
X50707612Y-130625586D01*
X50680619Y-130551381D01*
X50663893Y-130512064D01*
X50660816Y-130508309D01*
X50649046Y-130530971D01*
X50625624Y-130592394D01*
X50593841Y-130682735D01*
X50556988Y-130792148D01*
X50518356Y-130910790D01*
X50481238Y-131028817D01*
X50448924Y-131136384D01*
X50437674Y-131175726D01*
X50436503Y-131196667D01*
X49976135Y-131196667D01*
X50058369Y-130934185D01*
X50094737Y-130817918D01*
G37*
G36*
X43815851Y-118888889D02*
G01*
X44023615Y-118895013D01*
X44197804Y-118915539D01*
X44354451Y-118953696D01*
X44509590Y-119012713D01*
X44570814Y-119040960D01*
X44797198Y-119175113D01*
X44993035Y-119342715D01*
X45155222Y-119537867D01*
X45280657Y-119754672D01*
X45366238Y-119987232D01*
X45408862Y-120229649D01*
X45405428Y-120476025D01*
X45386836Y-120592393D01*
X45306793Y-120857828D01*
X45183474Y-121098172D01*
X45018562Y-121310364D01*
X44958857Y-121370328D01*
X44864313Y-121454652D01*
X44767335Y-121532423D01*
X44683358Y-121591576D01*
X44653053Y-121609366D01*
X44585891Y-121647541D01*
X44542100Y-121677817D01*
X44532433Y-121689348D01*
X44553703Y-121715608D01*
X44609770Y-121755949D01*
X44689015Y-121803681D01*
X44779817Y-121852113D01*
X44870560Y-121894555D01*
X44928207Y-121917253D01*
X45034957Y-121948883D01*
X45147401Y-121973341D01*
X45204032Y-121981403D01*
X45305044Y-121990720D01*
X45373613Y-122001156D01*
X45415971Y-122021454D01*
X45438351Y-122060357D01*
X45446983Y-122126609D01*
X45448101Y-122228953D01*
X45447748Y-122323346D01*
X45447748Y-122629506D01*
X45263414Y-122613139D01*
X45026785Y-122577156D01*
X44788148Y-122513627D01*
X44561922Y-122427695D01*
X44362526Y-122324505D01*
X44260146Y-122255218D01*
X44178549Y-122193188D01*
X44171157Y-122403451D01*
X44163764Y-122613714D01*
X43865015Y-122620877D01*
X43566266Y-122628041D01*
X43566266Y-120337797D01*
X44176477Y-120337797D01*
X44176896Y-120572846D01*
X44178263Y-120761247D01*
X44180743Y-120907198D01*
X44184498Y-121014896D01*
X44189693Y-121088539D01*
X44196492Y-121132324D01*
X44205059Y-121150448D01*
X44208258Y-121151514D01*
X44246350Y-121139435D01*
X44311728Y-121108469D01*
X44369146Y-121077223D01*
X44533443Y-120955884D01*
X44659791Y-120806393D01*
X44746727Y-120636018D01*
X44792787Y-120452028D01*
X44796507Y-120261690D01*
X44756425Y-120072274D01*
X44671076Y-119891048D01*
X44622232Y-119820240D01*
X44515315Y-119711217D01*
X44376048Y-119614955D01*
X44271822Y-119563498D01*
X44176477Y-119523843D01*
X44176477Y-120337797D01*
X43566266Y-120337797D01*
X43566266Y-118888889D01*
X43815851Y-118888889D01*
G37*
G36*
X51931231Y-71952581D02*
G01*
X53062663Y-71966267D01*
X53069826Y-72265015D01*
X53076989Y-72563764D01*
X51321021Y-72563764D01*
X51321021Y-68851652D01*
X51931231Y-68851652D01*
X51931231Y-71952581D01*
G37*
G36*
X35243876Y-165937293D02*
G01*
X35590765Y-165980741D01*
X35915323Y-166066332D01*
X36072122Y-166126536D01*
X36192893Y-166178373D01*
X36192893Y-165924313D01*
X36790391Y-165938639D01*
X36796912Y-167801051D01*
X36803433Y-169663464D01*
X36192893Y-169663464D01*
X36192893Y-166921917D01*
X36084835Y-166842149D01*
X35996612Y-166784328D01*
X35885332Y-166721433D01*
X35768928Y-166662703D01*
X35665335Y-166617380D01*
X35614465Y-166599795D01*
X35557257Y-166583561D01*
X35557257Y-169663464D01*
X34947047Y-169663464D01*
X34947047Y-165919014D01*
X35243876Y-165937293D01*
G37*
G36*
X39299230Y-118895595D02*
G01*
X39305145Y-118897177D01*
X39323063Y-118911810D01*
X39334931Y-118945065D01*
X39341884Y-119005522D01*
X39345060Y-119101762D01*
X39345646Y-119202947D01*
X39345646Y-119493176D01*
X39185891Y-119510284D01*
X38923604Y-119563056D01*
X38679677Y-119661894D01*
X38459211Y-119804251D01*
X38297549Y-119953795D01*
X38147098Y-120150639D01*
X38042340Y-120363721D01*
X37984479Y-120588084D01*
X37974723Y-120818774D01*
X38014278Y-121050836D01*
X38023148Y-121080988D01*
X38085634Y-121236146D01*
X38174673Y-121396102D01*
X38277984Y-121540781D01*
X38357071Y-121626836D01*
X38490300Y-121732588D01*
X38649574Y-121828088D01*
X38820659Y-121907007D01*
X38989318Y-121963016D01*
X39141314Y-121989788D01*
X39176702Y-121991181D01*
X39246550Y-121993272D01*
X39294055Y-122004359D01*
X39323220Y-122032578D01*
X39338048Y-122086062D01*
X39342541Y-122172947D01*
X39340703Y-122301366D01*
X39340162Y-122323362D01*
X39332933Y-122613714D01*
X39231231Y-122617546D01*
X39147439Y-122615741D01*
X39042584Y-122606971D01*
X38977967Y-122598721D01*
X38720330Y-122544889D01*
X38487456Y-122461221D01*
X38262414Y-122340834D01*
X38135541Y-122256261D01*
X37911848Y-122068190D01*
X37723827Y-121849519D01*
X37573240Y-121606187D01*
X37461851Y-121344134D01*
X37391422Y-121069299D01*
X37363717Y-120787624D01*
X37380499Y-120505046D01*
X37443530Y-120227506D01*
X37493148Y-120091980D01*
X37630229Y-119827396D01*
X37808399Y-119587824D01*
X38022493Y-119377156D01*
X38267343Y-119199283D01*
X38537784Y-119058095D01*
X38828647Y-118957484D01*
X39062355Y-118910243D01*
X39162729Y-118898587D01*
X39246752Y-118893431D01*
X39299230Y-118895595D01*
G37*
G36*
X34762878Y-167801051D02*
G01*
X34769399Y-169663464D01*
X34158529Y-169663464D01*
X34165050Y-167801051D01*
X34171572Y-165938639D01*
X34756356Y-165938639D01*
X34762878Y-167801051D01*
G37*
G36*
X51117618Y-69461862D02*
G01*
X49820921Y-69461862D01*
X49820921Y-69665266D01*
X51143043Y-69665266D01*
X51143043Y-70275476D01*
X49816153Y-70275476D01*
X49824893Y-70639215D01*
X49828668Y-70782361D01*
X49833510Y-70886671D01*
X49841701Y-70964144D01*
X49855522Y-71026779D01*
X49877257Y-71086577D01*
X49909187Y-71155537D01*
X49931844Y-71201561D01*
X50066539Y-71418620D01*
X50237981Y-71601572D01*
X50443577Y-71748530D01*
X50680737Y-71857610D01*
X50922868Y-71922566D01*
X51143043Y-71964133D01*
X51143043Y-72563764D01*
X50996847Y-72561375D01*
X50891561Y-72554706D01*
X50767228Y-72539835D01*
X50672673Y-72524030D01*
X50516771Y-72480108D01*
X50340643Y-72408827D01*
X50160582Y-72318212D01*
X49992880Y-72216291D01*
X49881073Y-72134057D01*
X49695282Y-71954785D01*
X49528417Y-71739886D01*
X49389174Y-71503109D01*
X49286246Y-71258204D01*
X49251438Y-71138316D01*
X49227102Y-70992465D01*
X49213673Y-70798608D01*
X49210711Y-70623451D01*
X49210711Y-70275476D01*
X48981882Y-70275476D01*
X48981882Y-69668189D01*
X49197998Y-69652553D01*
X49205000Y-69252103D01*
X49212002Y-68851652D01*
X51117618Y-68851652D01*
X51117618Y-69461862D01*
G37*
G36*
X53133665Y-167757482D02*
G01*
X53179635Y-167611015D01*
X53234925Y-167434442D01*
X53296649Y-167236990D01*
X53361921Y-167027884D01*
X53427857Y-166816353D01*
X53449796Y-166745896D01*
X53697130Y-165951352D01*
X54232277Y-165951352D01*
X54800855Y-167774706D01*
X54892491Y-168068473D01*
X54979891Y-168348460D01*
X55061849Y-168610825D01*
X55137164Y-168851726D01*
X55204632Y-169067320D01*
X55263050Y-169253765D01*
X55311214Y-169407219D01*
X55347923Y-169523840D01*
X55371972Y-169599786D01*
X55382158Y-169631214D01*
X55382281Y-169631544D01*
X55378315Y-169645495D01*
X55349216Y-169654484D01*
X55288317Y-169659075D01*
X55188948Y-169659828D01*
X55070027Y-169657890D01*
X54744924Y-169650751D01*
X54617417Y-169237588D01*
X54489909Y-168824425D01*
X53441568Y-168824425D01*
X53183124Y-169650751D01*
X52862283Y-169657867D01*
X52741296Y-169659548D01*
X52641180Y-169659030D01*
X52571508Y-169656503D01*
X52541857Y-169652158D01*
X52541442Y-169651478D01*
X52548866Y-169623927D01*
X52569396Y-169556407D01*
X52600414Y-169457307D01*
X52639303Y-169335017D01*
X52668569Y-169243944D01*
X52711253Y-169110999D01*
X52747836Y-168995828D01*
X52775705Y-168906753D01*
X52792249Y-168852098D01*
X52795696Y-168838859D01*
X52773756Y-168828310D01*
X52725776Y-168819757D01*
X52655856Y-168811712D01*
X52648717Y-168500251D01*
X52641578Y-168188789D01*
X52997342Y-168188789D01*
X52999353Y-168182433D01*
X53635321Y-168182433D01*
X53658944Y-168184800D01*
X53723987Y-168186767D01*
X53821020Y-168188152D01*
X53940615Y-168188773D01*
X53964467Y-168188789D01*
X54105401Y-168187626D01*
X54201447Y-168183743D01*
X54258521Y-168176552D01*
X54282542Y-168165463D01*
X54283659Y-168157007D01*
X54272986Y-168123647D01*
X54249634Y-168049964D01*
X54216189Y-167944140D01*
X54175239Y-167814357D01*
X54129367Y-167668798D01*
X54128980Y-167667568D01*
X54083039Y-167522695D01*
X54041744Y-167394341D01*
X54007705Y-167290477D01*
X53983536Y-167219071D01*
X53971849Y-167188094D01*
X53971768Y-167187954D01*
X53961886Y-167206463D01*
X53939237Y-167264859D01*
X53906696Y-167354645D01*
X53867138Y-167467323D01*
X53823439Y-167594395D01*
X53778473Y-167727363D01*
X53735115Y-167857729D01*
X53696241Y-167976996D01*
X53664724Y-168076664D01*
X53643441Y-168148238D01*
X53635321Y-168182433D01*
X52999353Y-168182433D01*
X53099901Y-167864615D01*
X53133665Y-167757482D01*
G37*
G36*
X31514615Y-72563764D02*
G01*
X30904405Y-72563764D01*
X30904405Y-68851652D01*
X31514615Y-68851652D01*
X31514615Y-72563764D01*
G37*
G36*
X33574074Y-131830431D02*
G01*
X34387688Y-131830431D01*
X34387688Y-132262663D01*
X33141842Y-132262663D01*
X33141842Y-129618419D01*
X33574074Y-129618419D01*
X33574074Y-131830431D01*
G37*
G36*
X56164565Y-165938639D02*
G01*
X56171116Y-167495946D01*
X56177668Y-169053254D01*
X57295996Y-169053254D01*
X57295996Y-169663464D01*
X55567067Y-169663464D01*
X55567067Y-165924313D01*
X56164565Y-165938639D01*
G37*
G36*
X30230631Y-69447824D02*
G01*
X30120901Y-69466515D01*
X30000403Y-69502018D01*
X29894963Y-69560398D01*
X29821478Y-69632011D01*
X29815843Y-69640653D01*
X29787177Y-69726774D01*
X29784619Y-69832991D01*
X29807881Y-69935936D01*
X29819813Y-69962614D01*
X29852380Y-70007128D01*
X29914932Y-70077308D01*
X29999607Y-70164862D01*
X30098540Y-70261496D01*
X30141799Y-70302189D01*
X30249856Y-70405331D01*
X30352244Y-70507838D01*
X30439271Y-70599681D01*
X30501247Y-70670830D01*
X30514263Y-70687667D01*
X30625629Y-70880315D01*
X30695526Y-71092590D01*
X30723104Y-71314700D01*
X30707515Y-71536854D01*
X30647910Y-71749260D01*
X30613014Y-71826427D01*
X30482323Y-72030212D01*
X30312868Y-72209007D01*
X30112947Y-72357087D01*
X29890857Y-72468723D01*
X29654894Y-72538190D01*
X29560823Y-72552624D01*
X29404304Y-72570332D01*
X29404304Y-71960466D01*
X29518800Y-71944772D01*
X29683997Y-71899618D01*
X29839247Y-71815646D01*
X29971382Y-71701926D01*
X30067233Y-71567527D01*
X30067593Y-71566829D01*
X30105869Y-71448706D01*
X30113569Y-71316870D01*
X30090289Y-71194152D01*
X30074832Y-71157747D01*
X30043558Y-71112925D01*
X29983047Y-71040116D01*
X29900196Y-70947113D01*
X29801902Y-70841709D01*
X29721562Y-70758559D01*
X29550362Y-70578127D01*
X29416372Y-70422874D01*
X29315859Y-70287824D01*
X29245093Y-70167997D01*
X29203036Y-70066876D01*
X29180515Y-69953207D01*
X29173533Y-69813217D01*
X29181724Y-69668882D01*
X29204726Y-69542181D01*
X29212121Y-69517702D01*
X29278536Y-69377017D01*
X29379270Y-69235394D01*
X29501128Y-69110005D01*
X29563421Y-69060505D01*
X29681059Y-68990141D01*
X29820318Y-68928039D01*
X29963049Y-68880800D01*
X30091104Y-68855025D01*
X30136092Y-68852188D01*
X30244957Y-68851652D01*
X30230631Y-69447824D01*
G37*
G36*
X24102179Y-167422425D02*
G01*
X24163478Y-167212778D01*
X24253933Y-167006507D01*
X24406582Y-166742916D01*
X24583696Y-166520593D01*
X24791350Y-166333394D01*
X25035621Y-166175177D01*
X25120120Y-166130860D01*
X25340957Y-166036847D01*
X25562300Y-165978356D01*
X25801484Y-165951499D01*
X25932690Y-165948718D01*
X26237482Y-165973412D01*
X26523632Y-166045321D01*
X26791672Y-166164669D01*
X27042134Y-166331678D01*
X27214475Y-166484111D01*
X27420958Y-166719941D01*
X27580002Y-166974001D01*
X27691494Y-167246004D01*
X27755319Y-167535662D01*
X27771363Y-167842685D01*
X27769941Y-167883684D01*
X27738057Y-168170907D01*
X27667163Y-168432569D01*
X27554206Y-168675420D01*
X27396133Y-168906207D01*
X27217861Y-169104105D01*
X26992296Y-169303890D01*
X26761077Y-169455717D01*
X26517793Y-169562469D01*
X26256031Y-169627035D01*
X26001863Y-169651370D01*
X25873428Y-169653264D01*
X25749117Y-169650535D01*
X25646879Y-169643781D01*
X25603704Y-169638066D01*
X25336950Y-169565496D01*
X25075443Y-169447734D01*
X24828941Y-169290239D01*
X24607201Y-169098470D01*
X24569519Y-169059508D01*
X24377054Y-168821415D01*
X24232195Y-168566486D01*
X24133810Y-168292045D01*
X24080771Y-167995418D01*
X24072606Y-167883684D01*
X24072945Y-167730960D01*
X24680628Y-167730960D01*
X24685111Y-167963171D01*
X24724937Y-168169326D01*
X24803589Y-168363000D01*
X24873605Y-168483114D01*
X25022934Y-168669728D01*
X25204191Y-168822624D01*
X25409894Y-168938834D01*
X25632563Y-169015388D01*
X25864714Y-169049319D01*
X26098866Y-169037656D01*
X26212357Y-169014322D01*
X26447974Y-168927812D01*
X26659888Y-168799724D01*
X26842727Y-168635251D01*
X26991118Y-168439586D01*
X27099686Y-168217923D01*
X27129342Y-168128097D01*
X27153807Y-168015555D01*
X27164335Y-167887723D01*
X27162673Y-167733708D01*
X27155701Y-167610003D01*
X27143395Y-167517293D01*
X27121100Y-167435726D01*
X27084158Y-167345451D01*
X27058864Y-167291105D01*
X26929796Y-167071590D01*
X26767677Y-166889707D01*
X26568798Y-166741689D01*
X26458117Y-166681031D01*
X26242673Y-166574275D01*
X25922938Y-166574275D01*
X25789486Y-166574758D01*
X25693335Y-166577863D01*
X25620937Y-166586073D01*
X25558742Y-166601871D01*
X25493202Y-166627739D01*
X25410766Y-166666161D01*
X25404060Y-166669363D01*
X25187097Y-166800214D01*
X24999769Y-166969200D01*
X24848502Y-167169910D01*
X24785345Y-167286541D01*
X24740027Y-167387474D01*
X24711118Y-167471429D01*
X24694015Y-167557946D01*
X24684112Y-167666567D01*
X24680628Y-167730960D01*
X24072945Y-167730960D01*
X24073147Y-167639970D01*
X24102179Y-167422425D01*
G37*
G36*
X23149650Y-169053254D02*
G01*
X24268368Y-169053254D01*
X24268368Y-169663464D01*
X22539110Y-169663464D01*
X22545631Y-167801051D01*
X22552152Y-165938639D01*
X23149650Y-165924313D01*
X23149650Y-169053254D01*
G37*
G36*
X52357272Y-167801051D02*
G01*
X52363794Y-169663464D01*
X51753253Y-169663464D01*
X51753253Y-166921917D01*
X51645195Y-166842149D01*
X51556972Y-166784328D01*
X51445692Y-166721433D01*
X51329288Y-166662703D01*
X51225696Y-166617380D01*
X51174825Y-166599795D01*
X51117618Y-166583561D01*
X51117618Y-169663464D01*
X50507078Y-169663464D01*
X50513599Y-167801051D01*
X50520120Y-165938639D01*
X50787087Y-165944604D01*
X51079574Y-165967640D01*
X51350180Y-166025417D01*
X51580320Y-166106107D01*
X51750629Y-166176214D01*
X51758298Y-166057427D01*
X51765966Y-165938639D01*
X52350751Y-165938639D01*
X52357272Y-167801051D01*
G37*
G36*
X36616578Y-97232710D02*
G01*
X36621782Y-97107143D01*
X36630453Y-97000030D01*
X36643335Y-96900577D01*
X36661171Y-96797990D01*
X36671083Y-96747570D01*
X36791295Y-96274936D01*
X36955501Y-95825923D01*
X37161626Y-95402623D01*
X37407597Y-95007127D01*
X37691339Y-94641524D01*
X38010778Y-94307906D01*
X38363841Y-94008364D01*
X38748453Y-93744989D01*
X39162540Y-93519872D01*
X39604027Y-93335102D01*
X40070842Y-93192773D01*
X40235536Y-93154295D01*
X40329490Y-93135207D01*
X40417439Y-93120761D01*
X40508845Y-93110316D01*
X40613171Y-93103230D01*
X40739880Y-93098863D01*
X40898436Y-93096572D01*
X41098301Y-93095717D01*
X41100000Y-93095715D01*
X41299244Y-93095916D01*
X41457233Y-93097627D01*
X41583554Y-93101483D01*
X41687794Y-93108117D01*
X41779542Y-93118162D01*
X41868385Y-93132252D01*
X41963910Y-93151021D01*
X41976303Y-93153623D01*
X42453658Y-93279116D01*
X42906979Y-93448517D01*
X43334409Y-93660587D01*
X43734095Y-93914085D01*
X44104181Y-94207773D01*
X44442813Y-94540410D01*
X44748136Y-94910758D01*
X44875044Y-95090691D01*
X45082023Y-95436770D01*
X45263365Y-95816652D01*
X45413831Y-96217561D01*
X45528183Y-96626719D01*
X45554342Y-96747570D01*
X45574668Y-96855130D01*
X45589702Y-96954665D01*
X45600189Y-97056970D01*
X45606872Y-97172838D01*
X45610494Y-97313064D01*
X45611798Y-97488440D01*
X45611826Y-97582383D01*
X45606233Y-97892568D01*
X45588523Y-98166071D01*
X45556191Y-98416148D01*
X45506729Y-98656050D01*
X45437629Y-98899032D01*
X45346384Y-99158347D01*
X45283238Y-99319201D01*
X45095683Y-99717906D01*
X44863016Y-100102245D01*
X44590290Y-100466193D01*
X44282555Y-100803724D01*
X43944862Y-101108813D01*
X43582263Y-101375433D01*
X43532638Y-101407540D01*
X43142314Y-101626934D01*
X42724882Y-101807180D01*
X42287612Y-101946603D01*
X41837773Y-102043528D01*
X41382633Y-102096277D01*
X40929461Y-102103177D01*
X40616917Y-102079783D01*
X40145680Y-102000806D01*
X39686776Y-101873483D01*
X39244291Y-101699508D01*
X38822313Y-101480571D01*
X38424929Y-101218365D01*
X38295015Y-101118758D01*
X37960864Y-100822763D01*
X37654269Y-100490722D01*
X37380862Y-100130125D01*
X37146274Y-99748460D01*
X36956134Y-99353219D01*
X36942187Y-99319201D01*
X36837141Y-99044577D01*
X36755675Y-98793870D01*
X36695282Y-98553828D01*
X36653454Y-98311196D01*
X36627684Y-98052721D01*
X36615464Y-97765149D01*
X36613599Y-97582383D01*
X36613796Y-97505417D01*
X36631806Y-97505417D01*
X36632629Y-97757528D01*
X36643855Y-97992143D01*
X36660369Y-98154455D01*
X36748620Y-98629621D01*
X36881789Y-99083449D01*
X37057716Y-99513821D01*
X37274243Y-99918622D01*
X37529210Y-100295738D01*
X37820458Y-100643051D01*
X38145828Y-100958448D01*
X38503161Y-101239811D01*
X38890297Y-101485026D01*
X39305077Y-101691977D01*
X39745343Y-101858548D01*
X40208934Y-101982624D01*
X40642342Y-102055965D01*
X40800132Y-102068477D01*
X40993523Y-102072737D01*
X41208034Y-102069295D01*
X41429181Y-102058697D01*
X41642484Y-102041491D01*
X41833458Y-102018225D01*
X41892707Y-102008688D01*
X42348431Y-101904193D01*
X42786215Y-101753796D01*
X43203173Y-101560166D01*
X43596419Y-101325969D01*
X43963070Y-101053876D01*
X44300239Y-100746554D01*
X44605042Y-100406672D01*
X44874593Y-100036899D01*
X45106008Y-99639902D01*
X45296402Y-99218350D01*
X45442889Y-98774913D01*
X45460327Y-98708900D01*
X45546577Y-98279107D01*
X45590797Y-97835053D01*
X45593107Y-97386737D01*
X45553624Y-96944157D01*
X45472466Y-96517312D01*
X45432665Y-96368020D01*
X45275357Y-95912368D01*
X45073792Y-95481345D01*
X44828776Y-95076318D01*
X44541119Y-94698652D01*
X44273523Y-94409879D01*
X43915584Y-94088487D01*
X43536179Y-93812594D01*
X43133343Y-93581156D01*
X42705113Y-93393127D01*
X42249524Y-93247461D01*
X41964465Y-93180421D01*
X41860535Y-93160128D01*
X41766191Y-93144955D01*
X41671214Y-93134207D01*
X41565382Y-93127185D01*
X41438475Y-93123193D01*
X41280271Y-93121534D01*
X41100000Y-93121466D01*
X40902174Y-93122529D01*
X40745265Y-93125215D01*
X40619350Y-93130212D01*
X40514503Y-93138211D01*
X40420800Y-93149902D01*
X40328318Y-93165973D01*
X40260961Y-93179778D01*
X39791461Y-93301451D01*
X39355495Y-93459468D01*
X38948895Y-93656049D01*
X38567492Y-93893414D01*
X38207118Y-94173784D01*
X37951903Y-94409879D01*
X37631722Y-94762345D01*
X37352065Y-95144419D01*
X37114632Y-95552873D01*
X36921119Y-95984475D01*
X36773225Y-96435998D01*
X36688247Y-96812965D01*
X36659966Y-97016249D01*
X36641035Y-97252695D01*
X36631806Y-97505417D01*
X36613796Y-97505417D01*
X36614098Y-97387526D01*
X36616578Y-97232710D01*
G37*
G36*
X48041141Y-130050651D02*
G01*
X47558058Y-130050651D01*
X47558058Y-132262663D01*
X47125826Y-132262663D01*
X47125826Y-130050651D01*
X46617317Y-130050651D01*
X46617317Y-129618419D01*
X48041141Y-129618419D01*
X48041141Y-130050651D01*
G37*
G36*
X29588639Y-133132456D02*
G01*
X29798399Y-133139840D01*
X29804982Y-134468319D01*
X29811565Y-135796797D01*
X29378879Y-135796797D01*
X29378879Y-134169570D01*
X28717818Y-134169570D01*
X28717818Y-135796797D01*
X28285586Y-135796797D01*
X28285586Y-134172792D01*
X28202953Y-134164825D01*
X28120320Y-134156857D01*
X28120320Y-133724625D01*
X28202953Y-133716658D01*
X28285586Y-133708690D01*
X28285586Y-133127128D01*
X28717818Y-133127128D01*
X28717818Y-133711912D01*
X29378879Y-133711912D01*
X29378879Y-133125071D01*
X29588639Y-133132456D01*
G37*
G36*
X33566547Y-191608816D02*
G01*
X33808266Y-191687362D01*
X33891177Y-191726143D01*
X34035469Y-191820167D01*
X34178503Y-191950864D01*
X34308204Y-192105218D01*
X34412497Y-192270216D01*
X34431984Y-192309065D01*
X34476596Y-192407307D01*
X34505277Y-192487087D01*
X34522191Y-192566687D01*
X34531502Y-192664385D01*
X34536231Y-192766627D01*
X34538956Y-192900653D01*
X34534215Y-193002070D01*
X34520080Y-193088819D01*
X34494622Y-193178839D01*
X34490623Y-193190988D01*
X34387562Y-193426282D01*
X34247706Y-193630095D01*
X34075513Y-193799177D01*
X33875440Y-193930273D01*
X33651944Y-194020132D01*
X33409482Y-194065500D01*
X33285360Y-194070505D01*
X33133047Y-194061601D01*
X32994374Y-194039067D01*
X32938439Y-194023926D01*
X32702354Y-193923491D01*
X32496406Y-193786080D01*
X32325163Y-193615418D01*
X32194382Y-193417513D01*
X32115599Y-193240721D01*
X32069013Y-193066985D01*
X32050887Y-192878139D01*
X32052996Y-192730046D01*
X32061327Y-192607994D01*
X32076087Y-192515511D01*
X32102568Y-192431327D01*
X32146062Y-192334173D01*
X32157105Y-192311645D01*
X32293053Y-192088888D01*
X32459164Y-191904092D01*
X32650421Y-191758950D01*
X32861805Y-191655157D01*
X33088299Y-191594408D01*
X33324886Y-191578396D01*
X33566547Y-191608816D01*
G37*
G36*
X31749471Y-70262940D02*
G01*
X31843567Y-69992232D01*
X31940899Y-69805350D01*
X32092224Y-69595033D01*
X32282702Y-69395609D01*
X32500640Y-69217418D01*
X32734344Y-69070802D01*
X32820413Y-69027588D01*
X32963672Y-68970670D01*
X33135615Y-68917631D01*
X33314117Y-68874410D01*
X33477055Y-68846946D01*
X33504154Y-68844025D01*
X33624925Y-68832473D01*
X33624925Y-69133971D01*
X33624504Y-69261815D01*
X33622163Y-69347632D01*
X33616284Y-69400244D01*
X33605248Y-69428475D01*
X33587439Y-69441146D01*
X33567718Y-69445920D01*
X33511611Y-69456206D01*
X33427090Y-69471739D01*
X33360759Y-69483946D01*
X33253258Y-69511328D01*
X33133029Y-69553042D01*
X33055654Y-69586319D01*
X32900300Y-69661119D01*
X33364314Y-69663192D01*
X33828328Y-69665266D01*
X33828328Y-72563764D01*
X33567718Y-72560302D01*
X33450669Y-72557811D01*
X33346832Y-72553914D01*
X33270587Y-72549235D01*
X33243544Y-72546225D01*
X32978886Y-72478229D01*
X32718684Y-72366518D01*
X32474441Y-72217738D01*
X32257658Y-72038535D01*
X32133674Y-71904964D01*
X31959234Y-71656879D01*
X31828278Y-71391173D01*
X31741315Y-71113385D01*
X31698853Y-70829057D01*
X31700340Y-70662553D01*
X32305329Y-70662553D01*
X32313806Y-70887389D01*
X32359264Y-71107613D01*
X32442755Y-71314351D01*
X32449836Y-71327689D01*
X32560847Y-71489392D01*
X32708241Y-71639403D01*
X32877584Y-71764231D01*
X32972471Y-71816129D01*
X33062121Y-71857215D01*
X33136208Y-71887747D01*
X33181176Y-71902220D01*
X33185619Y-71902703D01*
X33194950Y-71892843D01*
X33202424Y-71860355D01*
X33208215Y-71800882D01*
X33212497Y-71710066D01*
X33215445Y-71583546D01*
X33217232Y-71416966D01*
X33218033Y-71205966D01*
X33218118Y-71089089D01*
X33218118Y-70275476D01*
X32684184Y-70275476D01*
X32684184Y-69834380D01*
X32620133Y-69894552D01*
X32491234Y-70049104D01*
X32395098Y-70234537D01*
X32332778Y-70441978D01*
X32305329Y-70662553D01*
X31700340Y-70662553D01*
X31701402Y-70543729D01*
X31749471Y-70262940D01*
G37*
G36*
X46083384Y-204420020D02*
G01*
X44862963Y-204420020D01*
X44862963Y-200987588D01*
X46083384Y-200987588D01*
X46083384Y-204420020D01*
G37*
G36*
X34596233Y-68872977D02*
G01*
X34885696Y-68937383D01*
X35094036Y-69016920D01*
X35169134Y-69050624D01*
X35223308Y-69073670D01*
X35242512Y-69080481D01*
X35248264Y-69057734D01*
X35251712Y-69000187D01*
X35252152Y-68966066D01*
X35252152Y-68851652D01*
X35862362Y-68851652D01*
X35862362Y-72563764D01*
X35252152Y-72563764D01*
X35251366Y-71197148D01*
X35250580Y-69830531D01*
X35143308Y-69749903D01*
X35025827Y-69670823D01*
X34894829Y-69597143D01*
X34769843Y-69539219D01*
X34699149Y-69514370D01*
X34616517Y-69490837D01*
X34616517Y-72563764D01*
X34006306Y-72563764D01*
X34006306Y-68851652D01*
X34281919Y-68851652D01*
X34596233Y-68872977D01*
G37*
G36*
X37819877Y-10788405D02*
G01*
X37871922Y-10824626D01*
X37892120Y-10866457D01*
X37893762Y-10878253D01*
X37892984Y-10892366D01*
X37888121Y-10911906D01*
X37877506Y-10939985D01*
X37859474Y-10979714D01*
X37832359Y-11034204D01*
X37794493Y-11106565D01*
X37744213Y-11199908D01*
X37679850Y-11317345D01*
X37599741Y-11461985D01*
X37502218Y-11636941D01*
X37385615Y-11845323D01*
X37248267Y-12090241D01*
X37088507Y-12374807D01*
X36998914Y-12534335D01*
X36860271Y-12781197D01*
X36726746Y-13018963D01*
X36600820Y-13243217D01*
X36484971Y-13449543D01*
X36381679Y-13633526D01*
X36293422Y-13790748D01*
X36222681Y-13916795D01*
X36171935Y-14007250D01*
X36143992Y-14057107D01*
X36074346Y-14165897D01*
X36011222Y-14228720D01*
X35950072Y-14249237D01*
X35913213Y-14243028D01*
X35855984Y-14199838D01*
X35837540Y-14136137D01*
X35851559Y-14100096D01*
X35889408Y-14034175D01*
X35944538Y-13949273D01*
X35983347Y-13893529D01*
X36056186Y-13788198D01*
X36126048Y-13681505D01*
X36181616Y-13590933D01*
X36197769Y-13562278D01*
X36266208Y-13435496D01*
X35565627Y-12152233D01*
X35436951Y-11916386D01*
X35315481Y-11693454D01*
X35203425Y-11487509D01*
X35102988Y-11302621D01*
X35016379Y-11142861D01*
X34945805Y-11012299D01*
X34893473Y-10915006D01*
X34861590Y-10855052D01*
X34852319Y-10836780D01*
X34857984Y-10827058D01*
X34886700Y-10819647D01*
X34943081Y-10814376D01*
X35031738Y-10811076D01*
X35157285Y-10809576D01*
X35324335Y-10809709D01*
X35537500Y-10811302D01*
X35542994Y-10811355D01*
X36246395Y-10818119D01*
X36476305Y-11301202D01*
X36554105Y-11464855D01*
X36632820Y-11630752D01*
X36706788Y-11786941D01*
X36770349Y-11921466D01*
X36817841Y-12022374D01*
X36818865Y-12024559D01*
X36931516Y-12264833D01*
X37239126Y-11719454D01*
X37330455Y-11556139D01*
X37418467Y-11396190D01*
X37498343Y-11248560D01*
X37565266Y-11122199D01*
X37614419Y-11026059D01*
X37632241Y-10989072D01*
X37677529Y-10899951D01*
X37720820Y-10829801D01*
X37754187Y-10791126D01*
X37759675Y-10787978D01*
X37819877Y-10788405D01*
G37*
G36*
X59558859Y-169663464D02*
G01*
X58948319Y-169663464D01*
X58954840Y-167801051D01*
X58961361Y-165938639D01*
X59558859Y-165924313D01*
X59558859Y-169663464D01*
G37*
G36*
X48231064Y-167447600D02*
G01*
X48292706Y-167237050D01*
X48387187Y-167019220D01*
X48443535Y-166909624D01*
X48497541Y-166820294D01*
X48559242Y-166737870D01*
X48638676Y-166648990D01*
X48745878Y-166540292D01*
X48750083Y-166536137D01*
X48884264Y-166409134D01*
X49000635Y-166312641D01*
X49112095Y-166236635D01*
X49197998Y-166188211D01*
X49386976Y-166102193D01*
X49597298Y-166027705D01*
X49807705Y-165971444D01*
X49979830Y-165941900D01*
X50126026Y-165925482D01*
X50126026Y-166533832D01*
X50030681Y-166549036D01*
X49851216Y-166583472D01*
X49703917Y-166626044D01*
X49570171Y-166682161D01*
X49566667Y-166683869D01*
X49426827Y-166752253D01*
X49878128Y-166759196D01*
X50329430Y-166766139D01*
X50329430Y-169663464D01*
X50081532Y-169661391D01*
X49947637Y-169656319D01*
X49808053Y-169644631D01*
X49687070Y-169628533D01*
X49655656Y-169622689D01*
X49488254Y-169574291D01*
X49303327Y-169497822D01*
X49118416Y-169402037D01*
X48951063Y-169295691D01*
X48861615Y-169226421D01*
X48640486Y-169006110D01*
X48462556Y-168760057D01*
X48329198Y-168491029D01*
X48241784Y-168201795D01*
X48201752Y-167896397D01*
X48201927Y-167725596D01*
X48810214Y-167725596D01*
X48814697Y-167975755D01*
X48860122Y-168199728D01*
X48949020Y-168404648D01*
X49083917Y-168597646D01*
X49142977Y-168664245D01*
X49279074Y-168791668D01*
X49423613Y-168887204D01*
X49474728Y-168913515D01*
X49564206Y-168955251D01*
X49638061Y-168986408D01*
X49682869Y-169001404D01*
X49687438Y-169001979D01*
X49696616Y-168991371D01*
X49703973Y-168956477D01*
X49709673Y-168893099D01*
X49713879Y-168797039D01*
X49716755Y-168664097D01*
X49718467Y-168490077D01*
X49719177Y-168270779D01*
X49719219Y-168188789D01*
X49719219Y-167375176D01*
X49185285Y-167375176D01*
X49185285Y-166933430D01*
X49107184Y-167008106D01*
X49059836Y-167065606D01*
X49001956Y-167153506D01*
X48943809Y-167255806D01*
X48926139Y-167290344D01*
X48873866Y-167401352D01*
X48841381Y-167490490D01*
X48822813Y-167579794D01*
X48812294Y-167691299D01*
X48810214Y-167725596D01*
X48201927Y-167725596D01*
X48201992Y-167661490D01*
X48231064Y-167447600D01*
G37*
G36*
X39676176Y-71953554D02*
G01*
X40794895Y-71953554D01*
X40794895Y-72563764D01*
X39065966Y-72563764D01*
X39065966Y-68851652D01*
X39676176Y-68851652D01*
X39676176Y-71953554D01*
G37*
G36*
X46464765Y-192393794D02*
G01*
X46998699Y-192393794D01*
X46998699Y-193207408D01*
X46998998Y-193440316D01*
X46998940Y-193626793D01*
X46997086Y-193771245D01*
X46992000Y-193878079D01*
X46982247Y-193951704D01*
X46966389Y-193996527D01*
X46942989Y-194016954D01*
X46910612Y-194017395D01*
X46867821Y-194002254D01*
X46813179Y-193975942D01*
X46757157Y-193948471D01*
X46552139Y-193824416D01*
X46380544Y-193666525D01*
X46244502Y-193481041D01*
X46146143Y-193274207D01*
X46087596Y-193052268D01*
X46070988Y-192821466D01*
X46098450Y-192588046D01*
X46172111Y-192358251D01*
X46196670Y-192304805D01*
X46252393Y-192203887D01*
X46315694Y-192108969D01*
X46373065Y-192040264D01*
X46374151Y-192039207D01*
X46464765Y-191951587D01*
X46464765Y-192393794D01*
G37*
G36*
X33141842Y-135364565D02*
G01*
X33955456Y-135364565D01*
X33955456Y-135796797D01*
X32709156Y-135796797D01*
X32715739Y-134468319D01*
X32722322Y-133139840D01*
X32932082Y-133132456D01*
X33141842Y-133125071D01*
X33141842Y-135364565D01*
G37*
G36*
X52922823Y-130043537D02*
G01*
X52782908Y-130057977D01*
X52591603Y-130102027D01*
X52409039Y-130189666D01*
X52245494Y-130313658D01*
X52111247Y-130466765D01*
X52045034Y-130577528D01*
X52005355Y-130666169D01*
X51982788Y-130746558D01*
X51972727Y-130840383D01*
X51970645Y-130927828D01*
X51989488Y-131130255D01*
X52051095Y-131310007D01*
X52159005Y-131476332D01*
X52197778Y-131521512D01*
X52300933Y-131611329D01*
X52436421Y-131695541D01*
X52585863Y-131764807D01*
X52730877Y-131809787D01*
X52782662Y-131818778D01*
X52922823Y-131836290D01*
X52922823Y-132262663D01*
X52789339Y-132260990D01*
X52681899Y-132252597D01*
X52564781Y-132233322D01*
X52518872Y-132222477D01*
X52286980Y-132135134D01*
X52077256Y-132006973D01*
X51894378Y-131844024D01*
X51743025Y-131652314D01*
X51627878Y-131437875D01*
X51553614Y-131206733D01*
X51524913Y-130964918D01*
X51524726Y-130941555D01*
X51548531Y-130694078D01*
X51619522Y-130463566D01*
X51738462Y-130248256D01*
X51906112Y-130046388D01*
X51916571Y-130035831D01*
X52096429Y-129882565D01*
X52295460Y-129759883D01*
X52503239Y-129672629D01*
X52709338Y-129625642D01*
X52814765Y-129618721D01*
X52922823Y-129618419D01*
X52922823Y-130043537D01*
G37*
G36*
X46731732Y-166547524D02*
G01*
X46622002Y-166566215D01*
X46476502Y-166609473D01*
X46371563Y-166682254D01*
X46308082Y-166783631D01*
X46286954Y-166912358D01*
X46290193Y-166962073D01*
X46302652Y-167009636D01*
X46328725Y-167060826D01*
X46372810Y-167121421D01*
X46439300Y-167197201D01*
X46532592Y-167293943D01*
X46657080Y-167417428D01*
X46711791Y-167470919D01*
X46838661Y-167596338D01*
X46934391Y-167695713D01*
X47005629Y-167777027D01*
X47059025Y-167848263D01*
X47101227Y-167917403D01*
X47129270Y-167972138D01*
X47167120Y-168053654D01*
X47191777Y-168119986D01*
X47206054Y-168186234D01*
X47212767Y-168267501D01*
X47214729Y-168378886D01*
X47214815Y-168431115D01*
X47214088Y-168556005D01*
X47209812Y-168645440D01*
X47198838Y-168714816D01*
X47178023Y-168779528D01*
X47144218Y-168854971D01*
X47116724Y-168911122D01*
X46981461Y-169128596D01*
X46807885Y-169314475D01*
X46600966Y-169463661D01*
X46551056Y-169491266D01*
X46410886Y-169555193D01*
X46259076Y-169608544D01*
X46113042Y-169646122D01*
X45990200Y-169662729D01*
X45975325Y-169663088D01*
X45905406Y-169663464D01*
X45905406Y-169059753D01*
X46010834Y-169042894D01*
X46203133Y-168988022D01*
X46372170Y-168890465D01*
X46477422Y-168793691D01*
X46562554Y-168680902D01*
X46606770Y-168569524D01*
X46615983Y-168441141D01*
X46610865Y-168377977D01*
X46602111Y-168327480D01*
X46584905Y-168277962D01*
X46554957Y-168223845D01*
X46507982Y-168159552D01*
X46439691Y-168079503D01*
X46345797Y-167978122D01*
X46222012Y-167849830D01*
X46142645Y-167768839D01*
X45991814Y-167609573D01*
X45876885Y-167472819D01*
X45793230Y-167350380D01*
X45736217Y-167234059D01*
X45701217Y-167115663D01*
X45683601Y-166986993D01*
X45681371Y-166952277D01*
X45683692Y-166769305D01*
X45715017Y-166614932D01*
X45779973Y-166473130D01*
X45849043Y-166371292D01*
X45974922Y-166237111D01*
X46130315Y-166121048D01*
X46302141Y-166030087D01*
X46477320Y-165971209D01*
X46635774Y-165951352D01*
X46746058Y-165951352D01*
X46731732Y-166547524D01*
G37*
G04 #@! TD*
M02*
