M48
; DRILL file {KiCad 6.0.4-6f826c9f35~116~ubuntu20.04.1} date Wed Apr 20 21:19:42 2022
; FORMAT={-:-/ absolute / metric / decimal}
; #@! TF.CreationDate,2022-04-20T21:19:42-04:00
; #@! TF.GenerationSoftware,Kicad,Pcbnew,6.0.4-6f826c9f35~116~ubuntu20.04.1
; #@! TF.FileFunction,MixedPlating,1,2
FMAT,2
METRIC
; #@! TA.AperFunction,Plated,PTH,ComponentDrill
T1C0.700
; #@! TA.AperFunction,Plated,PTH,ComponentDrill
T2C0.800
; #@! TA.AperFunction,Plated,PTH,ComponentDrill
T3C0.900
; #@! TA.AperFunction,Plated,PTH,ComponentDrill
T4C1.000
; #@! TA.AperFunction,Plated,PTH,ComponentDrill
T5C1.016
; #@! TA.AperFunction,Plated,PTH,ComponentDrill
T6C1.100
; #@! TA.AperFunction,Plated,PTH,ComponentDrill
T7C1.200
%
G90
G05
T1
X97.46Y-47.37
X102.54Y-47.37
X107.62Y-47.37
T2
X80.95Y-79.12
X82.22Y-108.33
X82.22Y-118.49
X83.49Y-75.31
X86.03Y-108.33
X86.03Y-118.49
X87.34Y-86.74
X88.58Y-95.62
X88.61Y-103.25
X89.84Y-108.33
X89.84Y-118.49
X89.87Y-71.5
X89.88Y-65.15
X91.08Y-95.62
X91.11Y-75.31
X91.11Y-79.12
X91.11Y-103.25
X92.34Y-86.74
X92.37Y-71.5
X92.38Y-65.15
X93.65Y-108.33
X93.65Y-118.49
X96.18Y-71.5
X96.18Y-74.04
X96.18Y-76.58
X96.18Y-79.12
X96.18Y-81.66
X96.18Y-84.2
X96.18Y-86.74
X96.19Y-95.62
X96.19Y-98.16
X96.19Y-100.7
X96.19Y-103.24
X97.46Y-108.33
X97.46Y-115.95
X98.73Y-65.15
X100.0Y-124.84
X100.0Y-135.0
X101.23Y-65.15
X102.9Y-109.24
X102.9Y-111.78
X102.9Y-114.32
X103.8Y-71.5
X103.8Y-74.04
X103.8Y-76.58
X103.8Y-79.12
X103.8Y-81.66
X103.8Y-84.2
X103.8Y-86.74
X103.81Y-95.62
X103.81Y-98.16
X103.81Y-100.7
X103.81Y-103.24
X108.89Y-74.04
X108.89Y-77.85
X108.89Y-81.66
X108.89Y-85.47
X108.89Y-89.28
X108.9Y-93.09
X108.94Y-98.15
X111.39Y-77.85
X113.94Y-98.15
X119.05Y-74.04
X119.05Y-81.66
X119.05Y-85.47
X119.05Y-89.28
X119.06Y-93.09
T3
X98.725Y-150.0
X101.265Y-150.0
T5
X115.24Y-53.72
X115.24Y-56.26
X115.24Y-58.8
X115.24Y-61.34
X115.24Y-63.88
X117.78Y-53.72
X117.78Y-56.26
X117.78Y-58.8
X117.78Y-61.34
X117.78Y-63.88
T6
X97.46Y-53.72
X97.46Y-58.8
X107.62Y-53.72
X107.62Y-58.8
T7
X82.22Y-91.82
X82.22Y-94.36
X82.22Y-99.44
X82.22Y-101.98
X82.22Y-104.52
X106.35Y-65.15
X108.89Y-65.15
T4
X81.1Y-126.65G85X81.1Y-128.35
G05
X81.1Y-151.65G85X81.1Y-153.35
G05
X82.159Y-134.139G85X83.361Y-135.341
G05
X82.159Y-159.139G85X83.361Y-160.341
G05
X87.85Y-123.6G85X86.15Y-123.6
G05
X87.85Y-148.6G85X86.15Y-148.6
G05
X90.85Y-136.4G85X89.15Y-136.4
G05
X90.85Y-161.4G85X89.15Y-161.4
G05
X93.9Y-129.65G85X93.9Y-131.35
G05
X93.9Y-154.65G85X93.9Y-156.35
G05
X106.1Y-126.65G85X106.1Y-128.35
G05
X106.1Y-151.65G85X106.1Y-153.35
G05
X107.159Y-134.139G85X108.361Y-135.341
G05
X107.159Y-159.139G85X108.361Y-160.341
G05
X112.85Y-123.6G85X111.15Y-123.6
G05
X112.85Y-148.6G85X111.15Y-148.6
G05
X115.85Y-136.4G85X114.15Y-136.4
G05
X115.85Y-161.4G85X114.15Y-161.4
G05
X118.9Y-129.65G85X118.9Y-131.35
G05
X118.9Y-154.65G85X118.9Y-156.35
G05
T0
M30
