G04 #@! TF.GenerationSoftware,KiCad,Pcbnew,6.0.4-6f826c9f35~116~ubuntu20.04.1*
G04 #@! TF.CreationDate,2022-05-06T17:46:24-04:00*
G04 #@! TF.ProjectId,yash,79617368-2e6b-4696-9361-645f70636258,rev?*
G04 #@! TF.SameCoordinates,Original*
G04 #@! TF.FileFunction,Legend,Top*
G04 #@! TF.FilePolarity,Positive*
%FSLAX46Y46*%
G04 Gerber Fmt 4.6, Leading zero omitted, Abs format (unit mm)*
G04 Created by KiCad (PCBNEW 6.0.4-6f826c9f35~116~ubuntu20.04.1) date 2022-05-06 17:46:24*
%MOMM*%
%LPD*%
G01*
G04 APERTURE LIST*
%ADD10C,0.150000*%
%ADD11C,0.120000*%
G04 APERTURE END LIST*
D10*
G04 #@! TO.C,J2*
X119589285Y-145250000D02*
X120125000Y-145250000D01*
X120232142Y-145285714D01*
X120303571Y-145357142D01*
X120339285Y-145464285D01*
X120339285Y-145535714D01*
X119660714Y-144928571D02*
X119625000Y-144892857D01*
X119589285Y-144821428D01*
X119589285Y-144642857D01*
X119625000Y-144571428D01*
X119660714Y-144535714D01*
X119732142Y-144500000D01*
X119803571Y-144500000D01*
X119910714Y-144535714D01*
X120339285Y-144964285D01*
X120339285Y-144500000D01*
G04 #@! TO.C,D1*
X99441428Y-146379285D02*
X99441428Y-145629285D01*
X99620000Y-145629285D01*
X99727142Y-145665000D01*
X99798571Y-145736428D01*
X99834285Y-145807857D01*
X99870000Y-145950714D01*
X99870000Y-146057857D01*
X99834285Y-146200714D01*
X99798571Y-146272142D01*
X99727142Y-146343571D01*
X99620000Y-146379285D01*
X99441428Y-146379285D01*
X100584285Y-146379285D02*
X100155714Y-146379285D01*
X100370000Y-146379285D02*
X100370000Y-145629285D01*
X100298571Y-145736428D01*
X100227142Y-145807857D01*
X100155714Y-145843571D01*
X95828571Y-150339285D02*
X95828571Y-149589285D01*
X96257142Y-150339285D02*
X95935714Y-149910714D01*
X96257142Y-149589285D02*
X95828571Y-150017857D01*
G04 #@! TO.C,TP3*
X101593571Y-50007285D02*
X102022142Y-50007285D01*
X101807857Y-50757285D02*
X101807857Y-50007285D01*
X102272142Y-50757285D02*
X102272142Y-50007285D01*
X102557857Y-50007285D01*
X102629285Y-50043000D01*
X102665000Y-50078714D01*
X102700714Y-50150142D01*
X102700714Y-50257285D01*
X102665000Y-50328714D01*
X102629285Y-50364428D01*
X102557857Y-50400142D01*
X102272142Y-50400142D01*
X102950714Y-50007285D02*
X103415000Y-50007285D01*
X103165000Y-50293000D01*
X103272142Y-50293000D01*
X103343571Y-50328714D01*
X103379285Y-50364428D01*
X103415000Y-50435857D01*
X103415000Y-50614428D01*
X103379285Y-50685857D01*
X103343571Y-50721571D01*
X103272142Y-50757285D01*
X103057857Y-50757285D01*
X102986428Y-50721571D01*
X102950714Y-50685857D01*
X101968571Y-49027000D02*
X101897142Y-48991285D01*
X101790000Y-48991285D01*
X101682857Y-49027000D01*
X101611428Y-49098428D01*
X101575714Y-49169857D01*
X101540000Y-49312714D01*
X101540000Y-49419857D01*
X101575714Y-49562714D01*
X101611428Y-49634142D01*
X101682857Y-49705571D01*
X101790000Y-49741285D01*
X101861428Y-49741285D01*
X101968571Y-49705571D01*
X102004285Y-49669857D01*
X102004285Y-49419857D01*
X101861428Y-49419857D01*
X102325714Y-49741285D02*
X102325714Y-48991285D01*
X102754285Y-49741285D01*
X102754285Y-48991285D01*
X103111428Y-49741285D02*
X103111428Y-48991285D01*
X103290000Y-48991285D01*
X103397142Y-49027000D01*
X103468571Y-49098428D01*
X103504285Y-49169857D01*
X103540000Y-49312714D01*
X103540000Y-49419857D01*
X103504285Y-49562714D01*
X103468571Y-49634142D01*
X103397142Y-49705571D01*
X103290000Y-49741285D01*
X103111428Y-49741285D01*
G04 #@! TO.C,TP2*
X96513571Y-50007285D02*
X96942142Y-50007285D01*
X96727857Y-50757285D02*
X96727857Y-50007285D01*
X97192142Y-50757285D02*
X97192142Y-50007285D01*
X97477857Y-50007285D01*
X97549285Y-50043000D01*
X97585000Y-50078714D01*
X97620714Y-50150142D01*
X97620714Y-50257285D01*
X97585000Y-50328714D01*
X97549285Y-50364428D01*
X97477857Y-50400142D01*
X97192142Y-50400142D01*
X97906428Y-50078714D02*
X97942142Y-50043000D01*
X98013571Y-50007285D01*
X98192142Y-50007285D01*
X98263571Y-50043000D01*
X98299285Y-50078714D01*
X98335000Y-50150142D01*
X98335000Y-50221571D01*
X98299285Y-50328714D01*
X97870714Y-50757285D01*
X98335000Y-50757285D01*
X96138571Y-49455571D02*
X96710000Y-49455571D01*
X96424285Y-49741285D02*
X96424285Y-49169857D01*
X97460000Y-49741285D02*
X97031428Y-49741285D01*
X97245714Y-49741285D02*
X97245714Y-48991285D01*
X97174285Y-49098428D01*
X97102857Y-49169857D01*
X97031428Y-49205571D01*
X97745714Y-49062714D02*
X97781428Y-49027000D01*
X97852857Y-48991285D01*
X98031428Y-48991285D01*
X98102857Y-49027000D01*
X98138571Y-49062714D01*
X98174285Y-49134142D01*
X98174285Y-49205571D01*
X98138571Y-49312714D01*
X97710000Y-49741285D01*
X98174285Y-49741285D01*
X98388571Y-48991285D02*
X98638571Y-49741285D01*
X98888571Y-48991285D01*
G04 #@! TO.C,J1*
X119589285Y-120250000D02*
X120125000Y-120250000D01*
X120232142Y-120285714D01*
X120303571Y-120357142D01*
X120339285Y-120464285D01*
X120339285Y-120535714D01*
X120339285Y-119500000D02*
X120339285Y-119928571D01*
X120339285Y-119714285D02*
X119589285Y-119714285D01*
X119696428Y-119785714D01*
X119767857Y-119857142D01*
X119803571Y-119928571D01*
G04 #@! TO.C,J3*
X96589285Y-130250000D02*
X97125000Y-130250000D01*
X97232142Y-130285714D01*
X97303571Y-130357142D01*
X97339285Y-130464285D01*
X97339285Y-130535714D01*
X96589285Y-129964285D02*
X96589285Y-129500000D01*
X96875000Y-129750000D01*
X96875000Y-129642857D01*
X96910714Y-129571428D01*
X96946428Y-129535714D01*
X97017857Y-129500000D01*
X97196428Y-129500000D01*
X97267857Y-129535714D01*
X97303571Y-129571428D01*
X97339285Y-129642857D01*
X97339285Y-129857142D01*
X97303571Y-129928571D01*
X97267857Y-129964285D01*
G04 #@! TO.C,J4*
X96589285Y-155250000D02*
X97125000Y-155250000D01*
X97232142Y-155285714D01*
X97303571Y-155357142D01*
X97339285Y-155464285D01*
X97339285Y-155535714D01*
X96839285Y-154571428D02*
X97339285Y-154571428D01*
X96553571Y-154750000D02*
X97089285Y-154928571D01*
X97089285Y-154464285D01*
G04 #@! TO.C,TP1*
X106673571Y-50007285D02*
X107102142Y-50007285D01*
X106887857Y-50757285D02*
X106887857Y-50007285D01*
X107352142Y-50757285D02*
X107352142Y-50007285D01*
X107637857Y-50007285D01*
X107709285Y-50043000D01*
X107745000Y-50078714D01*
X107780714Y-50150142D01*
X107780714Y-50257285D01*
X107745000Y-50328714D01*
X107709285Y-50364428D01*
X107637857Y-50400142D01*
X107352142Y-50400142D01*
X108495000Y-50757285D02*
X108066428Y-50757285D01*
X108280714Y-50757285D02*
X108280714Y-50007285D01*
X108209285Y-50114428D01*
X108137857Y-50185857D01*
X108066428Y-50221571D01*
X106298571Y-49455571D02*
X106870000Y-49455571D01*
X107620000Y-49741285D02*
X107191428Y-49741285D01*
X107405714Y-49741285D02*
X107405714Y-48991285D01*
X107334285Y-49098428D01*
X107262857Y-49169857D01*
X107191428Y-49205571D01*
X107905714Y-49062714D02*
X107941428Y-49027000D01*
X108012857Y-48991285D01*
X108191428Y-48991285D01*
X108262857Y-49027000D01*
X108298571Y-49062714D01*
X108334285Y-49134142D01*
X108334285Y-49205571D01*
X108298571Y-49312714D01*
X107870000Y-49741285D01*
X108334285Y-49741285D01*
X108548571Y-48991285D02*
X108798571Y-49741285D01*
X109048571Y-48991285D01*
D11*
G04 #@! TO.C,J2*
X114000000Y-147100000D02*
X120400000Y-147100000D01*
X120400000Y-147100000D02*
X120400000Y-153500000D01*
X106650000Y-162850000D02*
X104650000Y-160350000D01*
X120400000Y-157500000D02*
X120400000Y-162850000D01*
X112900000Y-162850000D02*
X106700000Y-162850000D01*
X120400000Y-162850000D02*
X117200000Y-162850000D01*
X104650000Y-147100000D02*
X110000000Y-147100000D01*
X106700000Y-162850000D02*
X106650000Y-162850000D01*
X104650000Y-150500000D02*
X104650000Y-147100000D01*
X104650000Y-160350000D02*
X104650000Y-154500000D01*
G04 #@! TO.C,D1*
X97435000Y-148455000D02*
X97435000Y-151545000D01*
X97435000Y-151544830D02*
G75*
G03*
X102985000Y-149999538I2560000J1544830D01*
G01*
X102985000Y-150000462D02*
G75*
G03*
X97435000Y-148455170I-2990000J462D01*
G01*
X102495000Y-150000000D02*
G75*
G03*
X102495000Y-150000000I-2500000J0D01*
G01*
G04 #@! TO.C,TP3*
X103490000Y-46420000D02*
X103490000Y-48320000D01*
X103490000Y-48320000D02*
X101590000Y-48320000D01*
X101590000Y-48320000D02*
X101590000Y-46420000D01*
X101590000Y-46420000D02*
X103490000Y-46420000D01*
G04 #@! TO.C,TP2*
X98410000Y-47370000D02*
G75*
G03*
X98410000Y-47370000I-950000J0D01*
G01*
G04 #@! TO.C,J1*
X120400000Y-122100000D02*
X120400000Y-128500000D01*
X114000000Y-122100000D02*
X120400000Y-122100000D01*
X106650000Y-137850000D02*
X104650000Y-135350000D01*
X104650000Y-125500000D02*
X104650000Y-122100000D01*
X120400000Y-132500000D02*
X120400000Y-137850000D01*
X112900000Y-137850000D02*
X106700000Y-137850000D01*
X120400000Y-137850000D02*
X117200000Y-137850000D01*
X104650000Y-135350000D02*
X104650000Y-129500000D01*
X104650000Y-122100000D02*
X110000000Y-122100000D01*
X106700000Y-137850000D02*
X106650000Y-137850000D01*
G04 #@! TO.C,J3*
X95400000Y-122100000D02*
X95400000Y-128500000D01*
X79650000Y-122100000D02*
X85000000Y-122100000D01*
X95400000Y-132500000D02*
X95400000Y-137850000D01*
X81700000Y-137850000D02*
X81650000Y-137850000D01*
X79650000Y-135350000D02*
X79650000Y-129500000D01*
X89000000Y-122100000D02*
X95400000Y-122100000D01*
X95400000Y-137850000D02*
X92200000Y-137850000D01*
X81650000Y-137850000D02*
X79650000Y-135350000D01*
X87900000Y-137850000D02*
X81700000Y-137850000D01*
X79650000Y-125500000D02*
X79650000Y-122100000D01*
G04 #@! TO.C,J4*
X95400000Y-162850000D02*
X92200000Y-162850000D01*
X87900000Y-162850000D02*
X81700000Y-162850000D01*
X79650000Y-160350000D02*
X79650000Y-154500000D01*
X89000000Y-147100000D02*
X95400000Y-147100000D01*
X81700000Y-162850000D02*
X81650000Y-162850000D01*
X79650000Y-147100000D02*
X85000000Y-147100000D01*
X95400000Y-157500000D02*
X95400000Y-162850000D01*
X95400000Y-147100000D02*
X95400000Y-153500000D01*
X79650000Y-150500000D02*
X79650000Y-147100000D01*
X81650000Y-162850000D02*
X79650000Y-160350000D01*
G04 #@! TO.C,TP1*
X108570000Y-47370000D02*
G75*
G03*
X108570000Y-47370000I-950000J0D01*
G01*
G04 #@! TD*
M02*
